<svg id="Ebene_1" data-name="Ebene 1" xmlns="http://www.w3.org/2000/svg" viewBox="0 0 31 29"><defs><style>.cls-1{fill:#1d1d1b;}</style></defs><title>aisensei_icon</title><path class="cls-1" d="M20.11,23.27a1.15,1.15,0,0,1-.57-.14l-4-2.08a.21.21,0,0,0-.19,0l-4,2.08a1.21,1.21,0,0,1-1.76-1.27l.76-4.41a.22.22,0,0,0-.06-.19l-3.2-3.12a1.2,1.2,0,0,1,.67-2.06l4.43-.64a.22.22,0,0,0,.15-.12l2-4a1.21,1.21,0,0,1,2.17,0l2,4a.22.22,0,0,0,.15.12l4.43.64a1.2,1.2,0,0,1,.67,2.06l-3.2,3.12a.22.22,0,0,0-.06.19l.76,4.41A1.22,1.22,0,0,1,20.82,23,1.25,1.25,0,0,1,20.11,23.27ZM15.48,20a1.25,1.25,0,0,1,.57.13l4,2.09a.2.2,0,0,0,.22,0,.19.19,0,0,0,.08-.2l-.76-4.41a1.23,1.23,0,0,1,.35-1.07l3.21-3.13a.2.2,0,0,0,.05-.21.23.23,0,0,0-.17-.14l-4.43-.64a1.23,1.23,0,0,1-.91-.67l-2-4c-.1-.2-.27-.2-.37,0l-2,4a1.24,1.24,0,0,1-.91.66L8,13.07a.23.23,0,0,0-.17.14.2.2,0,0,0,.05.21l3.21,3.13a1.24,1.24,0,0,1,.35,1.07L10.66,22a.19.19,0,0,0,.08.2.2.2,0,0,0,.22,0l4-2.09A1.24,1.24,0,0,1,15.48,20Z"/></svg>