<svg id="Ebene_1" data-name="Ebene 1" xmlns="http://www.w3.org/2000/svg" viewBox="0 0 31 29"><defs><style>.cls-1{fill:#1d1d1b;}</style></defs><title>aisensei_icon</title><path class="cls-1" d="M22.72,20.69a.5.5,0,0,1-.5-.5V9.13a.5.5,0,0,1,.5-.5.5.5,0,0,1,.5.5V20.19A.5.5,0,0,1,22.72,20.69Z"/><path class="cls-1" d="M9.27,20.64a.84.84,0,0,1-.46-.13.81.81,0,0,1-.41-.72V9.5a.79.79,0,0,1,.43-.72.91.91,0,0,1,.95.09l3.42,2.81V9.5a.8.8,0,0,1,.44-.72.91.91,0,0,1,.95.09l6,4.9a1.21,1.21,0,0,1,.41.91,1.18,1.18,0,0,1-.41.9l-6,4.9a.94.94,0,0,1-1,0,.82.82,0,0,1-.42-.72V17.68L9.76,20.51A1.05,1.05,0,0,1,9.27,20.64Z"/></svg>