<svg id="Ebene_1" data-name="Ebene 1" xmlns="http://www.w3.org/2000/svg" viewBox="0 0 31 29"><defs><style>.cls-1{fill:#1d1d1b;}</style></defs><title>aisensei_icon</title><path class="cls-1" d="M21.9,13.8c0-1.66-2.92-2.56-5.66-2.56s-5.67.9-5.67,2.56V14s0,0,0,0a.19.19,0,0,0,0,.07c0,1.86,0,1.91,0,1.93.18,1.58,3,2.41,5.66,2.41s5.66-.9,5.66-2.56V14.05a.29.29,0,0,0,0-.09A.78.78,0,0,0,21.9,13.8Zm-5.66,3.59c-2.79,0-4.59-.89-4.66-1.49v-.6a9.21,9.21,0,0,0,4.66,1.06A9.29,9.29,0,0,0,20.9,15.3v.53C20.9,16.47,19.08,17.39,16.24,17.39Z"/></svg>