<svg id="Ebene_1" data-name="Ebene 1" xmlns="http://www.w3.org/2000/svg" viewBox="0 0 31 29"><defs><style>.cls-1{fill:#1d1d1b;}</style></defs><title>aisensei_icon</title><path class="cls-1" d="M16.07,18.27A1.67,1.67,0,0,1,14.4,16.6V14a1.67,1.67,0,0,1,1.67-1.67h2V10.86A6,6,0,0,0,8,15.16a6,6,0,0,0,10.09,4.3V18.27Z"/><path class="cls-1" d="M23.65,15l-3.5-4.69a.53.53,0,0,0-.2-.16l-.07,0-.17,0h-.19a.72.72,0,0,0-.2.09.58.58,0,0,0-.23.43v2.77h-3a.67.67,0,0,0-.67.67V16.6a.67.67,0,0,0,.67.67h3V20a.59.59,0,0,0,.23.49.52.52,0,0,0,.2.09h.06l.09,0h0a.53.53,0,0,0,.17,0s.05,0,.07,0a.45.45,0,0,0,.2-.16l3.5-4.69a.57.57,0,0,0,.12-.35A.6.6,0,0,0,23.65,15Z"/></svg>