<svg id="Ebene_1" data-name="Ebene 1" xmlns="http://www.w3.org/2000/svg" viewBox="0 0 31 29"><defs><style>.cls-1{fill:#1d1d1b;}</style></defs><title>aisensei_icon</title><path class="cls-1" d="M26,21,24,17.7V8.2a.51.51,0,0,0-.5-.5H18.85v1H23v8.62H8V8.7h4.78v-1H7.53a.5.5,0,0,0-.5.5v9.5L5.11,21a.48.48,0,0,0,0,.49.47.47,0,0,0,.42.24h20a.49.49,0,0,0,.42-.24A.48.48,0,0,0,26,21ZM6.37,20.75l1.42-2.42H23.27l1.41,2.42Z"/><path class="cls-1" d="M10.45,10.83a.58.58,0,0,0,.12.83l4.69,3.5a.57.57,0,0,0,.35.12.61.61,0,0,0,.3-.08l4.74-3.54a.58.58,0,0,0,.12-.83.56.56,0,0,0-.42-.23H17.8V7.54a.67.67,0,0,0-.67-.67H14.54a.67.67,0,0,0-.67.67V10.6H10.93A.59.59,0,0,0,10.45,10.83Z"/></svg>