<svg id="Ebene_1" data-name="Ebene 1" xmlns="http://www.w3.org/2000/svg" viewBox="0 0 31 29"><defs><style>.cls-1{fill:#1d1d1b;}</style></defs><title>aisensei_icon</title><path class="cls-1" d="M22.62,11.83H30.2a.46.46,0,1,0,0-.91H22.62a.46.46,0,1,0,0,.91Z"/><path class="cls-1" d="M30.2,14.34H22.62a.46.46,0,1,0,0,.92H30.2a.46.46,0,1,0,0-.92Z"/><path class="cls-1" d="M30.2,17.76H22.62a.46.46,0,0,0,0,.92H30.2a.46.46,0,1,0,0-.92Z"/><path class="cls-1" d="M13.1,9.52a1.19,1.19,0,1,0,1.19,1.19A1.19,1.19,0,0,0,13.1,9.52Z"/><path class="cls-1" d="M17.14,6H1.62A1.08,1.08,0,0,0,.54,7.06V22.57a1.08,1.08,0,0,0,1.08,1.08H17.14a1.07,1.07,0,0,0,1.07-1.08V7.06A1.07,1.07,0,0,0,17.14,6ZM4.83,16.91a2,2,0,1,1,2-2A2,2,0,0,1,4.83,16.91Zm4.14,0a2,2,0,1,1,2-2A2,2,0,0,1,9,16.91ZM9,12.7a2,2,0,1,1,2-2A2,2,0,0,1,9,12.7Zm4.13,8.43a2,2,0,1,1,2-2A2,2,0,0,1,13.1,21.13Zm0-8.43a2,2,0,1,1,2-2A2,2,0,0,1,13.1,12.7Z"/><path class="cls-1" d="M9,9.52a1.19,1.19,0,1,0,1.18,1.19A1.19,1.19,0,0,0,9,9.52Z"/></svg>