<svg id="Ebene_1" data-name="Ebene 1" xmlns="http://www.w3.org/2000/svg" viewBox="0 0 31 29"><defs><style>.cls-1{fill:#1d1d1b;}.cls-2{fill:none;}</style></defs><title>aisensei_icon</title><path class="cls-1" d="M13.66,16.51a5.62,5.62,0,0,0-2.16-1.07,2.51,2.51,0,0,1-1-.4.63.63,0,0,1,.11.12c.1.12.23.35.34.47a8.36,8.36,0,0,0,.68.79,5.83,5.83,0,0,0,1.39.9,6.88,6.88,0,0,0,1.41.39.28.28,0,0,1,.11,0,6.15,6.15,0,0,0-.48-.81A3.58,3.58,0,0,0,13.66,16.51Z"/><path class="cls-1" d="M22.32,12.16a10.09,10.09,0,0,1,.31-1.1,6.63,6.63,0,0,0,.1-1.7,7.46,7.46,0,0,0-2.08.35,5.58,5.58,0,0,0-1.27.79,3,3,0,0,1,.95-.3,3.43,3.43,0,0,1,1.92.3,4.21,4.21,0,0,0-1.64.15,2.3,2.3,0,0,0-.58.44,3.21,3.21,0,0,0-.31-.26l-.39-.29a5.69,5.69,0,0,0-.71-.4,5.48,5.48,0,0,0-.88-.29,6.5,6.5,0,0,1,2.44-1,4.85,4.85,0,0,1,2.51.2,8.62,8.62,0,0,0-.22-1.24,7.61,7.61,0,0,0-2-3.26,1,1,0,0,0-.94-.41.85.85,0,0,0-.55.64,7.45,7.45,0,0,1-1.29,2.65c-.58.7-1.48,1.44-2.09,1.43A3.78,3.78,0,0,1,13.4,7c-.14-.29-.27-.6-.39-.9a8.83,8.83,0,0,0-.64-1.38l-.07-.11c-.11-.18-.45-.75-1-.47A5.37,5.37,0,0,0,9.18,6.7a7.3,7.3,0,0,0-.52,4.1,4,4,0,0,0,.24.76.92.92,0,0,1,.13.59,5.42,5.42,0,0,1-.29.86c-.1.25-.47,1.6-.47,1.6a8.74,8.74,0,0,0,.49,5.08A12.13,12.13,0,0,0,13,25a5.25,5.25,0,0,0,2.78.86,4.49,4.49,0,0,0,2.75-1,5.31,5.31,0,0,0,.49-.38l.1-.1a13.47,13.47,0,0,0,1.59-1.65,11.55,11.55,0,0,0,2.39-6.11A7.86,7.86,0,0,0,22.58,13,3.74,3.74,0,0,1,22.32,12.16Zm-8.78,12A11.1,11.1,0,0,1,9.68,19.3a7.69,7.69,0,0,1-.43-4.5h0s.33-1.2.42-1.42a6.51,6.51,0,0,0,.33-1,1.77,1.77,0,0,0-.17-1.19,3.45,3.45,0,0,1-.18-.57,6.22,6.22,0,0,1,.42-3.47,5.57,5.57,0,0,1,1.41-2l0,.07a7.65,7.65,0,0,1,.57,1.21c.12.32.26.65.4,1,.4.83,1.86,2.38,3.07,2.4h.31a5.69,5.69,0,0,0-2.95.69l-.43.32a11.46,11.46,0,0,1,1.24-.26,2.77,2.77,0,0,1,2.47.94c.82,1.21.62,3-.66,6.13s-.32,5.26.6,6.16a2.56,2.56,0,0,0,1.2.68A3.73,3.73,0,0,1,13.54,24.16Zm7-9c-.09.12-.23.35-.34.47a8.36,8.36,0,0,1-.68.79,5.83,5.83,0,0,1-1.39.9,6.88,6.88,0,0,1-1.41.39l-.11,0a5.29,5.29,0,0,1,.49-.81,2.91,2.91,0,0,1,.43-.43,5.59,5.59,0,0,1,2.17-1.07,2.4,2.4,0,0,0,1-.4A.63.63,0,0,0,20.49,15.16Z"/><path class="cls-2" d="M23.74,9.37A7.37,7.37,0,0,0,22.86,9l0,.37C23.38,9.37,23.74,9.37,23.74,9.37Z"/><path class="cls-2" d="M7.69,9.38a5.93,5.93,0,0,1,3.39-.53A6.5,6.5,0,0,1,13.52,9.9a5.79,5.79,0,0,0-.89.29,5.17,5.17,0,0,0-.7.4,6.41,6.41,0,0,0-1.32-.83A10.71,10.71,0,0,0,7.69,9.38Z"/><path class="cls-2" d="M10.93,10.25c.94.21,1,.34,1,.34l-.4.29a3.21,3.21,0,0,0-.31.26,2.08,2.08,0,0,0-.58-.44A4.21,4.21,0,0,0,9,10.55,3.45,3.45,0,0,1,10.93,10.25Z"/></svg>