<svg id="Ebene_1" data-name="Ebene 1" xmlns="http://www.w3.org/2000/svg" viewBox="0 0 31 29"><defs><style>.cls-1{fill:#1d1d1b;}</style></defs><title>aisensei_icon</title><path class="cls-1" d="M14.38,16.13H10.67a.5.5,0,0,0-.5.5.5.5,0,0,0,.5.5h3.21v3.21a.5.5,0,0,0,.5.5.5.5,0,0,0,.5-.5V16.63A.51.51,0,0,0,14.38,16.13Z"/><path class="cls-1" d="M21.32,16.13h-3.7a.5.5,0,0,0-.5.5v3.71a.5.5,0,0,0,.5.5.5.5,0,0,0,.5-.5V17.13h3.2a.5.5,0,0,0,.5-.5A.5.5,0,0,0,21.32,16.13Z"/><path class="cls-1" d="M14.38,9.28a.5.5,0,0,0-.5.5V13H10.67a.5.5,0,0,0-.5.5.5.5,0,0,0,.5.5h3.71a.51.51,0,0,0,.5-.5V9.78A.5.5,0,0,0,14.38,9.28Z"/><path class="cls-1" d="M17.62,14h3.7a.5.5,0,0,0,.5-.5.5.5,0,0,0-.5-.5h-3.2V9.78a.5.5,0,0,0-.5-.5.5.5,0,0,0-.5.5v3.71A.5.5,0,0,0,17.62,14Z"/></svg>