<svg id="Ebene_1" data-name="Ebene 1" xmlns="http://www.w3.org/2000/svg" viewBox="0 0 31 29"><defs><style>.cls-1{fill:#1d1d1b;}.cls-2{fill:#fff;}</style></defs><title>aisensei_icon</title><path class="cls-1" d="M16.1,10.74c3.34,0,6.89-1.07,6.89-3S19.44,4.63,16.1,4.63,9.21,5.7,9.21,7.69v.17C9.42,9.75,12.83,10.74,16.1,10.74Z"/><path class="cls-1" d="M16.18,11.79c-4.15,0-5.67-1.08-5.86-1.19S9.48,10,9.48,10s.8,12.33.8,12.35C10.44,23.85,12.94,25,16.1,25c3.32,0,5.82-1.22,5.82-2.79L22.71,10a7.24,7.24,0,0,1-.83.57C21.58,10.76,20.1,11.79,16.18,11.79ZM11.6,22.66h0a.49.49,0,0,1-.49-.47l-.44-9.53a.47.47,0,0,1,.46-.5.49.49,0,0,1,.5.46l.45,9.53A.49.49,0,0,1,11.6,22.66Zm1.79,1.15h0a.49.49,0,0,1-.49-.47l-.19-5.2a.48.48,0,1,1,1,0l.2,5.19A.49.49,0,0,1,13.39,23.81Z"/><path class="cls-2" d="M15.34,7.41h1.79a.5.5,0,0,0,.5-.5.51.51,0,0,0-.5-.5H15.34a.5.5,0,0,0-.5.5A.5.5,0,0,0,15.34,7.41Z"/></svg>