<svg id="Ebene_1" data-name="Ebene 1" xmlns="http://www.w3.org/2000/svg" viewBox="0 0 31 29"><defs><style>.cls-1{fill:#1d1d1b;}</style></defs><title>aisensei_icon</title><path class="cls-1" d="M20.18,23.27a1.14,1.14,0,0,1-.56-.14l-4-2.08a.21.21,0,0,0-.19,0l-4,2.08a1.21,1.21,0,0,1-1.76-1.27l.76-4.41a.22.22,0,0,0-.06-.19l-3.2-3.12a1.21,1.21,0,0,1,.66-2.06l4.43-.64a.22.22,0,0,0,.16-.12l2-4a1.21,1.21,0,0,1,2.17,0l2,4a.22.22,0,0,0,.15.12l4.43.64a1.2,1.2,0,0,1,.67,2.06l-3.2,3.12a.22.22,0,0,0-.06.19l.75,4.41A1.18,1.18,0,0,1,20.89,23,1.23,1.23,0,0,1,20.18,23.27Z"/></svg>