<svg id="Ebene_1" data-name="Ebene 1" xmlns="http://www.w3.org/2000/svg" viewBox="0 0 31 29"><defs><style>.cls-1{fill:#1d1d1b;}</style></defs><title>aisensei_icon</title><path class="cls-1" d="M25.3,12.6c0-1.67-2.92-2.56-5.66-2.56h-.3c-.65-1.1-2.81-1.84-5.45-1.84s-5.66.9-5.66,2.57v2.17a2.23,2.23,0,0,0,1.36,1.57c-1.81.36-3.27,1.15-3.27,2.33V17s0,0,0,0a.24.24,0,0,0,0,.08c0,1.85,0,1.9,0,1.92.18,1.59,3,2.42,5.66,2.42s5.53-.87,5.65-2.46a13,13,0,0,0,2,.16c2.74,0,5.66-.9,5.66-2.57V15.08c0-.06-.11-.06-.13-.11a.56.56,0,0,0,.13-.34Zm-1,2c0,.63-1.82,1.56-4.66,1.56A11.11,11.11,0,0,1,17.35,16,4.41,4.41,0,0,0,15,14.64V14.1a9.21,9.21,0,0,0,4.66,1.06A9.39,9.39,0,0,0,24.3,14.1ZM9.23,12.87v-.6a9.24,9.24,0,0,0,4.66,1.06l.08,0c0,.3,0,.74,0,1.06h-.09c-.26,0-.5,0-.75,0l-.42,0C10.61,14.09,9.29,13.38,9.23,12.87ZM12,20.43c-2.79,0-4.59-.89-4.66-1.49v-.6A9.21,9.21,0,0,0,12,19.4a9.29,9.29,0,0,0,4.66-1.07v.53C16.65,19.5,14.83,20.43,12,20.43Zm7.65-2.3A12.19,12.19,0,0,1,17.7,18h-.05v-.88s0-.05,0-.07a13,13,0,0,0,2,.17,9.29,9.29,0,0,0,4.66-1.07v.44C24.3,17.2,22.48,18.13,19.64,18.13Z"/></svg>