<svg id="Ebene_1" data-name="Ebene 1" xmlns="http://www.w3.org/2000/svg" viewBox="0 0 31 29"><defs><style>.cls-1{fill:#1d1d1b;}</style></defs><title>aisensei_icon</title><path class="cls-1" d="M22.29,11.94a.5.5,0,0,1-.5-.5V8.23H18.58a.5.5,0,0,1-.5-.5.51.51,0,0,1,.5-.5h3.71a.51.51,0,0,1,.5.5v3.71A.5.5,0,0,1,22.29,11.94Z"/><path class="cls-1" d="M9.63,11.94a.5.5,0,0,1-.5-.5V7.73a.51.51,0,0,1,.5-.5h3.71a.5.5,0,0,1,.5.5.5.5,0,0,1-.5.5H10.13v3.21A.5.5,0,0,1,9.63,11.94Z"/><path class="cls-1" d="M22.29,20.89H18.58a.51.51,0,0,1-.5-.5.5.5,0,0,1,.5-.5h3.21V16.68a.5.5,0,0,1,.5-.5.5.5,0,0,1,.5.5v3.71A.51.51,0,0,1,22.29,20.89Z"/><path class="cls-1" d="M13.34,20.89H9.63a.51.51,0,0,1-.5-.5V16.68a.5.5,0,0,1,.5-.5.5.5,0,0,1,.5.5v3.21h3.21a.5.5,0,0,1,.5.5A.5.5,0,0,1,13.34,20.89Z"/></svg>