<svg id="Ebene_1" data-name="Ebene 1" xmlns="http://www.w3.org/2000/svg" viewBox="0 0 31 29"><defs><style>.cls-1{fill:#1d1d1b;}</style></defs><title>aisensei_icon</title><path class="cls-1" d="M9,20.69a.5.5,0,0,1-.5-.5V9.13a.5.5,0,0,1,.5-.5.5.5,0,0,1,.5.5V20.19A.5.5,0,0,1,9,20.69Z"/><path class="cls-1" d="M22.47,20.64a1,1,0,0,1-.56-.19l-3.42-2.81v2.18a.79.79,0,0,1-.44.72.89.89,0,0,1-.95-.09l-6-4.9a1.19,1.19,0,0,1-.42-.91,1.15,1.15,0,0,1,.42-.9l5.95-4.9a1,1,0,0,1,1,0,.81.81,0,0,1,.41.72v2.11l3.44-2.83a1,1,0,0,1,1,0,.81.81,0,0,1,.41.72V19.82a.84.84,0,0,1-.83.82Z"/></svg>