<svg id="Ebene_1" data-name="Ebene 1" xmlns="http://www.w3.org/2000/svg" viewBox="0 0 31 29"><defs><style>.cls-1{fill:#1d1d1b;}</style></defs><title>aisensei_icon</title><path class="cls-1" d="M26,22,24.1,18.7V9.2a.51.51,0,0,0-.5-.5h-4l1.4,1H23.1v8.62H8.1V9.7h2.26l1.34-1H7.6a.5.5,0,0,0-.5.5v9.5L5.18,22a.5.5,0,0,0,0,.49.5.5,0,0,0,.43.24h20a.49.49,0,0,0,.42-.24A.53.53,0,0,0,26,22ZM6.44,21.75l1.42-2.42H23.34l1.41,2.42Z"/><path class="cls-1" d="M10.49,11.27a.6.6,0,0,0,.42.23h2.78v3a.67.67,0,0,0,.67.68H17a.67.67,0,0,0,.67-.68v-3h2.71a.57.57,0,0,0,.49-.22.6.6,0,0,0-.12-.83L16,6.93a.66.66,0,0,0-.36-.11.63.63,0,0,0-.35.11l-4.69,3.51A.59.59,0,0,0,10.49,11.27Z"/></svg>