<svg width="70" height="70" viewBox="0 0 70 70" fill="none" xmlns="http://www.w3.org/2000/svg">
<path d="M31.0649 5.33683C27.6998 5.47185 24.5571 6.86915 22.103 8.85679C16.0712 13.7419 13.3799 20.9154 10.6146 27.9034C10.6068 27.932 10.5996 27.9608 10.593 27.9898C8.86645 33.0231 7.59226 37.7184 7.85044 42.9766C7.8504 42.9838 7.8504 42.991 7.85044 42.9982C8.01655 46.2979 9.19271 49.15 11.2624 51.2042C13.1995 53.1268 15.8625 54.2564 18.8638 54.7458C29.3739 61.9912 43.0335 62.5862 52.6813 61.5697C53.7134 61.4609 53.887 61.7568 55.0567 62.671C56.2264 63.5852 58.2361 64.8994 61.1248 64.7441C61.3971 64.73 61.6639 64.6624 61.9101 64.5451C62.1562 64.4279 62.3768 64.2633 62.5593 64.0607C62.7419 63.8582 62.8827 63.6217 62.9738 63.3647C63.0649 63.1077 63.1045 62.8353 63.0903 62.563C63.0761 62.2908 63.0084 62.024 62.8911 61.7779C62.7738 61.5317 62.6092 61.3111 62.4066 61.1287C62.2041 60.9462 61.9675 60.8054 61.7105 60.7143C61.4535 60.6233 61.1811 60.5837 60.9089 60.5979C59.1477 60.6926 58.661 60.2357 57.6049 59.4102C56.5488 58.5848 54.7533 57.1813 52.2494 57.4451C43.0993 58.4092 30.1258 57.6576 20.9153 51.1394C20.6403 50.9432 20.3215 50.8172 19.9867 50.7723C17.4055 50.4379 15.4973 49.5557 14.1993 48.2673C12.9013 46.9789 12.0991 45.2467 11.975 42.7822C11.7572 38.345 12.8298 34.2624 14.48 29.4366C17.2542 22.4262 19.7856 16.0675 24.716 12.0744C26.6514 10.5069 29.1286 9.53293 31.5831 9.52623C32.9367 10.6589 33.6323 11.7429 33.8074 12.5927C34.0055 13.5546 33.7802 14.3852 33.1164 15.2488C31.7886 16.9761 28.4894 18.3746 24.7808 17.5595C24.2752 17.4495 23.7467 17.5325 23.2992 17.7922C22.8517 18.0519 22.5174 18.4696 22.3621 18.9632C19.5632 27.6976 21.0333 33.4479 21.9087 40.5148C21.9237 40.7994 21.9972 41.0778 22.1247 41.3327C22.2522 41.5876 22.4308 41.8135 22.6495 41.9962C22.8682 42.179 23.1222 42.3147 23.3956 42.3949C23.6691 42.4751 23.9562 42.498 24.2389 42.4623C24.5216 42.4266 24.794 42.333 25.0389 42.1873C25.2839 42.0416 25.4961 41.847 25.6625 41.6156C25.8288 41.3842 25.9457 41.121 26.0058 40.8424C26.0659 40.5639 26.0679 40.2759 26.0117 39.9965C25.1678 33.1844 24.1145 28.6567 25.9469 21.7921C30.2656 22.1253 34.1995 20.6364 36.3988 17.7754C37.6733 16.1174 38.3185 13.9416 37.8672 11.7505C37.4159 9.55941 35.9554 7.48467 33.5914 5.74713C33.2753 5.51856 32.901 5.38383 32.5117 5.35843C32.0229 5.32425 31.5456 5.31754 31.0649 5.33683ZM51.9254 13.9532C51.5174 13.9496 51.1173 14.0666 50.7755 14.2894C50.4336 14.5122 50.165 14.8309 50.0035 15.2057L45.5766 25.0313C45.4607 25.28 45.3953 25.5492 45.3842 25.8234C45.3731 26.0975 45.4166 26.3712 45.512 26.6284C45.6075 26.8856 45.753 27.1214 45.9403 27.3219C46.1275 27.5225 46.3527 27.6839 46.6027 27.7968C46.8528 27.9097 47.1228 27.9718 47.3971 27.9796C47.6714 27.9874 47.9444 27.9406 48.2005 27.8421C48.4566 27.7435 48.6905 27.5951 48.8888 27.4055C49.0871 27.2158 49.2458 26.9887 49.3557 26.7373L53.7826 16.9117C53.9312 16.597 53.9981 16.25 53.9774 15.9027C53.9566 15.5553 53.8488 15.2188 53.6638 14.9241C53.4788 14.6294 53.2226 14.386 52.9188 14.2163C52.615 14.0466 52.2734 13.9561 51.9254 13.9532ZM39.4652 18.3801C39.1929 18.3939 38.9259 18.4614 38.6797 18.5785C38.4334 18.6957 38.2127 18.8603 38.0301 19.0629C37.8476 19.2655 37.7068 19.5021 37.6159 19.7592C37.5249 20.0163 37.4856 20.2889 37.5001 20.5612L37.7376 27.5147C37.7475 27.787 37.8109 28.0546 37.9243 28.3024C38.0376 28.5502 38.1986 28.7732 38.3982 28.9587C38.5977 29.1442 38.8318 29.2886 39.0872 29.3837C39.3425 29.4787 39.6141 29.5225 39.8863 29.5126C40.1586 29.5027 40.4263 29.4392 40.674 29.3258C40.9218 29.2124 41.1447 29.0514 41.3302 28.8518C41.5157 28.6522 41.6601 28.4181 41.7551 28.1627C41.8501 27.9074 41.8938 27.6358 41.8839 27.3635L41.6463 20.41C41.6409 20.1321 41.5796 19.8581 41.4662 19.6044C41.3527 19.3506 41.1894 19.1223 40.9859 18.9329C40.7824 18.7435 40.543 18.597 40.2817 18.502C40.0205 18.4071 39.7428 18.3656 39.4652 18.3801ZM57.4753 24.8153C57.011 24.8655 56.5773 25.071 56.2444 25.3984L51.2344 30.1493C51.0185 30.3315 50.8421 30.5559 50.7161 30.8087C50.5901 31.0615 50.517 31.3374 50.5015 31.6195C50.4859 31.9015 50.5282 32.1838 50.6256 32.449C50.7231 32.7141 50.8737 32.9566 51.0682 33.1614C51.2627 33.3662 51.4971 33.5292 51.7569 33.6402C52.0166 33.7512 52.2963 33.808 52.5788 33.807C52.8613 33.806 53.1406 33.7473 53.3996 33.6345C53.6586 33.5217 53.8918 33.3571 54.0849 33.1509L59.0949 28.4001C59.4144 28.1047 59.6328 27.7163 59.7193 27.2899C59.8058 26.8635 59.7559 26.4206 59.5768 26.0241C59.3976 25.6276 59.0983 25.2975 58.7211 25.0806C58.344 24.8636 57.9081 24.7708 57.4753 24.8153ZM39.0333 32.719C35.9921 32.846 32.6827 33.8604 29.4021 36.347C29.1811 36.51 28.9947 36.7152 28.8537 36.9508C28.7127 37.1864 28.62 37.4477 28.5808 37.7194C28.5416 37.9912 28.5567 38.268 28.6254 38.5339C28.694 38.7997 28.8148 39.0493 28.9807 39.2681C29.1466 39.4868 29.3543 39.6705 29.5917 39.8084C29.8291 39.9463 30.0916 40.0356 30.3638 40.0712C30.6361 40.1069 30.9127 40.0881 31.1776 40.0159C31.4425 39.9438 31.6905 39.8197 31.907 39.651C35.9882 36.5577 39.427 36.4266 42.5749 37.1892C45.7227 37.9517 48.4303 39.7675 50.4786 40.9251C50.7645 41.0831 51.0837 41.1714 51.4102 41.1826C51.7367 41.1939 52.0612 41.1278 52.3573 40.9899C54.6055 39.9671 57.5487 39.83 60.0019 40.7955C60.2593 40.924 60.5406 40.9976 60.828 41.0114C61.1153 41.0253 61.4025 40.9793 61.6711 40.8762C61.9396 40.7731 62.1838 40.6152 62.3881 40.4126C62.5924 40.21 62.7522 39.9671 62.8575 39.6993C62.9628 39.4316 63.0112 39.1449 62.9997 38.8574C62.9881 38.5699 62.9169 38.288 62.7905 38.0296C62.6641 37.7711 62.4853 37.5418 62.2654 37.3562C62.0456 37.1707 61.7895 37.0329 61.5135 36.9516C58.3011 35.6873 54.7913 35.7647 51.7095 36.8653C49.8988 35.7872 47.1538 34.0464 43.5466 33.1725C42.5329 32.9268 41.4548 32.7625 40.329 32.719C39.9068 32.7028 39.4678 32.7009 39.0333 32.719Z" fill="#17242C"/>
</svg>
