<svg width="71" height="72" viewBox="0 0 71 72" fill="none" xmlns="http://www.w3.org/2000/svg">
<path d="M56.8889 38.4444H59.5556C60.8889 38.4444 62 37.3333 62 36C62 34.6667 60.8889 33.5556 59.5556 33.5556H56.8889C55.7778 23.9259 48.0741 16.2222 38.4444 15.1111V12.4444C38.4444 11.1111 37.3333 10 36 10C34.6667 10 33.5556 11.1111 33.5556 12.4444V15.1111C23.9259 16.2222 16.2222 23.9259 15.1111 33.5556H12.4444C11.1111 33.5556 10 34.6667 10 36C10 37.3333 11.1111 38.4444 12.4444 38.4444H15.1111C16.2222 48.0741 23.9259 55.7778 33.5556 56.8889V59.5556C33.5556 60.8889 34.6667 62 36 62C37.3333 62 38.4444 60.8889 38.4444 59.5556V56.8889C48.0741 55.7778 55.7778 48.0741 56.8889 38.4444ZM38.4444 53V49.6296C38.4444 48.2963 37.3333 47.1852 36 47.1852C34.6667 47.1852 33.5556 48.2963 33.5556 49.6296V53C26.5926 51.963 20.1111 45.3333 19 38.3704H22.2963C23.6296 38.3704 24.7407 37.2593 24.7407 35.9259C24.7407 34.5926 23.6296 33.4815 22.2963 33.4815H19C20.037 26.5185 26.5926 20.1111 33.5556 19V22.2222C33.5556 23.5556 34.6667 24.6667 36 24.6667C37.3333 24.6667 38.4444 23.5556 38.4444 22.2222V19C45.4074 20.037 51.8889 26.5185 53 33.4815H49.7037C48.3704 33.4815 47.2593 34.5926 47.2593 35.9259C47.2593 37.2593 48.3704 38.3704 49.7037 38.3704H53C51.8889 45.4074 45.4074 51.963 38.4444 53Z" fill="#17242C"/>
<path d="M35.7454 31.9883C33.4186 31.9883 31.5149 33.892 31.5149 36.2188C31.5149 38.5456 33.4186 40.4494 35.7454 40.4494C38.0722 40.4494 39.976 38.5456 39.976 36.2188C39.976 33.892 38.0722 31.9883 35.7454 31.9883Z" fill="#17242C"/>
<path d="M10.2212 13.7965L8.17642 15.8412C7.61235 16.4053 7.89439 17.3924 8.74049 17.463L17.2721 18.8026C17.9067 18.8731 18.4707 18.3091 18.4002 17.6745L17.0606 9.14289C16.9195 8.36729 16.0029 8.01474 15.4389 8.57881L13.3941 10.6236L5.49708 2.93809C5.21504 2.65605 4.79199 2.65605 4.50995 2.93809L2.46519 4.98285C2.18315 5.26489 2.18315 5.68794 2.46519 5.96998L10.2212 13.7965Z" fill="#17242C"/>
<path d="M61.2697 58.641L63.3145 56.5963C63.8786 56.0322 63.5965 55.0451 62.7504 54.9746L54.2188 53.6349C53.5843 53.5644 53.0202 54.1285 53.0907 54.763L54.4304 63.2946C54.5714 64.0702 55.488 64.4228 56.0521 63.8587L58.0968 61.8139L65.9233 69.6404C66.2054 69.9225 66.6284 69.9225 66.9105 69.6404L68.9552 67.5957C69.2373 67.3136 69.2373 66.8906 68.9552 66.6085L61.2697 58.641Z" fill="#17242C"/>
<path d="M54.2893 18.8026L62.8209 17.463C63.5965 17.3219 63.949 16.4053 63.385 15.8412L61.3402 13.7965L69.0257 5.96998C69.3077 5.68794 69.3077 5.26489 69.0257 4.98285L66.9809 2.93809C66.6989 2.65605 66.2758 2.65605 65.9938 2.93809L58.1673 10.6941L56.1225 8.64932C55.5585 8.08525 54.5713 8.36729 54.5008 9.2134L53.1612 17.745C53.0201 18.3796 53.5842 18.9436 54.2893 18.8026Z" fill="#17242C"/>
<path d="M17.2016 53.6352L8.66999 54.9749C7.89439 55.1159 7.54184 56.0325 8.10591 56.5966L10.1507 58.6413L2.46519 66.4678C2.18315 66.7499 2.18315 67.1729 2.46519 67.455L4.50995 69.4997C4.79199 69.7818 5.21504 69.7818 5.49708 69.4997L13.3236 61.6732L15.3683 63.718C15.9324 64.2821 16.9195 64 16.9901 63.1539L18.3297 54.6223C18.4707 54.0583 17.9067 53.4942 17.2016 53.6352Z" fill="#17242C"/>
</svg>
