<svg width="80" height="80" viewBox="0 0 80 80" fill="none" xmlns="http://www.w3.org/2000/svg">
<g clip-path="url(#clip0_222:6940)">
<path d="M68.2643 42.6564C58.7507 34.0052 49.0083 29.6172 39.3195 29.6172C22.7507 29.6172 12.4043 42.294 11.9747 42.838C11.4683 43.466 11.5251 44.3772 12.0987 44.9412C20.3627 53.0556 29.4787 57.1612 39.1939 57.1612C55.6483 57.1612 67.7987 45.4428 68.3051 44.9412C68.6163 44.6364 68.7867 44.2228 68.7755 43.7884C68.7707 43.3596 68.5851 42.946 68.2643 42.6564ZM39.1947 54.0204C30.7499 54.0204 22.7451 50.5628 15.3859 43.7316C18.1875 40.786 26.9515 32.7596 39.3179 32.7596C47.7675 32.7596 56.3459 36.4804 64.8363 43.8196C61.4227 46.6772 51.4539 54.0204 39.1947 54.0204Z" fill="#17242C"/>
<path d="M29.7476 43.3916C29.7476 48.6684 34.0276 52.946 39.3028 52.946C44.578 52.946 48.858 48.6676 48.858 43.3916C48.858 38.1148 44.578 33.834 39.3028 33.834C34.0276 33.834 29.7476 38.1148 29.7476 43.3916ZM36.7924 46.926C36.7924 47.7116 36.1564 48.3476 35.3708 48.3476C34.9788 48.3476 34.6212 48.1868 34.3628 47.9292C34.1052 47.6764 33.9444 47.318 33.9444 46.926V46.7804C33.9444 45.9964 34.5868 45.3604 35.3708 45.3604C35.7636 45.3604 36.1212 45.5196 36.374 45.7788C36.6316 46.03 36.7924 46.3884 36.7924 46.7804V46.926ZM41.102 40.6524C41.6652 40.6524 42.1724 40.8788 42.5444 41.2508C42.9108 41.618 43.1388 42.1308 43.1388 42.6932V42.9012C43.1388 44.026 42.2276 44.9372 41.102 44.9372C40.5388 44.9372 40.026 44.7092 39.6604 44.342C39.2868 43.97 39.0604 43.4636 39.0604 42.9012V42.6932C39.0604 41.5668 39.9756 40.6524 41.102 40.6524Z" fill="#17242C"/>
<path d="M63.9404 25.793C64.2052 25.793 64.4716 25.8794 64.6932 26.0586C65.2092 26.4754 65.29 27.2306 64.874 27.7458L60.9828 32.5698C60.5668 33.0866 59.8124 33.1674 59.2956 32.7514C58.7796 32.3346 58.6996 31.5794 59.1156 31.0642L63.006 26.2402C63.2436 25.945 63.5908 25.793 63.9404 25.793Z" fill="#17242C"/>
<path d="M39.6692 17.2891C40.3316 17.2891 40.8692 17.8267 40.8692 18.4899L40.866 24.6875C40.866 25.3499 40.3284 25.8867 39.666 25.8867C39.0036 25.8867 38.466 25.3491 38.4668 24.6859L38.4684 18.4883C38.4692 17.8259 39.0052 17.2891 39.6692 17.2891Z" fill="#17242C"/>
<path d="M15.4323 25.8984C15.7827 25.8984 16.1307 26.0512 16.3675 26.3464L20.2547 31.1728C20.6707 31.6888 20.5891 32.444 20.0723 32.8592C19.5579 33.276 18.8011 33.1936 18.3859 32.6768L14.4987 27.8504C14.0827 27.3344 14.1643 26.5792 14.6811 26.164C14.9019 25.9848 15.1683 25.8984 15.4323 25.8984Z" fill="#17242C"/>
<path d="M25.9388 19.8398C26.422 19.8398 26.8788 20.1342 27.0604 20.6142L29.2612 26.4078C29.4964 27.027 29.1844 27.7206 28.5652 27.9558C27.9492 28.1886 27.2524 27.8806 27.0172 27.2598L24.8164 21.4662C24.5812 20.847 24.8932 20.1534 25.5124 19.9182C25.6532 19.8654 25.7972 19.8398 25.9388 19.8398Z" fill="#17242C"/>
<path d="M53.3378 19.7539C53.4794 19.7539 53.6218 19.7787 53.7626 19.8315C54.3818 20.0659 54.6946 20.7587 54.4594 21.3787L52.2674 27.1755C52.033 27.7955 51.341 28.1059 50.7202 27.8739C50.1002 27.6395 49.7874 26.9467 50.0226 26.3267L52.2154 20.5299C52.397 20.0491 52.853 19.7539 53.3378 19.7539Z" fill="#17242C"/>
</g>
<defs>
<clipPath id="clip0_222:6940">
<rect width="80" height="80" fill="white"/>
</clipPath>
</defs>
</svg>
