<svg width="67" height="67" viewBox="0 0 67 67" fill="none" xmlns="http://www.w3.org/2000/svg">
<g clip-path="url(#clip0_225:5426)">
<path fill-rule="evenodd" clip-rule="evenodd" d="M43.7726 19.1317C45.8209 20.2167 47.7419 21.4319 49.8068 22.5585C51.3707 23.4138 56.4112 26.143 57.2333 26.9263L58.4014 28.0944C60.6739 30.3891 62.1104 35.1777 62.1104 38.7483C62.1104 42.1419 62.1658 43.9881 60.8759 47.2101C60.0289 49.3276 58.6643 50.9717 56.9897 52.3142C52.965 55.5306 48.4505 55.3341 43.7781 55.3341V60.2362C43.7781 61.0832 43.0861 62.2679 42.6377 62.7163C42.3941 62.9598 41.8571 63.3114 41.5416 63.483C41.1264 63.7127 40.6752 63.8511 40.0746 63.8539H40.0441H12.5941C11.6613 63.8539 10.5679 63.1564 10.078 62.636C9.51056 62.027 8.97357 61.1136 8.97357 60.0036V54.2822H7.68923C3.39609 54.2822 2.84803 47.3927 8.15702 47.3927H13.9947C17.2637 47.3927 18.2241 50.2936 17.3024 52.4526C17.0865 52.9564 16.9453 53.0283 16.5938 53.3799C15.4091 54.5673 13.8535 54.2822 11.891 54.2822V56.3859H40.8551V27.6571C40.8551 27.3277 38.1979 25.6392 37.5834 25.2046L31.898 20.8478C30.4531 19.6327 29.0608 18.2985 29.0608 16.2115C29.0608 14.6144 30.2815 13.2913 31.862 13.2913C33.7304 13.2913 35.2528 14.451 36.5731 15.1209L40.8551 17.4958V10.4928H11.8938V23.4553C13.0646 23.4553 15.1572 23.483 15.9074 23.8815C18.7362 25.3818 17.9612 30.3448 14.4652 30.3448H7.34046C5.95371 30.3448 4.42025 28.9276 4.42025 27.5408C4.42025 26.179 4.31229 25.1631 5.68521 24.1334C6.54052 23.4885 7.72244 23.4525 8.97357 23.4525V7.92138C8.97357 6.80866 9.51332 5.89799 10.078 5.28904C10.5679 4.76866 11.6613 4.06836 12.5941 4.06836H40.0386C41.3783 4.06836 42.4633 4.92366 43.0446 5.73191C43.9027 6.92768 43.7754 7.747 43.7754 9.67351C43.7726 12.8262 43.7726 15.979 43.7726 19.1317ZM26.3731 57.9083C25.288 57.9083 24.4078 58.7885 24.4078 59.8763C24.4078 60.9614 25.288 61.8388 26.3731 61.8388C27.4609 61.8388 28.3383 60.9614 28.3383 59.8763C28.3383 58.7913 27.4609 57.9083 26.3731 57.9083ZM30.5832 6.93875H22.163C21.8834 6.93875 21.6537 7.16849 21.6537 7.44806C21.6537 7.73039 21.8834 7.96014 22.163 7.96014H30.5832C30.8627 7.96014 31.0925 7.73039 31.0925 7.44806C31.0925 7.16849 30.8627 6.93875 30.5832 6.93875Z" fill="#17242C"/>
<path fill-rule="evenodd" clip-rule="evenodd" d="M17.6153 42.4907C17.6153 43.6837 17.5821 44.539 16.5385 45.5023C15.9656 46.031 15.0577 46.3438 13.9948 46.3438H8.1571C6.87829 46.3438 6.14755 46.1279 5.4251 45.458C3.47091 43.6505 4.32068 39.457 7.57306 39.457H14.3463C16.1621 39.4543 17.6153 40.9628 17.6153 42.4907Z" fill="#17242C"/>
<path fill-rule="evenodd" clip-rule="evenodd" d="M17.616 34.5482V35.1322C17.616 36.8069 16.2707 38.2877 14.5795 38.2877H7.2222C4.65905 38.2877 3.40239 34.4707 5.14621 32.5885C5.6057 32.093 6.43609 31.5117 7.34122 31.5117H14.6985C16.1434 31.5117 17.616 33.0673 17.616 34.5482Z" fill="#17242C"/>
</g>
<defs>
<clipPath id="clip0_225:5426">
<rect width="66.4315" height="66.4315" fill="white" transform="translate(0 0.0839844)"/>
</clipPath>
</defs>
</svg>
