<svg width="70" height="70" viewBox="0 0 70 70" fill="none" xmlns="http://www.w3.org/2000/svg">
<g clip-path="url(#clip0_222:7017)">
<path d="M62.03 64.6127H59.19V20.5927C59.19 19.8117 58.551 19.1727 57.77 19.1727H44.99C44.209 19.1727 43.57 19.8117 43.57 20.5927V64.6127H39.31V36.2127C39.31 35.4317 38.671 34.7927 37.89 34.7927H25.11C24.329 34.7927 23.69 35.4317 23.69 36.2127V64.6127H19.43V30.5327C19.43 29.7517 18.791 29.1127 18.01 29.1127H5.23005C4.44905 29.1127 3.81005 29.7517 3.81005 30.5327V64.6127H0.970049C0.189049 64.6127 -0.449951 65.2517 -0.449951 66.0327C-0.449951 66.8137 0.189049 67.4527 0.970049 67.4527H5.23005H18.01H25.11H37.89H44.99H57.77H62.03C62.811 67.4527 63.45 66.8137 63.45 66.0327C63.45 65.2517 62.811 64.6127 62.03 64.6127ZM6.65005 64.6127V31.9527H16.59V64.6127H6.65005ZM26.53 64.6127V37.6327H36.47V64.6127H26.53ZM46.41 64.6127V22.0127H56.35V64.6127H46.41ZM10.2 23.4327C10.2 22.6517 10.839 22.0127 11.62 22.0127C27.4672 22.0127 41.8873 11.313 47.6809 6.39273H42.86C42.079 6.39273 41.44 5.75373 41.44 4.97273C41.44 4.19173 42.079 3.55273 42.86 3.55273H51.38C51.4723 3.55273 51.5646 3.55983 51.6569 3.58113C51.6995 3.58823 51.7421 3.60243 51.7776 3.61663C51.8273 3.63083 51.8699 3.64503 51.9196 3.65923C51.9693 3.68053 52.0119 3.70893 52.0616 3.73023C52.0971 3.75153 52.1326 3.76573 52.1681 3.78703C52.3243 3.89353 52.4593 4.02843 52.5587 4.17753C52.5799 4.21303 52.5941 4.24853 52.6154 4.28403C52.6367 4.32663 52.6651 4.36923 52.6864 4.41893C52.7077 4.46863 52.7148 4.51123 52.729 4.56093C52.7432 4.60353 52.7574 4.63903 52.7645 4.68163C52.7929 4.78813 52.8 4.88043 52.8 4.97273V13.4927C52.8 14.2737 52.161 14.9127 51.38 14.9127C50.599 14.9127 49.96 14.2737 49.96 13.4927V8.20323C44.209 13.2158 28.9724 24.8527 11.62 24.8527C10.839 24.8527 10.2 24.2137 10.2 23.4327Z" fill="#17242C"/>
</g>
<defs>
<clipPath id="clip0_222:7017">
<rect width="70" height="70" fill="white"/>
</clipPath>
</defs>
</svg>
