<svg width="68" height="68" viewBox="0 0 68 68" fill="none" xmlns="http://www.w3.org/2000/svg">
<g clip-path="url(#clip0_225:5453)">
<path d="M11.312 47.498L11.7856 51.0833C11.8532 51.2863 11.7856 51.4892 11.7179 51.6922L7.7944 61.9069C7.32088 63.1921 7.7944 64.8157 9.01205 65.4921C9.28264 65.6274 9.48558 65.7627 9.82381 65.7627C11.1091 66.0333 12.462 65.3569 13.0032 64.1392L15.3709 58.5922L14.762 52.0304L11.312 47.498Z" fill="#17242C"/>
<path d="M28.359 34.6446L23.3531 33.9682C23.3531 33.9682 20.1737 29.3682 19.7679 28.827C19.4296 28.3535 18.7532 27.2711 18.009 26.7299C16.9943 26.0535 15.7767 25.7829 14.559 25.9858C12.9355 26.3241 11.6502 27.7447 11.4473 29.4358L10.162 40.8682C10.0943 41.5446 10.2973 42.2211 10.7032 42.8299L16.5885 50.8123C16.859 51.1505 16.9943 51.624 17.062 52.0299L18.0767 62.9887C18.212 64.4093 19.0237 65.6946 20.4443 65.8975C20.7149 65.9652 20.9855 65.9652 21.2561 65.8975C22.5414 65.6946 23.6914 64.6122 23.6237 63.2593L23.0149 50.2711C23.0149 49.9329 22.8796 49.527 22.7443 49.2564C22.7443 49.2564 19.159 42.4917 18.9561 42.0858C18.8208 41.7476 18.8208 41.3417 18.8208 41.0711C18.8208 40.8005 19.159 36.2005 19.159 36.2005L20.1061 37.5535C20.512 38.0946 21.0532 38.4329 21.7296 38.5005L27.8855 39.3123C28.0884 39.3123 28.359 39.3123 28.562 39.3123C29.6443 39.177 30.5237 38.2299 30.5237 37.0799C30.5237 35.7946 29.5767 34.7799 28.359 34.6446Z" fill="#17242C"/>
<path d="M16.5064 24.7128C19.204 24.3119 21.0658 21.8001 20.6649 19.1025C20.264 16.4049 17.7522 14.5431 15.0546 14.944C12.357 15.3449 10.4952 17.8567 10.8961 20.5543C11.297 23.2519 13.8088 25.1137 16.5064 24.7128Z" fill="#17242C"/>
<path d="M60.4915 61.9732L56.568 51.7586C56.5003 51.5556 56.5003 51.285 56.5003 51.1497L56.9738 47.5645L53.6591 52.1644C53.6591 52.1644 53.6591 52.2321 53.5915 52.2321L52.9827 58.6586L55.3503 64.2732C55.8915 65.4909 57.2444 66.1674 58.4621 65.8968C58.7327 65.8291 59.0032 65.7615 59.2738 65.6262C60.5591 64.8821 61.0327 63.2585 60.4915 61.9732Z" fill="#17242C"/>
<path d="M58.1913 40.7998L56.906 29.3675C56.7031 27.6763 55.4854 26.3234 53.7943 25.9175C52.5766 25.7145 51.359 25.9851 50.3443 26.6616C49.6002 27.2028 48.9237 28.2851 48.5855 28.7586C48.1796 29.2998 45.0002 33.8998 45.0002 33.8998L39.9943 34.5763C38.7766 34.7116 37.8296 35.7263 37.8296 36.9439C37.8972 38.0939 38.709 39.041 39.7913 39.1763C39.9943 39.1763 40.1972 39.1763 40.4678 39.1763L46.6237 38.3645C47.3002 38.2969 47.8413 37.891 48.2472 37.4175L49.1943 36.0645C49.1943 36.0645 49.5325 40.5969 49.5325 40.9351C49.5325 41.2057 49.6002 41.6792 49.3972 41.9498C49.1943 42.4233 45.6766 49.188 45.6766 49.188C45.4737 49.5263 45.406 49.8645 45.406 50.2027L44.7972 63.191C44.7296 64.5439 45.8796 65.6262 47.1649 65.8292C47.4355 65.8968 47.706 65.8968 47.9766 65.8292C49.3972 65.6262 50.209 64.341 50.3443 62.9204L51.359 51.9616C51.4266 51.488 51.5619 51.0821 51.8325 50.7439L57.7178 42.7616C58.1237 42.1527 58.259 41.4763 58.1913 40.7998Z" fill="#17242C"/>
<path d="M57.4955 20.5372C57.8967 17.8396 56.0351 15.3275 53.3375 14.9264C50.6399 14.5252 48.1278 16.3868 47.7267 19.0844C47.3255 21.7819 49.1871 24.294 51.8846 24.6952C54.5822 25.0964 57.0943 23.2348 57.4955 20.5372Z" fill="#17242C"/>
<path d="M18.4151 11.6446C18.8886 11.6446 19.4298 11.4416 19.768 11.0357C22.6768 7.31516 28.2239 5.01516 34.1768 5.01516C38.7092 5.01516 42.9709 6.30045 46.015 8.5328L43.715 8.60045C42.768 8.60045 42.0239 9.41221 42.0239 10.3593C42.0239 11.3063 42.8356 12.0504 43.715 12.0504C43.715 12.0504 43.715 12.0504 43.7827 12.0504L50.2091 11.8475C50.6827 11.8475 51.0886 11.6446 51.4268 11.3063C51.765 10.9681 51.9003 10.5622 51.9003 10.0887L51.6974 3.66222C51.6974 2.71516 50.8856 1.97105 49.9386 1.97105C48.9915 1.97105 48.2474 2.78281 48.2474 3.72987L48.3827 6.02987C44.6621 3.18869 39.6562 1.63281 34.1768 1.63281C27.0739 1.63281 20.7151 4.33869 17.0621 8.87104C16.4533 9.61516 16.5886 10.6975 17.3327 11.2387C17.671 11.5093 18.0092 11.6446 18.4151 11.6446Z" fill="#17242C"/>
<path d="M42.565 28.3538C42.565 26.5273 41.0768 25.1067 39.3179 25.1067C38.3709 25.1067 37.5591 25.5126 36.9503 26.1214L31.4709 23.4155C31.4709 23.2802 31.5385 23.0773 31.5385 22.942C31.5385 22.7391 31.5385 22.6038 31.4709 22.4685L36.9503 19.7626C37.5591 20.3714 38.3709 20.7773 39.3179 20.7773C41.1444 20.7773 42.565 19.2891 42.565 17.5303C42.565 15.7714 41.0768 14.2832 39.3179 14.2832C37.4915 14.2832 36.0709 15.7714 36.0709 17.5303C36.0709 17.5979 36.0709 17.6656 36.0709 17.6656L30.3885 20.4391C29.8474 19.9655 29.1033 19.6273 28.2915 19.6273C26.465 19.6273 25.0444 21.1155 25.0444 22.8744C25.0444 24.7008 26.5327 26.1214 28.2915 26.1214C29.1033 26.1214 29.8474 25.8508 30.3885 25.3097L36.0709 28.0832C36.0709 28.1508 36.0709 28.2185 36.0709 28.2185C36.0709 30.0449 37.5591 31.4655 39.3179 31.4655C41.0768 31.6685 42.565 30.1802 42.565 28.3538Z" fill="#17242C"/>
</g>
<defs>
<clipPath id="clip0_225:5453">
<rect width="67.647" height="67.647" fill="white" transform="translate(0.353271 0.00976562)"/>
</clipPath>
</defs>
</svg>
