<svg width="75" height="75" viewBox="0 0 75 75" fill="none" xmlns="http://www.w3.org/2000/svg">
<g clip-path="url(#clip0_225:5449)">
<g clip-path="url(#clip1_225:5449)">
<path d="M56.0899 18.7264C56.5149 17.8728 56.7553 16.9119 56.7553 15.8954C56.7553 12.3808 53.896 9.52148 50.3814 9.52148C46.8668 9.52148 44.0075 12.3808 44.0075 15.8954C44.0075 16.9119 44.2479 17.8728 44.673 18.7264C34.5365 21.2805 27.0105 30.4727 27.0105 41.3909C27.0105 54.2776 37.4947 64.7618 50.3814 64.7618C63.2681 64.7618 73.7523 54.2776 73.7523 41.3909C73.7523 30.4727 66.2263 21.2805 56.0899 18.7264ZM48.2568 15.8954C48.2568 14.7238 49.2099 13.7707 50.3814 13.7707C51.5529 13.7707 52.506 14.7238 52.506 15.8954C52.506 17.0669 51.5529 18.02 50.3814 18.02C49.2099 18.02 48.2568 17.0669 48.2568 15.8954ZM52.506 60.3939V58.3879C52.506 57.2146 51.5548 56.2633 50.3814 56.2633C49.208 56.2633 48.2568 57.2146 48.2568 58.3879V60.3939C39.4071 59.411 32.3613 52.3652 31.3784 43.5155H33.3844C34.5577 43.5155 35.509 42.5643 35.509 41.3909C35.509 40.2175 34.5577 39.2663 33.3844 39.2663H31.3784C32.3613 30.4166 39.4071 23.3708 48.2568 22.3879V24.3939C48.2568 25.5672 49.208 26.5185 50.3814 26.5185C51.5548 26.5185 52.506 25.5672 52.506 24.3939V22.3879C61.3557 23.3708 68.4015 30.4168 69.3844 39.2663H67.3784C66.2051 39.2663 65.2538 40.2175 65.2538 41.3909C65.2538 42.5643 66.2051 43.5155 67.3784 43.5155H69.3844C68.4015 52.3652 61.3557 59.411 52.506 60.3939Z" fill="#17242C"/>
<path d="M20.6367 18.0195H16.1041C14.9308 18.0195 13.9795 18.9708 13.9795 20.1442C13.9795 21.3175 14.9308 22.2688 16.1041 22.2688H20.6367C21.81 22.2688 22.7613 21.3175 22.7613 20.1442C22.7613 18.9708 21.81 18.0195 20.6367 18.0195Z" fill="#17242C"/>
<path d="M20.6366 30.7676H11.8549C10.6815 30.7676 9.73022 31.7188 9.73022 32.8922C9.73022 34.0656 10.6815 35.0168 11.8549 35.0168H20.6366C21.81 35.0168 22.7613 34.0656 22.7613 32.8922C22.7613 31.7188 21.81 30.7676 20.6366 30.7676Z" fill="#17242C"/>
<path d="M20.6366 43.5156H7.60559C6.43222 43.5156 5.48096 44.4669 5.48096 45.6403C5.48096 46.8136 6.43222 47.7649 7.60559 47.7649H20.6366C21.81 47.7649 22.7613 46.8136 22.7613 45.6403C22.7613 44.4669 21.81 43.5156 20.6366 43.5156Z" fill="#17242C"/>
<path d="M20.6366 56.2637H3.35632C2.18296 56.2637 1.23169 57.2149 1.23169 58.3883C1.23169 59.5617 2.18296 60.5129 3.35632 60.5129H20.6366C21.81 60.5129 22.7613 59.5617 22.7613 58.3883C22.7613 57.2149 21.81 56.2637 20.6366 56.2637Z" fill="#17242C"/>
<path d="M58.88 39.2661H52.5061V32.8922C52.5061 31.7188 51.5548 30.7676 50.3815 30.7676C49.2081 30.7676 48.2568 31.7188 48.2568 32.8922V41.3907C48.2568 42.5641 49.2081 43.5153 50.3815 43.5153H58.88C60.0533 43.5153 61.0046 42.5641 61.0046 41.3907C61.0046 40.2174 60.0533 39.2661 58.88 39.2661Z" fill="#17242C"/>
</g>
</g>
<defs>
<clipPath id="clip0_225:5449">
<rect width="74.3801" height="74.3801" fill="white" transform="translate(0 0.259766)"/>
</clipPath>
<clipPath id="clip1_225:5449">
<rect width="72.5206" height="72.5206" fill="white" transform="translate(1.23169 0.880859)"/>
</clipPath>
</defs>
</svg>
