<svg width="68" height="67" viewBox="0 0 68 67" fill="none" xmlns="http://www.w3.org/2000/svg">
<g clip-path="url(#clip0_225:5407)">
<path d="M34 1.55078C27.7699 1.55078 21.6797 3.41875 16.4996 6.91847C11.3194 10.4182 7.28197 15.3925 4.89781 21.2123C2.51365 27.0321 1.88984 33.4361 3.10528 39.6144C4.32071 45.7927 7.3208 51.4678 11.7261 55.9221C16.1315 60.3764 21.7443 63.4098 27.8547 64.6388C33.9651 65.8677 40.2987 65.237 46.0545 62.8263C51.8104 60.4157 56.73 56.3334 60.1913 51.0957C63.6526 45.858 65.5 39.7001 65.5 33.4008C65.5 24.9536 62.1813 16.8525 56.2739 10.8794C50.3665 4.9064 42.3543 1.55078 34 1.55078ZM34 60.7008C28.6599 60.7008 23.4397 59.0997 18.9996 56.0999C14.5595 53.1001 11.0988 48.8365 9.05527 43.848C7.0117 38.8596 6.47701 33.3705 7.51881 28.0748C8.56061 22.7791 11.1321 17.9147 14.9081 14.0968C18.6841 10.2788 23.4951 7.67872 28.7326 6.62534C33.9701 5.57197 39.3989 6.1126 44.3325 8.17887C49.2661 10.2451 53.4829 13.7443 56.4497 18.2337C59.4165 22.7232 61 28.0014 61 33.4008C61 40.6412 58.1554 47.585 53.0919 52.7048C48.0284 57.8245 41.1609 60.7008 34 60.7008ZM43 37.9508C43 39.7609 42.2889 41.4968 41.023 42.7768C39.7571 44.0567 38.0402 44.7758 36.25 44.7758V47.0758C36.25 48.3184 35.2427 49.3258 34 49.3258C32.7574 49.3258 31.75 48.3184 31.75 47.0758V44.7758H29.525C28.2686 44.7758 27.25 43.7572 27.25 42.5008C27.25 41.2443 28.2686 40.2258 29.525 40.2258H36.25C36.8468 40.2258 37.4191 39.9861 37.841 39.5594C38.263 39.1328 38.5 38.5541 38.5 37.9508C38.5 37.3474 38.263 36.7688 37.841 36.3421C37.4191 35.9155 36.8468 35.6758 36.25 35.6758H31.75C29.9598 35.6758 28.2429 34.9567 26.977 33.6768C25.7112 32.3968 25 30.6609 25 28.8508C25 27.0407 25.7112 25.3047 26.977 24.0248C28.2429 22.7448 29.9598 22.0258 31.75 22.0258V19.7258C31.75 18.4831 32.7574 17.4758 34 17.4758C35.2427 17.4758 36.25 18.4831 36.25 19.7258V22.0258H40.75V26.5758H31.75C31.1533 26.5758 30.581 26.8155 30.159 27.2421C29.7371 27.6688 29.5 28.2474 29.5 28.8508C29.5 29.4541 29.7371 30.0328 30.159 30.4594C30.581 30.8861 31.1533 31.1258 31.75 31.1258H36.25C38.0402 31.1258 39.7571 31.8448 41.023 33.1248C42.2889 34.4047 43 36.1407 43 37.9508Z" fill="#17242C"/>
<rect width="5.06333" height="11.7724" rx="2.53166" transform="matrix(0.859869 0.510515 0.510515 -0.859869 17.6252 56.8574)" fill="#17242C"/>
<rect x="47.2332" y="6.98828" width="5.06333" height="12.671" rx="2.53166" transform="rotate(30.6982 47.2332 6.98828)" fill="#17242C"/>
</g>
<defs>
<clipPath id="clip0_225:5407">
<rect width="68" height="66" fill="white" transform="translate(0 0.685547)"/>
</clipPath>
</defs>
</svg>
