<svg width="80" height="81" viewBox="0 0 80 81" fill="none" xmlns="http://www.w3.org/2000/svg">
<path d="M39.68 27.0391C31.6 27.0391 25.04 33.5991 25.04 41.6791C25.04 46.8791 27.76 51.6791 32.24 54.3191V63.1991C32.24 65.1991 33.84 66.7991 35.84 66.7991H43.6C45.6 66.7991 47.2 65.1991 47.2 63.1991V54.2391C51.68 51.5991 54.4 46.8791 54.4 41.5991C54.32 33.5991 47.76 27.0391 39.68 27.0391ZM43.92 58.7191H35.44V57.1191H43.92V58.7191V58.7191ZM43.52 63.5191H35.76C35.6 63.5191 35.36 63.3591 35.36 63.1191V61.9191H43.84V63.1191C43.92 63.3591 43.76 63.5191 43.52 63.5191ZM44.8 51.9191L43.92 52.3991V53.9991H35.44V52.3991L34.56 51.9191C30.64 49.9991 28.24 46.0791 28.24 41.6791C28.24 35.3591 33.36 30.2391 39.68 30.2391C46 30.2391 51.12 35.3591 51.12 41.6791C51.12 45.9991 48.72 49.9191 44.8 51.9191Z" fill="#17242C"/>
<path d="M39.6801 24.72C40.5601 24.72 41.2801 24 41.2801 23.12V17.6C41.2801 16.72 40.5601 16 39.6801 16C38.8001 16 38.0801 16.72 38.0801 17.6V23.12C38.0801 24 38.8001 24.72 39.6801 24.72Z" fill="#17242C"/>
<path d="M63.7599 39.9199H58.2399C57.3599 39.9199 56.6399 40.6399 56.6399 41.5199C56.6399 42.3999 57.3599 43.1199 58.2399 43.1199H63.7599C64.6399 43.1199 65.3599 42.3999 65.3599 41.5199C65.3599 40.6399 64.6399 39.9199 63.7599 39.9199Z" fill="#17242C"/>
<path d="M21.12 39.9199H15.6C14.72 39.9199 14 40.6399 14 41.5199C14 42.3999 14.72 43.1199 15.6 43.1199H21.12C22 43.1199 22.72 42.3999 22.72 41.5199C22.72 40.6399 22 39.9199 21.12 39.9199Z" fill="#17242C"/>
<path d="M25.6 25.9195L21.68 21.9995C21.04 21.3595 20.08 21.3595 19.44 21.9995C18.8 22.6395 18.8 23.5995 19.44 24.2395L23.36 28.1595C23.68 28.4795 24.08 28.6395 24.48 28.6395C24.88 28.6395 25.28 28.4795 25.6 28.1595C26.24 27.5195 26.24 26.5595 25.6 25.9195Z" fill="#17242C"/>
<path d="M59.92 21.9995C59.28 21.3595 58.32 21.3595 57.68 21.9995L53.76 25.9195C53.12 26.5595 53.12 27.5195 53.76 28.1595C54.08 28.4795 54.48 28.6395 54.88 28.6395C55.28 28.6395 55.68 28.4795 56 28.1595L59.92 24.2395C60.56 23.5995 60.56 22.6395 59.92 21.9995Z" fill="#17242C"/>
</svg>
