<?xml version="1.0" encoding="UTF-8" standalone="no"?>
<!-- Generator: Adobe Illustrator 12.0.1, SVG Export Plug-In . SVG Version: 6.00 Build 51448)  -->

<svg
   xmlns:dc="http://purl.org/dc/elements/1.1/"
   xmlns:cc="http://creativecommons.org/ns#"
   xmlns:rdf="http://www.w3.org/1999/02/22-rdf-syntax-ns#"
   xmlns:svg="http://www.w3.org/2000/svg"
   xmlns="http://www.w3.org/2000/svg"
   xmlns:sodipodi="http://sodipodi.sourceforge.net/DTD/sodipodi-0.dtd"
   xmlns:inkscape="http://www.inkscape.org/namespaces/inkscape"
   version="1.1"
   id="Layer_1"
   width="315.62646"
   height="340.13089"
   viewBox="0 0 315.62646 340.13088"
   style="overflow:visible"
   xml:space="preserve"
   sodipodi:version="0.32"
   inkscape:version="0.92.4 (5da689c313, 2019-01-14)"
   sodipodi:docname="Checkmark.svg"><metadata
   id="metadata1967"><rdf:RDF><cc:Work
       rdf:about=""><dc:format>image/svg+xml</dc:format><dc:type
         rdf:resource="http://purl.org/dc/dcmitype/StillImage" /><dc:title></dc:title></cc:Work></rdf:RDF></metadata><defs
   id="defs1965" /><sodipodi:namedview
   inkscape:window-height="1030"
   inkscape:window-width="958"
   inkscape:pageshadow="2"
   inkscape:pageopacity="0.0"
   guidetolerance="10.0"
   gridtolerance="10.0"
   objecttolerance="10.0"
   borderopacity="1.0"
   bordercolor="#666666"
   pagecolor="#ffffff"
   id="base"
   inkscape:zoom="0.37476659"
   inkscape:cx="487.56541"
   inkscape:cy="-395.63511"
   inkscape:window-x="960"
   inkscape:window-y="25"
   inkscape:current-layer="Layer_1"
   showgrid="false"
   inkscape:window-maximized="0"
   fit-margin-top="0"
   fit-margin-left="0"
   fit-margin-right="0"
   fit-margin-bottom="0" />
<g
   id="g1960"
   transform="translate(7.5,7.7962265)">
	<path
   d="M 0,223.7 C 0,213.3 6.9,204 20.8,196 c 9.2,-4.6 16.2,-6.9 20.8,-6.9 5.8,1.2 9.8,4.6 12.1,10.4 6.9,16.2 11.6,27.2 13.9,32.9 2.3,4.6 4.6,6.9 6.9,6.9 2.3,0 4.6,-1.7 6.9,-5.2 C 120.7,164.7 156,111 187.2,72.8 211.5,43.9 226.5,27.1 232.3,22.5 250.9,8.7 272.8,1.2 298.3,0 l 1.7,8.7 c -19.7,19.7 -53.8,63.6 -102.3,131.8 -47.4,68.2 -81.5,122 -102.3,161.3 -4.6,10.3 -10.4,16.7 -17.4,19 -3.5,3.5 -11,4.6 -22.5,3.5 -8.1,1.2 -13.9,0 -17.3,-3.5 -3.5,-2.3 -6.9,-6.9 -10.4,-13.9 C 16.2,279.2 7.6,255.5 1.8,235.8 1.7,231.2 1.2,227.2 0,223.7 Z"
   id="path1962"
   style="fill:#0eea30;fill-opacity:1;stroke:#264e09;stroke-width:15;stroke-miterlimit:4;stroke-dasharray:none;stroke-opacity:1"
   inkscape:connector-curvature="0" />
</g>
</svg>