<?xml version="1.0" encoding="utf-8"?><svg xmlns="http://www.w3.org/2000/svg" xmlns:xlink="http://www.w3.org/1999/xlink"><symbol viewBox="0 0 31 29" id="cu/credits.svg" xmlns="http://www.w3.org/2000/svg"><path d="M25.3 12.6c0-1.67-2.92-2.56-5.66-2.56h-.3c-.65-1.1-2.81-1.84-5.45-1.84s-5.66.9-5.66 2.57v2.17a2.23 2.23 0 0 0 1.36 1.57c-1.81.36-3.27 1.15-3.27 2.33V17a.24.24 0 0 0 0 .08V19c.18 1.59 3 2.42 5.66 2.42s5.53-.87 5.65-2.46a13 13 0 0 0 2 .16c2.74 0 5.66-.9 5.66-2.57v-1.47c0-.06-.11-.06-.13-.11a.56.56 0 0 0 .13-.34Zm-1 2c0 .63-1.82 1.56-4.66 1.56a11.11 11.11 0 0 1-2.29-.16A4.41 4.41 0 0 0 15 14.64v-.54a9.21 9.21 0 0 0 4.66 1.06 9.39 9.39 0 0 0 4.64-1.06ZM9.23 12.87v-.6a9.24 9.24 0 0 0 4.66 1.06h.08v1.06h-1.26c-2.1-.3-3.42-1.01-3.48-1.52ZM12 20.43c-2.79 0-4.59-.89-4.66-1.49v-.6A9.21 9.21 0 0 0 12 19.4a9.29 9.29 0 0 0 4.66-1.07v.53c-.01.64-1.83 1.57-4.66 1.57Zm7.65-2.3A12.19 12.19 0 0 1 17.7 18h-.05v-.95a13 13 0 0 0 2 .17 9.29 9.29 0 0 0 4.66-1.07v.44c-.01.61-1.83 1.54-4.67 1.54Z"/></symbol><symbol id="cu/edit.svg" viewBox="0 0 31 29" xmlns="http://www.w3.org/2000/svg"><defs><style>.abcls-1{fill:#1d1d1b}</style></defs><path class="abcls-1" d="M14.82 20.46H7.24a.46.46 0 1 0 0 .92h7.58a.46.46 0 1 0 0-.92ZM7.25 14.54h4a.46.46 0 0 0 0-.92h-4a.46.46 0 1 0 0 .92ZM25.2 9l-2.26-2.25a.69.69 0 0 0-1 0L20.7 8l3.22 3.22L25.2 10a.69.69 0 0 0 0-1ZM13.24 15.47v3.27h3.21l6.76-6.77-3.23-3.23-6.74 6.73zM7.25 18h3.16a.46.46 0 0 0 0-.92H7.25a.46.46 0 0 0 0 .92Z"/></symbol><symbol viewBox="0 0 31 29" id="cu/go-board-list.svg" xmlns="http://www.w3.org/2000/svg"><path class="accls-1" d="M22.62 11.83h7.58a.46.46 0 1 0 0-.91h-7.58a.46.46 0 1 0 0 .91ZM30.2 14.34h-7.58a.46.46 0 1 0 0 .92h7.58a.46.46 0 1 0 0-.92ZM30.2 17.76h-7.58a.46.46 0 0 0 0 .92h7.58a.46.46 0 1 0 0-.92ZM13.1 9.52a1.19 1.19 0 1 0 1.19 1.19 1.19 1.19 0 0 0-1.19-1.19Z"/><path class="accls-1" d="M17.14 6H1.62A1.08 1.08 0 0 0 .54 7.06v15.51a1.08 1.08 0 0 0 1.08 1.08h15.52a1.07 1.07 0 0 0 1.07-1.08V7.06A1.07 1.07 0 0 0 17.14 6ZM4.83 16.91a2 2 0 1 1 2-2 2 2 0 0 1-2 2Zm4.14 0a2 2 0 1 1 2-2 2 2 0 0 1-1.97 2ZM9 12.7a2 2 0 1 1 2-2 2 2 0 0 1-2 2Zm4.13 8.43a2 2 0 1 1 2-2 2 2 0 0 1-2.03 2Zm0-8.43a2 2 0 1 1 2-2 2 2 0 0 1-2.03 2Z"/><path class="accls-1" d="M9 9.52a1.19 1.19 0 1 0 1.18 1.19A1.19 1.19 0 0 0 9 9.52Z"/></symbol><symbol viewBox="0 0 17.67 17.65" id="cu/go-board.svg" xmlns="http://www.w3.org/2000/svg"><path d="M12.56 3.52a1.19 1.19 0 1 0 1.19 1.19 1.19 1.19 0 0 0-1.19-1.19Z"/><path d="M16.6 0H1.08A1.08 1.08 0 0 0 0 1.06v15.51a1.08 1.08 0 0 0 1.08 1.08H16.6a1.07 1.07 0 0 0 1.07-1.08V1.06A1.07 1.07 0 0 0 16.6 0ZM4.29 10.91a2 2 0 1 1 2-2 2 2 0 0 1-2 2zm4.14 0a2 2 0 1 1 2-2 2 2 0 0 1-1.97 2zm.03-4.21a2 2 0 1 1 2-2 2 2 0 0 1-2 2zm4.13 8.43a2 2 0 1 1 2-2 2 2 0 0 1-2.03 2zm0-8.43a2 2 0 1 1 2-2 2 2 0 0 1-2.03 2z"/><path d="M8.46 3.52a1.19 1.19 0 1 0 1.18 1.19 1.19 1.19 0 0 0-1.18-1.19Z"/></symbol><symbol viewBox="0 0 118 120" id="cu/google.svg" xmlns="http://www.w3.org/2000/svg"><g fill="none" fill-rule="evenodd"><path d="M117.6 61.364c0-4.255-.382-8.346-1.09-12.273H60V72.3h32.29c-1.39 7.5-5.617 13.855-11.972 18.11v15.054H99.71c11.346-10.446 17.891-25.828 17.891-44.1Z" fill="#4285F4"/><path d="M60 120c16.2 0 29.782-5.373 39.71-14.536L80.317 90.409c-5.373 3.6-12.245 5.727-20.318 5.727-15.627 0-28.855-10.554-33.573-24.736H6.382v15.545C16.255 106.555 36.545 120 60 120Z" fill="#34A853"/><path d="M26.427 71.4c-1.2-3.6-1.882-7.445-1.882-11.4s.682-7.8 1.882-11.4V33.055H6.382A59.976 59.976 0 0 0 0 60a59.976 59.976 0 0 0 6.382 26.945L26.427 71.4Z" fill="#FBBC05"/><path d="M60 23.864c8.81 0 16.718 3.027 22.936 8.972l17.21-17.209C89.754 5.945 76.172 0 60 0 36.545 0 16.255 13.445 6.382 33.055L26.427 48.6C31.145 34.418 44.373 23.864 60 23.864Z" fill="#EA4335"/><path d="M0 0h120v120H0V0Z"/></g></symbol><symbol id="cu/next-mistake.svg" viewBox="0 0 31 29" xmlns="http://www.w3.org/2000/svg"><defs><style>.afcls-1{fill:#1d1d1b}</style></defs><path class="afcls-1" d="m22.86 13.62-8.31-6.84a.88.88 0 0 0-1.38.69v14.37a.83.83 0 0 0 1.38.61l8.31-6.84a1.31 1.31 0 0 0 0-1.99ZM8.21 12.5v4.28a1.16 1.16 0 0 0 1.16 1.16h2.32v-6.59H9.37a1.15 1.15 0 0 0-1.16 1.15Z"/></symbol><symbol viewBox="0 0 31 29" id="cu/next-move.svg" xmlns="http://www.w3.org/2000/svg"><path d="M10.37 7.49v14.37a.84.84 0 0 0 1.39.61l8.31-6.84a1.31 1.31 0 0 0 0-2L11.76 6.8a.89.89 0 0 0-1.39.69Z" data-name="Weiter-Pfeil 1"/></symbol><symbol viewBox="0 0 31 29" id="cu/one-credit.svg" xmlns="http://www.w3.org/2000/svg"><path d="M21.9 13.8c0-1.66-2.92-2.56-5.66-2.56s-5.67.9-5.67 2.56v.2a.19.19 0 0 0 0 .07V16c.18 1.58 3 2.41 5.66 2.41s5.66-.9 5.66-2.56v-1.8a.29.29 0 0 0 0-.09.78.78 0 0 0 .01-.16Zm-5.66 3.59c-2.79 0-4.59-.89-4.66-1.49v-.6a9.21 9.21 0 0 0 4.66 1.06 9.29 9.29 0 0 0 4.66-1.06v.53c0 .64-1.82 1.56-4.66 1.56Z"/></symbol><symbol id="cu/previous-mistake.svg" viewBox="0 0 31 29" xmlns="http://www.w3.org/2000/svg"><defs><style>.aicls-1{fill:#1d1d1b}</style></defs><path class="aicls-1" d="m17 6.83-8.34 6.84a1.34 1.34 0 0 0 0 2L17 22.51a.89.89 0 0 0 1.38-.7V7.44A.84.84 0 0 0 17 6.83ZM22.16 11.35h-2.33v6.59h2.33a1.15 1.15 0 0 0 1.15-1.16V12.5a1.14 1.14 0 0 0-1.15-1.15Z"/></symbol><symbol viewBox="0 0 31 29" id="cu/previous-move.svg" xmlns="http://www.w3.org/2000/svg"><path d="M21.11 7.49v14.37a.83.83 0 0 1-1.38.61l-8.31-6.84a1.31 1.31 0 0 1 0-2l8.31-6.83a.89.89 0 0 1 1.38.69Z" data-name="Weiter-Pfeil 1"/></symbol><symbol id="cu/rewind-to-start.svg" viewBox="0 0 31 29" xmlns="http://www.w3.org/2000/svg"><defs><style>.akcls-1{fill:#1d1d1b}</style></defs><path class="akcls-1" d="M9 20.69a.5.5 0 0 1-.5-.5V9.13a.5.5 0 0 1 .5-.5.5.5 0 0 1 .5.5v11.06a.5.5 0 0 1-.5.5ZM22.47 20.64a1 1 0 0 1-.56-.19l-3.42-2.81v2.18a.79.79 0 0 1-.44.72.89.89 0 0 1-.95-.09l-6-4.9a1.19 1.19 0 0 1-.42-.91 1.15 1.15 0 0 1 .42-.9l5.95-4.9a1 1 0 0 1 1 0 .81.81 0 0 1 .41.72v2.11l3.44-2.83a1 1 0 0 1 1 0 .81.81 0 0 1 .41.72v10.26a.84.84 0 0 1-.83.82Z"/></symbol><symbol id="cu/to-end-of-game.svg" viewBox="0 0 31 29" xmlns="http://www.w3.org/2000/svg"><defs><style>.alcls-1{fill:#1d1d1b}</style></defs><path class="alcls-1" d="M22.72 20.69a.5.5 0 0 1-.5-.5V9.13a.5.5 0 0 1 .5-.5.5.5 0 0 1 .5.5v11.06a.5.5 0 0 1-.5.5ZM9.27 20.64a.84.84 0 0 1-.46-.13.81.81 0 0 1-.41-.72V9.5a.79.79 0 0 1 .43-.72.91.91 0 0 1 .95.09l3.42 2.81V9.5a.8.8 0 0 1 .44-.72.91.91 0 0 1 .95.09l6 4.9a1.21 1.21 0 0 1 .41.91 1.18 1.18 0 0 1-.41.9l-6 4.9a.94.94 0 0 1-1 0 .82.82 0 0 1-.42-.72v-2.08l-3.41 2.83a1.05 1.05 0 0 1-.49.13Z"/></symbol><symbol id="cu/upload.svg" viewBox="0 0 31 29" xmlns="http://www.w3.org/2000/svg"><defs><style>.amcls-1{fill:#1d1d1b}</style></defs><path class="amcls-1" d="m26 22-1.9-3.3V9.2a.51.51 0 0 0-.5-.5H20l1.4 1h1.7v8.62h-15V9.7h2l1.34-1H7.6a.5.5 0 0 0-.5.5v9.5L5.18 22a.5.5 0 0 0 0 .49.5.5 0 0 0 .43.24h20a.49.49 0 0 0 .42-.24A.53.53 0 0 0 26 22Z"/><path class="amcls-1" d="M10.49 11.27a.6.6 0 0 0 .42.23h2.78v3a.67.67 0 0 0 .67.68H17a.67.67 0 0 0 .67-.68v-3h2.71a.57.57 0 0 0 .49-.22.6.6 0 0 0-.12-.83L16 6.93a.66.66 0 0 0-.36-.11.63.63 0 0 0-.35.11l-4.69 3.51a.59.59 0 0 0-.11.83Z"/></symbol><symbol viewBox="0 0 576 512" id="fab/discord.svg" xmlns="http://www.w3.org/2000/svg"><!--! Font Awesome Free 7.0.1 by @fontawesome - https://fontawesome.com License - https://fontawesome.com/license/free (Icons: CC BY 4.0, Fonts: SIL OFL 1.1, Code: MIT License) Copyright 2025 Fonticons, Inc.--><path fill="currentColor" d="M492.5 69.8c-.2-.3-.4-.6-.8-.7-38.1-17.5-78.4-30-119.7-37.1-.4-.1-.8 0-1.1.1s-.6.4-.8.8c-5.5 9.9-10.5 20.2-14.9 30.6-44.6-6.8-89.9-6.8-134.4 0-4.5-10.5-9.5-20.7-15.1-30.6-.2-.3-.5-.6-.8-.8s-.7-.2-1.1-.2C162.5 39 122.2 51.5 84.1 69c-.3.1-.6.4-.8.7C7.1 183.5-13.8 294.6-3.6 404.2c0 .3.1.5.2.8s.3.4.5.6c44.4 32.9 94 58 146.8 74.2.4.1.8.1 1.1 0s.7-.4.9-.7c11.3-15.4 21.4-31.8 30-48.8.1-.2.2-.5.2-.8s0-.5-.1-.8-.2-.5-.4-.6-.4-.3-.7-.4c-15.8-6.1-31.2-13.4-45.9-21.9-.3-.2-.5-.4-.7-.6s-.3-.6-.3-.9 0-.6.2-.9.3-.5.6-.7c3.1-2.3 6.2-4.7 9.1-7.1.3-.2.6-.4.9-.4s.7 0 1 .1c96.2 43.9 200.4 43.9 295.5 0 .3-.1.7-.2 1-.2s.7.2.9.4c2.9 2.4 6 4.9 9.1 7.2.2.2.4.4.6.7s.2.6.2.9-.1.6-.3.9-.4.5-.6.6c-14.7 8.6-30 15.9-45.9 21.8-.2.1-.5.2-.7.4s-.3.4-.4.7-.1.5-.1.8.1.5.2.8c8.8 17 18.8 33.3 30 48.8.2.3.6.6.9.7s.8.1 1.1 0c52.9-16.2 102.6-41.3 147.1-74.2.2-.2.4-.4.5-.6s.2-.5.2-.8c12.3-126.8-20.5-236.9-86.9-334.5zm-302 267.7c-29 0-52.8-26.6-52.8-59.2s23.4-59.2 52.8-59.2c29.7 0 53.3 26.8 52.8 59.2 0 32.7-23.4 59.2-52.8 59.2zm195.4 0c-29 0-52.8-26.6-52.8-59.2s23.4-59.2 52.8-59.2c29.7 0 53.3 26.8 52.8 59.2 0 32.7-23.2 59.2-52.8 59.2z"/></symbol><symbol viewBox="0 0 512 512" id="fab/facebook.svg" xmlns="http://www.w3.org/2000/svg"><!--! Font Awesome Free 7.0.1 by @fontawesome - https://fontawesome.com License - https://fontawesome.com/license/free (Icons: CC BY 4.0, Fonts: SIL OFL 1.1, Code: MIT License) Copyright 2025 Fonticons, Inc.--><path fill="currentColor" d="M512 256C512 114.6 397.4 0 256 0S0 114.6 0 256c0 120 82.7 220.8 194.2 248.5V334.2h-52.8V256h52.8v-33.7c0-87.1 39.4-127.5 125-127.5 16.2 0 44.2 3.2 55.7 6.4V172c-6-.6-16.5-1-29.6-1-42 0-58.2 15.9-58.2 57.2V256h83.6l-14.4 78.2H287v175.9C413.8 494.8 512 386.9 512 256z"/></symbol><symbol viewBox="0 0 512 512" id="fab/reddit.svg" xmlns="http://www.w3.org/2000/svg"><!--! Font Awesome Free 7.0.1 by @fontawesome - https://fontawesome.com License - https://fontawesome.com/license/free (Icons: CC BY 4.0, Fonts: SIL OFL 1.1, Code: MIT License) Copyright 2025 Fonticons, Inc.--><path fill="currentColor" d="M0 256C0 114.6 114.6 0 256 0s256 114.6 256 256-114.6 256-256 256H37.1c-13.7 0-20.5-16.5-10.9-26.2L75 437C28.7 390.7 0 326.7 0 256zm349.6-102.4c23.6 0 42.7-19.1 42.7-42.7s-19.1-42.7-42.7-42.7c-20.6 0-37.8 14.6-41.8 34-34.5 3.7-61.4 33-61.4 68.4v.2c-37.5 1.6-71.8 12.3-99 29.1-10.1-7.8-22.8-12.5-36.5-12.5-33 0-59.8 26.8-59.8 59.8 0 24 14.1 44.6 34.4 54.1 2 69.4 77.6 125.2 170.6 125.2s168.7-55.9 170.6-125.3c20.2-9.6 34.1-30.2 34.1-54 0-33-26.8-59.8-59.8-59.8-13.7 0-26.3 4.6-36.4 12.4-27.4-17-62.1-27.7-100-29.1v-.2c0-25.4 18.9-46.5 43.4-49.9 4.4 18.8 21.3 32.8 41.5 32.8l.1.2zm-172.5 93.3c16.7 0 29.5 17.6 28.5 39.3s-13.5 29.6-30.3 29.6-31.4-8.8-30.4-30.5S160.3 247 177 247l.1-.1zm190.1 38.3c1 21.7-13.7 30.5-30.4 30.5s-29.3-7.9-30.3-29.6 11.8-39.3 28.5-39.3 31.2 16.6 32.1 38.3l.1.1zm-48.1 56.7c-10.3 24.6-34.6 41.9-63 41.9s-52.7-17.3-63-41.9c-1.2-2.9.8-6.2 3.9-6.5 18.4-1.9 38.3-2.9 59.1-2.9s40.7 1 59.1 2.9c3.1.3 5.1 3.6 3.9 6.5z"/></symbol><symbol viewBox="0 0 448 512" id="fab/whatsapp.svg" xmlns="http://www.w3.org/2000/svg"><!--! Font Awesome Free 7.0.1 by @fontawesome - https://fontawesome.com License - https://fontawesome.com/license/free (Icons: CC BY 4.0, Fonts: SIL OFL 1.1, Code: MIT License) Copyright 2025 Fonticons, Inc.--><path fill="currentColor" d="M380.9 97.1C339 55.1 283.2 32 223.9 32c-122.4 0-222 99.6-222 222 0 39.1 10.2 77.3 29.6 111L0 480l117.7-30.9c32.4 17.7 68.9 27 106.1 27h.1c122.3 0 224.1-99.6 224.1-222 0-59.3-25.2-115-67.1-157zm-157 341.6c-33.2 0-65.7-8.9-94-25.7l-6.7-4-69.8 18.3L72 359.2l-4.4-7c-18.5-29.4-28.2-63.3-28.2-98.2 0-101.7 82.8-184.5 184.6-184.5 49.3 0 95.6 19.2 130.4 54.1s56.2 81.2 56.1 130.5c0 101.8-84.9 184.6-186.6 184.6zm101.2-138.2c-5.5-2.8-32.8-16.2-37.9-18-5.1-1.9-8.8-2.8-12.5 2.8s-14.3 18-17.6 21.8c-3.2 3.7-6.5 4.2-12 1.4-32.6-16.3-54-29.1-75.5-66-5.7-9.8 5.7-9.1 16.3-30.3 1.8-3.7.9-6.9-.5-9.7s-12.5-30.1-17.1-41.2c-4.5-10.8-9.1-9.3-12.5-9.5-3.2-.2-6.9-.2-10.6-.2s-9.7 1.4-14.8 6.9c-5.1 5.6-19.4 19-19.4 46.3s19.9 53.7 22.6 57.4c2.8 3.7 39.1 59.7 94.8 83.8 35.2 15.2 49 16.5 66.6 13.9 10.7-1.6 32.8-13.4 37.4-26.4s4.6-24.1 3.2-26.4c-1.3-2.5-5-3.9-10.5-6.6z"/></symbol><symbol viewBox="0 0 448 512" id="fab/x-twitter.svg" xmlns="http://www.w3.org/2000/svg"><!--! Font Awesome Free 7.0.1 by @fontawesome - https://fontawesome.com License - https://fontawesome.com/license/free (Icons: CC BY 4.0, Fonts: SIL OFL 1.1, Code: MIT License) Copyright 2025 Fonticons, Inc.--><path fill="currentColor" d="M357.2 48h70.6L273.6 224.2 455 464H313L201.7 318.6 74.5 464H3.8l164.9-188.5L-5.2 48h145.6l100.5 132.9L357.2 48zm-24.8 373.8h39.1L119.1 88h-42l255.3 333.8z"/></symbol><symbol viewBox="0 0 576 512" id="fab/youtube.svg" xmlns="http://www.w3.org/2000/svg"><!--! Font Awesome Free 7.0.1 by @fontawesome - https://fontawesome.com License - https://fontawesome.com/license/free (Icons: CC BY 4.0, Fonts: SIL OFL 1.1, Code: MIT License) Copyright 2025 Fonticons, Inc.--><path fill="currentColor" d="M549.7 124.1c-6.2-23.7-24.8-42.3-48.3-48.6C458.9 64 288.1 64 288.1 64S117.3 64 74.7 75.5c-23.5 6.3-42 24.9-48.3 48.6C15 167 15 256.4 15 256.4s0 89.4 11.4 132.3c6.3 23.6 24.8 41.5 48.3 47.8C117.3 448 288.1 448 288.1 448s170.8 0 213.4-11.5c23.5-6.3 42-24.2 48.3-47.8 11.4-42.9 11.4-132.3 11.4-132.3s0-89.4-11.4-132.3zM232.2 337.6V175.2l142.7 81.2-142.7 81.2z"/></symbol><symbol viewBox="0 0 512 512" id="far/thumbs-down.svg" xmlns="http://www.w3.org/2000/svg"><!--! Font Awesome Free 7.0.1 by @fontawesome - https://fontawesome.com License - https://fontawesome.com/license/free (Icons: CC BY 4.0, Fonts: SIL OFL 1.1, Code: MIT License) Copyright 2025 Fonticons, Inc.--><path fill="currentColor" d="m360 32 7.4.4c35 3.6 62.5 32.2 64.4 67.7 17.8 11.8 30.1 31.4 32 53.9l.2 6c0 5.7-.7 11.2-2 16.5 10.2 11.5 16.8 26.3 17.8 42.7l.2 4.8c0 13.2-3.6 25.4-9.8 36 4.9 8.4 8.2 17.9 9.3 28l.4 8c0 37.3-28.3 67.9-64.6 71.6l-7.4.4H298.2l14.1 30 3.1 7.6c12.5 35.7-1.8 75.5-34.2 95l-7.2 3.9c-37.5 17.6-81.7 3.6-102.6-31.2l-.6-.9-2.7-5-.6-1.2-30.1-64c-9.4 17.8-28 29.9-49.5 29.9h-32c-30.9 0-56-25.1-56-56L0 152c0-30.9 25.1-56 56-56h32c12.4 0 23.9 4.1 33.2 11 13.2-21.4 32-39.4 55-51.6l12.2-6.5.7-.3 6.6-3.2.7-.3 7.1-3c16.7-6.6 34.5-9.9 52.6-9.9L360 32zM255.9 80c-12 0-23.9 2.3-35.1 6.6l-4.7 2-5.3 2.6-12.2 6.5c-29.2 15.5-48.3 44.9-50.7 77.6l-.2 8v112.9l.1 4.1c.5 8.2 2.5 16.2 6 23.7l56.8 120.9 2.1 3.8c8.4 13.7 26 19.1 40.8 12.2l2.9-1.6c13-7.8 18.7-23.7 13.7-38l-1.2-3-30.2-64.2c-3.5-7.4-2.9-16.1 1.5-23.1s12-11.1 20.2-11.1h147.5l2.4-.1c11.3-1.1 20.3-10.1 21.4-21.4l.1-2.5c0-7.1-3.1-13.5-8.2-18-5.2-4.6-8.2-11.1-8.2-18s3-13.4 8.2-18c4.4-3.9 7.4-9.3 8-15.3l.2-2.7c0-8.4-4.4-15.9-11.2-20.2-10.7-6.9-14.2-20.9-8-32 1.5-2.6 2.5-5.6 2.9-8.6l.2-3.2c0-10.6-6.9-19.6-16.6-22.8-11.7-3.8-18.7-15.9-16-28 .2-.9.3-1.8.4-2.6l.2-2.6c0-12.4-9.5-22.6-21.6-23.8L360 80H255.9zM56 144c-4.4 0-8 3.6-8 8v224c0 4.4 3.6 8 8 8h32c4.4 0 8-3.6 8-8V152c0-4.4-3.6-8-8-8H56z"/></symbol><symbol viewBox="0 0 512 512" id="far/thumbs-up.svg" xmlns="http://www.w3.org/2000/svg"><!--! Font Awesome Free 7.0.1 by @fontawesome - https://fontawesome.com License - https://fontawesome.com/license/free (Icons: CC BY 4.0, Fonts: SIL OFL 1.1, Code: MIT License) Copyright 2025 Fonticons, Inc.--><path fill="currentColor" d="M171.5 38.8C192.3 4 236.5-10 274 7.6l7.2 3.8C316 32.3 330 76.5 312.4 114l-14.1 30H408l7.4.4c36.3 3.7 64.6 34.4 64.6 71.6 0 13.2-3.6 25.4-9.8 36 6.1 10.6 9.7 22.8 9.8 36 0 18.3-6.9 34.8-18 47.5 1.3 5.3 2 10.8 2 16.5 0 25.1-12.9 47-32.2 59.9-1.9 35.5-29.4 64.2-64.4 67.7l-7.4.4H255.9c-18 0-35.9-3.4-52.6-9.9l-7.1-3-.7-.3-6.6-3.2-.7-.3-12.2-6.5c-12.3-6.5-23.3-14.7-32.9-24.1-4.1 26.9-27.3 47.4-55.3 47.4h-32c-30.9 0-56-25.1-56-56L0 200c0-30.9 25.1-56 56-56h32c10.8 0 20.9 3.1 29.5 8.5L167.6 46l.6-1.2 2.7-5 .6-.9zM56 192c-4.4 0-8 3.6-8 8v224c0 4.4 3.6 8 8 8h32c4.4 0 8-3.6 8-8V200c0-4.4-3.6-8-8-8H56zM253.6 51c-14.8-6.9-32.3-1.6-40.7 12l-2.2 4-56.8 120.9c-3.5 7.5-5.5 15.5-6 23.7l-.1 4.2v112.9l.2 7.9c2.4 32.7 21.4 62.1 50.7 77.7l11.5 6.1 6.3 3.1c12.4 5.6 25.8 8.5 39.4 8.5H360l2.4-.1c12.1-1.2 21.6-11.5 21.6-23.9l-.2-2.6c-.1-.9-.2-1.7-.4-2.6-2.7-12.1 4.3-24.2 16-28 9.7-3.1 16.6-12.2 16.6-22.8 0-4.3-1.1-8.2-3.1-11.8-6.3-11.1-2.8-25.2 8-32 6.8-4.3 11.2-11.8 11.2-20.2 0-7.1-3.1-13.5-8.2-18-5.2-4.6-8.2-11.1-8.2-18s3-13.4 8.2-18c5.1-4.5 8.2-10.9 8.2-18l-.1-2.4c-1.1-11.3-10.1-20.3-21.4-21.4l-2.4-.1H260.7c-8.2 0-15.8-4.2-20.2-11.1-4.4-6.9-5-15.7-1.5-23.1l30-64.3c7-15 1.4-32.7-12.5-41l-2.9-1.6z"/></symbol><symbol viewBox="0 0 384 512" id="fas/angle-double-down.svg" xmlns="http://www.w3.org/2000/svg"><!--! Font Awesome Free 7.0.1 by @fontawesome - https://fontawesome.com License - https://fontawesome.com/license/free (Icons: CC BY 4.0, Fonts: SIL OFL 1.1, Code: MIT License) Copyright 2025 Fonticons, Inc.--><path fill="currentColor" d="M214.6 470.6c-12.5 12.5-32.8 12.5-45.3 0l-160-160c-12.5-12.5-12.5-32.8 0-45.3s32.8-12.5 45.3 0L192 402.7l137.4-137.3c12.5-12.5 32.8-12.5 45.3 0s12.5 32.8 0 45.3l-160 160zm160-352-160 160c-12.5 12.5-32.8 12.5-45.3 0l-160-160c-12.5-12.5-12.5-32.8 0-45.3s32.8-12.5 45.3 0L192 210.7 329.4 73.4c12.5-12.5 32.8-12.5 45.3 0s12.5 32.8 0 45.3z"/></symbol><symbol viewBox="0 0 448 512" id="fas/angle-double-left.svg" xmlns="http://www.w3.org/2000/svg"><!--! Font Awesome Free 7.0.1 by @fontawesome - https://fontawesome.com License - https://fontawesome.com/license/free (Icons: CC BY 4.0, Fonts: SIL OFL 1.1, Code: MIT License) Copyright 2025 Fonticons, Inc.--><path fill="currentColor" d="M9.4 233.4c-12.5 12.5-12.5 32.8 0 45.3l160 160c12.5 12.5 32.8 12.5 45.3 0s12.5-32.8 0-45.3L77.3 256l137.3-137.4c12.5-12.5 12.5-32.8 0-45.3s-32.8-12.5-45.3 0l-160 160zm352-160-160 160c-12.5 12.5-12.5 32.8 0 45.3l160 160c12.5 12.5 32.8 12.5 45.3 0s12.5-32.8 0-45.3L269.3 256l137.3-137.4c12.5-12.5 12.5-32.8 0-45.3s-32.8-12.5-45.3 0z"/></symbol><symbol viewBox="0 0 448 512" id="fas/angle-double-right.svg" xmlns="http://www.w3.org/2000/svg"><!--! Font Awesome Free 7.0.1 by @fontawesome - https://fontawesome.com License - https://fontawesome.com/license/free (Icons: CC BY 4.0, Fonts: SIL OFL 1.1, Code: MIT License) Copyright 2025 Fonticons, Inc.--><path fill="currentColor" d="M439.1 278.6c12.5-12.5 12.5-32.8 0-45.3l-160-160c-12.5-12.5-32.8-12.5-45.3 0s-12.5 32.8 0 45.3L371.2 256 233.9 393.4c-12.5 12.5-12.5 32.8 0 45.3s32.8 12.5 45.3 0l160-160zm-352 160 160-160c12.5-12.5 12.5-32.8 0-45.3l-160-160c-12.5-12.5-32.8-12.5-45.3 0s-12.5 32.8 0 45.3L179.2 256 41.9 393.4c-12.5 12.5-12.5 32.8 0 45.3s32.8 12.5 45.3 0z"/></symbol><symbol viewBox="0 0 256 512" id="fas/angle-left.svg" xmlns="http://www.w3.org/2000/svg"><!--! Font Awesome Free 7.0.1 by @fontawesome - https://fontawesome.com License - https://fontawesome.com/license/free (Icons: CC BY 4.0, Fonts: SIL OFL 1.1, Code: MIT License) Copyright 2025 Fonticons, Inc.--><path fill="currentColor" d="M9.4 233.4c-12.5 12.5-12.5 32.8 0 45.3l160 160c12.5 12.5 32.8 12.5 45.3 0s12.5-32.8 0-45.3L77.3 256l137.3-137.4c12.5-12.5 12.5-32.8 0-45.3s-32.8-12.5-45.3 0l-160 160z"/></symbol><symbol viewBox="0 0 256 512" id="fas/angle-right.svg" xmlns="http://www.w3.org/2000/svg"><!--! Font Awesome Free 7.0.1 by @fontawesome - https://fontawesome.com License - https://fontawesome.com/license/free (Icons: CC BY 4.0, Fonts: SIL OFL 1.1, Code: MIT License) Copyright 2025 Fonticons, Inc.--><path fill="currentColor" d="M247.1 233.4c12.5 12.5 12.5 32.8 0 45.3l-160 160c-12.5 12.5-32.8 12.5-45.3 0s-12.5-32.8 0-45.3L179.2 256 41.9 118.6c-12.5-12.5-12.5-32.8 0-45.3s32.8-12.5 45.3 0l160 160z"/></symbol><symbol viewBox="0 0 384 512" id="fas/arrow-down.svg" xmlns="http://www.w3.org/2000/svg"><!--! Font Awesome Free 7.0.1 by @fontawesome - https://fontawesome.com License - https://fontawesome.com/license/free (Icons: CC BY 4.0, Fonts: SIL OFL 1.1, Code: MIT License) Copyright 2025 Fonticons, Inc.--><path fill="currentColor" d="M169.4 502.6c12.5 12.5 32.8 12.5 45.3 0l160-160c12.5-12.5 12.5-32.8 0-45.3s-32.8-12.5-45.3 0L224 402.7V32c0-17.7-14.3-32-32-32s-32 14.3-32 32v370.7L54.6 297.3c-12.5-12.5-32.8-12.5-45.3 0s-12.5 32.8 0 45.3l160 160z"/></symbol><symbol viewBox="0 0 512 512" id="fas/arrow-right-from-bracket.svg" xmlns="http://www.w3.org/2000/svg"><!--! Font Awesome Free 7.0.1 by @fontawesome - https://fontawesome.com License - https://fontawesome.com/license/free (Icons: CC BY 4.0, Fonts: SIL OFL 1.1, Code: MIT License) Copyright 2025 Fonticons, Inc.--><path fill="currentColor" d="M160 96c17.7 0 32-14.3 32-32s-14.3-32-32-32H96C43 32 0 75 0 128v256c0 53 43 96 96 96h64c17.7 0 32-14.3 32-32s-14.3-32-32-32H96c-17.7 0-32-14.3-32-32V128c0-17.7 14.3-32 32-32h64zm342.6 182.6c12.5-12.5 12.5-32.8 0-45.3l-128-128c-12.5-12.5-32.8-12.5-45.3 0s-12.5 32.8 0 45.3l73.4 73.4H192c-17.7 0-32 14.3-32 32s14.3 32 32 32h210.7l-73.4 73.4c-12.5 12.5-12.5 32.8 0 45.3s32.8 12.5 45.3 0l128-128z"/></symbol><symbol viewBox="0 0 512 512" id="fas/arrow-right.svg" xmlns="http://www.w3.org/2000/svg"><!--! Font Awesome Free 7.0.1 by @fontawesome - https://fontawesome.com License - https://fontawesome.com/license/free (Icons: CC BY 4.0, Fonts: SIL OFL 1.1, Code: MIT License) Copyright 2025 Fonticons, Inc.--><path fill="currentColor" d="M502.6 278.6c12.5-12.5 12.5-32.8 0-45.3l-160-160c-12.5-12.5-32.8-12.5-45.3 0s-12.5 32.8 0 45.3L402.7 224H32c-17.7 0-32 14.3-32 32s14.3 32 32 32h370.7L297.3 393.4c-12.5 12.5-12.5 32.8 0 45.3s32.8 12.5 45.3 0l160-160z"/></symbol><symbol viewBox="0 0 384 512" id="fas/arrow-up.svg" xmlns="http://www.w3.org/2000/svg"><!--! Font Awesome Free 7.0.1 by @fontawesome - https://fontawesome.com License - https://fontawesome.com/license/free (Icons: CC BY 4.0, Fonts: SIL OFL 1.1, Code: MIT License) Copyright 2025 Fonticons, Inc.--><path fill="currentColor" d="M214.6 17.4c-12.5-12.5-32.8-12.5-45.3 0l-160 160c-12.5 12.5-12.5 32.8 0 45.3s32.8 12.5 45.3 0L160 117.3V488c0 17.7 14.3 32 32 32s32-14.3 32-32V117.3l105.4 105.4c12.5 12.5 32.8 12.5 45.3 0s12.5-32.8 0-45.3l-160-160z"/></symbol><symbol viewBox="0 0 448 512" id="fas/bars.svg" xmlns="http://www.w3.org/2000/svg"><!--! Font Awesome Free 7.0.1 by @fontawesome - https://fontawesome.com License - https://fontawesome.com/license/free (Icons: CC BY 4.0, Fonts: SIL OFL 1.1, Code: MIT License) Copyright 2025 Fonticons, Inc.--><path fill="currentColor" d="M0 96c0-17.7 14.3-32 32-32h384c17.7 0 32 14.3 32 32s-14.3 32-32 32H32c-17.7 0-32-14.3-32-32zm0 160c0-17.7 14.3-32 32-32h384c17.7 0 32 14.3 32 32s-14.3 32-32 32H32c-17.7 0-32-14.3-32-32zm448 160c0 17.7-14.3 32-32 32H32c-17.7 0-32-14.3-32-32s14.3-32 32-32h384c17.7 0 32 14.3 32 32z"/></symbol><symbol viewBox="0 0 448 512" id="fas/book.svg" xmlns="http://www.w3.org/2000/svg"><!--! Font Awesome Free 7.0.1 by @fontawesome - https://fontawesome.com License - https://fontawesome.com/license/free (Icons: CC BY 4.0, Fonts: SIL OFL 1.1, Code: MIT License) Copyright 2025 Fonticons, Inc.--><path fill="currentColor" d="M384 512H96c-53 0-96-43-96-96V96C0 43 43 0 96 0h304c26.5 0 48 21.5 48 48v288c0 20.9-13.4 38.7-32 45.3V448c17.7 0 32 14.3 32 32s-14.3 32-32 32h-32zM96 384c-17.7 0-32 14.3-32 32s14.3 32 32 32h256v-64H96zm32-232c0 13.3 10.7 24 24 24h176c13.3 0 24-10.7 24-24s-10.7-24-24-24H152c-13.3 0-24 10.7-24 24zm24 72c-13.3 0-24 10.7-24 24s10.7 24 24 24h176c13.3 0 24-10.7 24-24s-10.7-24-24-24H152z"/></symbol><symbol viewBox="0 0 512 512" id="fas/chart-bar.svg" xmlns="http://www.w3.org/2000/svg"><!--! Font Awesome Free 7.0.1 by @fontawesome - https://fontawesome.com License - https://fontawesome.com/license/free (Icons: CC BY 4.0, Fonts: SIL OFL 1.1, Code: MIT License) Copyright 2025 Fonticons, Inc.--><path fill="currentColor" d="M32 32c17.7 0 32 14.3 32 32v336c0 8.8 7.2 16 16 16h400c17.7 0 32 14.3 32 32s-14.3 32-32 32H80c-44.2 0-80-35.8-80-80V64c0-17.7 14.3-32 32-32zm96 64c0-17.7 14.3-32 32-32h192c17.7 0 32 14.3 32 32s-14.3 32-32 32H160c-17.7 0-32-14.3-32-32zm32 80h128c17.7 0 32 14.3 32 32s-14.3 32-32 32H160c-17.7 0-32-14.3-32-32s14.3-32 32-32zm0 112h256c17.7 0 32 14.3 32 32s-14.3 32-32 32H160c-17.7 0-32-14.3-32-32s14.3-32 32-32z"/></symbol><symbol viewBox="0 0 512 512" id="fas/chart-line.svg" xmlns="http://www.w3.org/2000/svg"><!--! Font Awesome Free 7.0.1 by @fontawesome - https://fontawesome.com License - https://fontawesome.com/license/free (Icons: CC BY 4.0, Fonts: SIL OFL 1.1, Code: MIT License) Copyright 2025 Fonticons, Inc.--><path fill="currentColor" d="M64 64c0-17.7-14.3-32-32-32S0 46.3 0 64v336c0 44.2 35.8 80 80 80h400c17.7 0 32-14.3 32-32s-14.3-32-32-32H80c-8.8 0-16-7.2-16-16V64zm406.6 86.6c12.5-12.5 12.5-32.8 0-45.3s-32.8-12.5-45.3 0L320 210.7l-57.4-57.3c-12.5-12.5-32.8-12.5-45.3 0l-96 96c-12.5 12.5-12.5 32.8 0 45.3s32.8 12.5 45.3 0l73.4-73.4 57.4 57.4c12.5 12.5 32.8 12.5 45.3 0l128-128z"/></symbol><symbol viewBox="0 0 512 512" id="fas/check-circle.svg" xmlns="http://www.w3.org/2000/svg"><!--! Font Awesome Free 7.0.1 by @fontawesome - https://fontawesome.com License - https://fontawesome.com/license/free (Icons: CC BY 4.0, Fonts: SIL OFL 1.1, Code: MIT License) Copyright 2025 Fonticons, Inc.--><path fill="currentColor" d="M256 512a256 256 0 1 1 0-512 256 256 0 1 1 0 512zm118-366.3c-10.7-7.8-25.7-5.4-33.5 5.3L221.1 315.2 169 263.1c-9.4-9.4-24.6-9.4-33.9 0s-9.4 24.6 0 33.9l72 72c5 5 11.8 7.5 18.8 7s13.4-4.1 17.5-9.8l135.9-187c7.8-10.7 5.4-25.7-5.3-33.5z"/></symbol><symbol viewBox="0 0 448 512" id="fas/check.svg" xmlns="http://www.w3.org/2000/svg"><!--! Font Awesome Free 7.0.1 by @fontawesome - https://fontawesome.com License - https://fontawesome.com/license/free (Icons: CC BY 4.0, Fonts: SIL OFL 1.1, Code: MIT License) Copyright 2025 Fonticons, Inc.--><path fill="currentColor" d="M434.8 70.1c14.3 10.4 17.5 30.4 7.1 44.7l-256 352c-5.5 7.6-14 12.3-23.4 13.1s-18.5-2.7-25.1-9.3l-128-128c-12.5-12.5-12.5-32.8 0-45.3s32.8-12.5 45.3 0l101.5 101.5 234-321.7c10.4-14.3 30.4-17.5 44.7-7.1z"/></symbol><symbol viewBox="0 0 512 512" id="fas/circle.svg" xmlns="http://www.w3.org/2000/svg"><!--! Font Awesome Free 7.0.1 by @fontawesome - https://fontawesome.com License - https://fontawesome.com/license/free (Icons: CC BY 4.0, Fonts: SIL OFL 1.1, Code: MIT License) Copyright 2025 Fonticons, Inc.--><path fill="currentColor" d="M0 256a256 256 0 1 1 512 0 256 256 0 1 1-512 0z"/></symbol><symbol viewBox="0 0 512 512" id="fas/cog.svg" xmlns="http://www.w3.org/2000/svg"><!--! Font Awesome Free 7.0.1 by @fontawesome - https://fontawesome.com License - https://fontawesome.com/license/free (Icons: CC BY 4.0, Fonts: SIL OFL 1.1, Code: MIT License) Copyright 2025 Fonticons, Inc.--><path fill="currentColor" d="M195.1 9.5c3-14.8 16.1-25.5 31.3-25.5h59.8c15.2 0 28.3 10.7 31.3 25.5l14.5 70c14.1 6 27.3 13.7 39.3 22.8l67.8-22.5c14.4-4.8 30.2 1.2 37.8 14.4l29.9 51.8c7.6 13.2 4.9 29.8-6.5 39.9L447 233.3c.9 7.4 1.3 15 1.3 22.7s-.5 15.3-1.3 22.7l53.4 47.5c11.4 10.1 14 26.8 6.5 39.9L477 417.9c-7.6 13.1-23.4 19.2-37.8 14.4l-67.8-22.5c-12.1 9.1-25.3 16.7-39.3 22.8l-14.4 69.9c-3.1 14.9-16.2 25.5-31.3 25.5h-59.8c-15.2 0-28.3-10.7-31.3-25.5l-14.4-69.9c-14.1-6-27.2-13.7-39.3-22.8l-68.1 22.5c-14.4 4.8-30.2-1.2-37.8-14.4L5.8 366.1c-7.6-13.2-4.9-29.8 6.5-39.9l53.4-47.5c-.9-7.4-1.3-15-1.3-22.7s.5-15.3 1.3-22.7l-53.4-47.5C.9 175.7-1.7 159 5.8 145.9l29.9-51.8c7.6-13.2 23.4-19.2 37.8-14.4l67.8 22.5c12.1-9.1 25.3-16.7 39.3-22.8l14.5-69.9zM256.3 336a80 80 0 1 0-.6-160 80 80 0 1 0 .6 160z"/></symbol><symbol viewBox="0 0 512 512" id="fas/comment.svg" xmlns="http://www.w3.org/2000/svg"><!--! Font Awesome Free 7.0.1 by @fontawesome - https://fontawesome.com License - https://fontawesome.com/license/free (Icons: CC BY 4.0, Fonts: SIL OFL 1.1, Code: MIT License) Copyright 2025 Fonticons, Inc.--><path fill="currentColor" d="M512 240c0 132.5-114.6 240-256 240-37.1 0-72.3-7.4-104.1-20.7L33.5 510.1c-9.4 4-20.2 1.7-27.1-5.8s-8.4-18.5-3.6-27.5l48.8-92.2C19.2 344.3 0 294.3 0 240 0 107.5 114.6 0 256 0s256 107.5 256 240z"/></symbol><symbol viewBox="0 0 576 512" id="fas/comments.svg" xmlns="http://www.w3.org/2000/svg"><!--! Font Awesome Free 7.0.1 by @fontawesome - https://fontawesome.com License - https://fontawesome.com/license/free (Icons: CC BY 4.0, Fonts: SIL OFL 1.1, Code: MIT License) Copyright 2025 Fonticons, Inc.--><path fill="currentColor" d="M384 144c0 97.2-86 176-192 176-26.7 0-52.1-5-75.2-14l-81.6 43.2c-9.3 4.9-20.7 3.2-28.2-4.2s-9.2-18.9-4.2-28.2l35.6-67.2C14.3 220.2 0 183.6 0 144 0 46.8 86-32 192-32s192 78.8 192 176zm0 368c-94.1 0-172.4-62.1-188.8-144 120-1.5 224.3-86.9 235.8-202.7 83.3 19.2 145 88.3 145 170.7 0 39.6-14.3 76.2-38.4 105.6l35.6 67.2c4.9 9.3 3.2 20.7-4.2 28.2s-18.9 9.2-28.2 4.2L459.2 498c-23.1 9-48.5 14-75.2 14z"/></symbol><symbol viewBox="0 0 448 512" id="fas/copy.svg" xmlns="http://www.w3.org/2000/svg"><!--! Font Awesome Free 7.0.1 by @fontawesome - https://fontawesome.com License - https://fontawesome.com/license/free (Icons: CC BY 4.0, Fonts: SIL OFL 1.1, Code: MIT License) Copyright 2025 Fonticons, Inc.--><path fill="currentColor" d="M192 0c-35.3 0-64 28.7-64 64v256c0 35.3 28.7 64 64 64h192c35.3 0 64-28.7 64-64V119.4c0-17.4-7.1-34.1-19.7-46.2l-57.7-55.4A64.11 64.11 0 0 0 326.3 0H192zM64 128c-35.3 0-64 28.7-64 64v256c0 35.3 28.7 64 64 64h192c35.3 0 64-28.7 64-64v-16h-64v16H64V192h16v-64H64z"/></symbol><symbol viewBox="0 0 448 512" id="fas/download.svg" xmlns="http://www.w3.org/2000/svg"><!--! Font Awesome Free 7.0.1 by @fontawesome - https://fontawesome.com License - https://fontawesome.com/license/free (Icons: CC BY 4.0, Fonts: SIL OFL 1.1, Code: MIT License) Copyright 2025 Fonticons, Inc.--><path fill="currentColor" d="M256 32c0-17.7-14.3-32-32-32s-32 14.3-32 32v210.7l-41.4-41.4c-12.5-12.5-32.8-12.5-45.3 0s-12.5 32.8 0 45.3l96 96c12.5 12.5 32.8 12.5 45.3 0l96-96c12.5-12.5 12.5-32.8 0-45.3s-32.8-12.5-45.3 0L256 242.7V32zM64 320c-35.3 0-64 28.7-64 64v32c0 35.3 28.7 64 64 64h320c35.3 0 64-28.7 64-64v-32c0-35.3-28.7-64-64-64h-46.9l-56.6 56.6c-31.2 31.2-81.9 31.2-113.1 0L110.9 320H64zm304 56a24 24 0 1 1 0 48 24 24 0 1 1 0-48z"/></symbol><symbol viewBox="0 0 512 512" id="fas/edit.svg" xmlns="http://www.w3.org/2000/svg"><!--! Font Awesome Free 7.0.1 by @fontawesome - https://fontawesome.com License - https://fontawesome.com/license/free (Icons: CC BY 4.0, Fonts: SIL OFL 1.1, Code: MIT License) Copyright 2025 Fonticons, Inc.--><path fill="currentColor" d="M471.6 21.7c-21.9-21.9-57.3-21.9-79.2 0L368 46.1l97.9 97.9 24.4-24.4c21.9-21.9 21.9-57.3 0-79.2l-18.7-18.7zm-299.2 220c-6.1 6.1-10.8 13.6-13.5 21.9l-29.6 88.8c-2.9 8.6-.6 18.1 5.8 24.6s15.9 8.7 24.6 5.8l88.8-29.6c8.2-2.7 15.7-7.4 21.9-13.5L432 177.9 334.1 80 172.4 241.7zM96 64c-53 0-96 43-96 96v256c0 53 43 96 96 96h256c53 0 96-43 96-96v-96c0-17.7-14.3-32-32-32s-32 14.3-32 32v96c0 17.7-14.3 32-32 32H96c-17.7 0-32-14.3-32-32V160c0-17.7 14.3-32 32-32h96c17.7 0 32-14.3 32-32s-14.3-32-32-32H96z"/></symbol><symbol viewBox="0 0 512 512" id="fas/envelope.svg" xmlns="http://www.w3.org/2000/svg"><!--! Font Awesome Free 7.0.1 by @fontawesome - https://fontawesome.com License - https://fontawesome.com/license/free (Icons: CC BY 4.0, Fonts: SIL OFL 1.1, Code: MIT License) Copyright 2025 Fonticons, Inc.--><path fill="currentColor" d="M48 64C21.5 64 0 85.5 0 112c0 15.1 7.1 29.3 19.2 38.4l208 156a48 48 0 0 0 57.6 0l208-156c12.1-9.1 19.2-23.3 19.2-38.4 0-26.5-21.5-48-48-48H48zM0 196v188c0 35.3 28.7 64 64 64h384c35.3 0 64-28.7 64-64V196L313.6 344.8c-34.1 25.6-81.1 25.6-115.2 0L0 196z"/></symbol><symbol viewBox="0 0 576 512" id="fas/eraser.svg" xmlns="http://www.w3.org/2000/svg"><!--! Font Awesome Free 7.0.1 by @fontawesome - https://fontawesome.com License - https://fontawesome.com/license/free (Icons: CC BY 4.0, Fonts: SIL OFL 1.1, Code: MIT License) Copyright 2025 Fonticons, Inc.--><path fill="currentColor" d="M178.5 416h123l65.3-65.3-173.5-173.5L66.6 303.9l112 112zm45.5 64h-45.5c-17 0-33.3-6.7-45.3-18.7L17 345C6.1 334.1 0 319.4 0 304s6.1-30.1 17-41L263 17c10.9-10.9 25.6-17 41-17s30.1 6.1 41 17l182 182c10.9 10.9 17 25.6 17 41s-6.1 30.1-17 41L392 416h120c17.7 0 32 14.3 32 32s-14.3 32-32 32H224z"/></symbol><symbol viewBox="0 0 512 512" id="fas/exchange-alt.svg" xmlns="http://www.w3.org/2000/svg"><!--! Font Awesome Free 7.0.1 by @fontawesome - https://fontawesome.com License - https://fontawesome.com/license/free (Icons: CC BY 4.0, Fonts: SIL OFL 1.1, Code: MIT License) Copyright 2025 Fonticons, Inc.--><path fill="currentColor" d="m502.6 150.6-96 96c-9.2 9.2-22.9 11.9-34.9 6.9S352 236.9 352 224v-64H32c-17.7 0-32-14.3-32-32s14.3-32 32-32h320V32c0-12.9 7.8-24.6 19.8-29.6s25.7-2.2 34.9 6.9l96 96c12.5 12.5 12.5 32.8 0 45.3zm-397.3 352-96-96c-12.5-12.5-12.5-32.8 0-45.3l96-96c9.2-9.2 22.9-11.9 34.9-6.9S160 275.1 160 288v64h320c17.7 0 32 14.3 32 32s-14.3 32-32 32H160v64c0 12.9-7.8 24.6-19.8 29.6s-25.7 2.2-34.9-6.9z"/></symbol><symbol viewBox="0 0 448 512" id="fas/flag-checkered.svg" xmlns="http://www.w3.org/2000/svg"><!--! Font Awesome Free 7.0.1 by @fontawesome - https://fontawesome.com License - https://fontawesome.com/license/free (Icons: CC BY 4.0, Fonts: SIL OFL 1.1, Code: MIT License) Copyright 2025 Fonticons, Inc.--><path fill="currentColor" d="M32 0c17.7 0 32 14.3 32 32v16l69-17.2c38.1-9.5 78.3-5.1 113.5 12.5 46.3 23.2 100.8 23.2 147.1 0l9.6-4.8c20.6-10.4 44.8 4.6 44.8 27.6v279.7c0 13.3-8.3 25.3-20.8 30l-34.7 13c-46.2 17.3-97.6 14.6-141.7-7.4-37.9-19-81.4-23.7-122.5-13.4L64 384v96c0 17.7-14.3 32-32 32S0 497.7 0 480V32C0 14.3 14.3 0 32 0zm32 187.1 64-13.9v65.5l-64 13.9v65.5l48.8-12.2c5.1-1.3 10.1-2.4 15.2-3.3v-63.9l38.9-8.4c8.3-1.8 16.7-2.5 25.1-2.1v-64c13.6.4 27.2 2.6 40.4 6.4l23.6 6.9v66.7l-41.7-12.3c-7.3-2.1-14.8-3.4-22.3-3.8v71.4c21.8 1.9 43.3 6.7 64 14.4v-69.8l22.7 6.7c13.5 4 27.3 6.4 41.3 7.4V194c-7.8-.8-15.6-2.3-23.2-4.5l-40.8-12v-62c-13-3.8-25.8-8.8-38.2-15-8.2-4.1-16.9-7-25.8-8.8v72.4c-13-.4-26 .8-38.7 3.6l-25.3 5.5V98l-64 16v73.1zm256 148.6c16.8 1.5 33.9-.7 50-6.8l14-5.2V252l-7.9 1.8c-18.4 4.3-37.3 5.7-56.1 4.5v77.4zm64-149.4v-70.8c-20.9 6.1-42.4 9.1-64 9.1V194c13.9 1.4 28 .5 41.7-2.6l22.3-5.2z"/></symbol><symbol viewBox="0 0 448 512" id="fas/flag.svg" xmlns="http://www.w3.org/2000/svg"><!--! Font Awesome Free 7.0.1 by @fontawesome - https://fontawesome.com License - https://fontawesome.com/license/free (Icons: CC BY 4.0, Fonts: SIL OFL 1.1, Code: MIT License) Copyright 2025 Fonticons, Inc.--><path fill="currentColor" d="M64 32C64 14.3 49.7 0 32 0S0 14.3 0 32v448c0 17.7 14.3 32 32 32s32-14.3 32-32V358.4l62.7-18.8c41.9-12.6 87.1-8.7 126.2 10.9 42.7 21.4 92.5 24 137.2 7.2l37.1-13.9c12.5-4.7 20.8-16.6 20.8-30V66.1c0-23-24.2-38-44.8-27.7l-11.8 5.9c-44.9 22.5-97.8 22.5-142.8 0-36.4-18.2-78.3-21.8-117.2-10.1L64 54.4V32z"/></symbol><symbol viewBox="0 0 576 512" id="fas/graduation-cap.svg" xmlns="http://www.w3.org/2000/svg"><!--! Font Awesome Free 7.0.1 by @fontawesome - https://fontawesome.com License - https://fontawesome.com/license/free (Icons: CC BY 4.0, Fonts: SIL OFL 1.1, Code: MIT License) Copyright 2025 Fonticons, Inc.--><path fill="currentColor" d="m48 195.8 209.2 86.1c9.8 4 20.2 6.1 30.8 6.1s21-2.1 30.8-6.1l242.4-99.8c9-3.7 14.8-12.4 14.8-22.1s-5.8-18.4-14.8-22.1L318.8 38.1c-9.8-4-20.2-6.1-30.8-6.1s-21 2.1-30.8 6.1L14.8 137.9C5.8 141.6 0 150.3 0 160v296c0 13.3 10.7 24 24 24s24-10.7 24-24V195.8zm48 71.7V384c0 53 86 96 192 96s192-43 192-96V267.4l-142.9 58.9c-15.6 6.4-32.2 9.7-49.1 9.7s-33.5-3.3-49.1-9.7L96 267.4z"/></symbol><symbol viewBox="0 0 512 512" id="fas/hand-paper.svg" xmlns="http://www.w3.org/2000/svg"><!--! Font Awesome Free 7.0.1 by @fontawesome - https://fontawesome.com License - https://fontawesome.com/license/free (Icons: CC BY 4.0, Fonts: SIL OFL 1.1, Code: MIT License) Copyright 2025 Fonticons, Inc.--><path fill="currentColor" d="M288 32c0-17.7-14.3-32-32-32s-32 14.3-32 32v208c0 8.8-7.2 16-16 16s-16-7.2-16-16V64c0-17.7-14.3-32-32-32s-32 14.3-32 32v272c0 1.5 0 3.1.1 4.6L67.6 283c-16-15.2-41.3-14.6-56.6 1.4s-14.6 41.3 1.4 56.6l112.4 107c43.1 41.1 100.4 64 160 64H304c97.2 0 176-78.8 176-176V128c0-17.7-14.3-32-32-32s-32 14.3-32 32v112c0 8.8-7.2 16-16 16s-16-7.2-16-16V64c0-17.7-14.3-32-32-32s-32 14.3-32 32v176c0 8.8-7.2 16-16 16s-16-7.2-16-16V32z"/></symbol><symbol viewBox="0 0 512 512" id="fas/info-circle.svg" xmlns="http://www.w3.org/2000/svg"><!--! Font Awesome Free 7.0.1 by @fontawesome - https://fontawesome.com License - https://fontawesome.com/license/free (Icons: CC BY 4.0, Fonts: SIL OFL 1.1, Code: MIT License) Copyright 2025 Fonticons, Inc.--><path fill="currentColor" d="M256 512a256 256 0 1 0 0-512 256 256 0 1 0 0 512zm-32-352a32 32 0 1 1 64 0 32 32 0 1 1-64 0zm-8 64h48c13.3 0 24 10.7 24 24v88h8c13.3 0 24 10.7 24 24s-10.7 24-24 24h-80c-13.3 0-24-10.7-24-24s10.7-24 24-24h24v-64h-24c-13.3 0-24-10.7-24-24s10.7-24 24-24z"/></symbol><symbol viewBox="0 0 192 512" id="fas/info.svg" xmlns="http://www.w3.org/2000/svg"><!--! Font Awesome Free 7.0.1 by @fontawesome - https://fontawesome.com License - https://fontawesome.com/license/free (Icons: CC BY 4.0, Fonts: SIL OFL 1.1, Code: MIT License) Copyright 2025 Fonticons, Inc.--><path fill="currentColor" d="M48 48a48 48 0 1 1 96 0 48 48 0 1 1-96 0zM0 192c0-17.7 14.3-32 32-32h64c17.7 0 32 14.3 32 32v256h32c17.7 0 32 14.3 32 32s-14.3 32-32 32H32c-17.7 0-32-14.3-32-32s14.3-32 32-32h32V224H32c-17.7 0-32-14.3-32-32z"/></symbol><symbol viewBox="0 0 576 512" id="fas/language.svg" xmlns="http://www.w3.org/2000/svg"><!--! Font Awesome Free 7.0.1 by @fontawesome - https://fontawesome.com License - https://fontawesome.com/license/free (Icons: CC BY 4.0, Fonts: SIL OFL 1.1, Code: MIT License) Copyright 2025 Fonticons, Inc.--><path fill="currentColor" d="M160 0c17.7 0 32 14.3 32 32v32h128c17.7 0 32 14.3 32 32s-14.3 32-32 32h-9.6l-8.4 23.1c-16.4 45.2-41.1 86.5-72.2 122 14.2 8.8 29 16.6 44.4 23.5l50.4 22.4 62.2-140c5.1-11.6 16.6-19 29.2-19s24.1 7.4 29.2 19l128 288c7.2 16.2-.1 35.1-16.2 42.2s-35.1-.1-42.2-16.2l-20-45H337.3l-20 45c-7.2 16.2-26.1 23.4-42.2 16.2s-23.4-26.1-16.2-42.2l39.8-89.5-50.4-22.4c-23-10.2-45-22.4-65.8-36.4-21.3 17.2-44.6 32.2-69.5 44.7l-34.7 17.2c-15.8 7.9-35 1.5-42.9-14.3s-1.5-35 14.3-42.9l34.5-17.3c16.3-8.2 31.8-17.7 46.4-28.3-13.8-12.7-26.8-26.4-38.9-40.9l-10.1-12.2c-11.3-13.6-9.5-33.8 4.1-45.1s33.8-9.5 45.1 4.1l10.2 12.2c11.5 13.9 24.1 26.8 37.4 38.7 27.5-30.4 49.2-66.1 63.5-105.4l.5-1.2H32.1C14.3 128 0 113.7 0 96s14.3-32 32-32h96V32c0-17.7 14.3-32 32-32zm256 270.8L365.7 384h100.6L416 270.8z"/></symbol><symbol viewBox="0 0 384 512" id="fas/lightbulb.svg" xmlns="http://www.w3.org/2000/svg"><!--! Font Awesome Free 7.0.1 by @fontawesome - https://fontawesome.com License - https://fontawesome.com/license/free (Icons: CC BY 4.0, Fonts: SIL OFL 1.1, Code: MIT License) Copyright 2025 Fonticons, Inc.--><path fill="currentColor" d="M292.9 384c7.3-22.3 21.9-42.5 38.4-59.9C364 289.7 384 243.2 384 192 384 86 298 0 192 0S0 86 0 192c0 51.2 20 97.7 52.7 132.1 16.5 17.4 31.2 37.6 38.4 59.9h201.7zm-4.9 48H96v16c0 44.2 35.8 80 80 80h32c44.2 0 80-35.8 80-80v-16zM184 112c-39.8 0-72 32.2-72 72 0 13.3-10.7 24-24 24s-24-10.7-24-24c0-66.3 53.7-120 120-120 13.3 0 24 10.7 24 24s-10.7 24-24 24z"/></symbol><symbol viewBox="0 0 448 512" id="fas/minus.svg" xmlns="http://www.w3.org/2000/svg"><!--! Font Awesome Free 7.0.1 by @fontawesome - https://fontawesome.com License - https://fontawesome.com/license/free (Icons: CC BY 4.0, Fonts: SIL OFL 1.1, Code: MIT License) Copyright 2025 Fonticons, Inc.--><path fill="currentColor" d="M0 256c0-17.7 14.3-32 32-32h384c17.7 0 32 14.3 32 32s-14.3 32-32 32H32c-17.7 0-32-14.3-32-32z"/></symbol><symbol viewBox="0 0 512 512" id="fas/newspaper.svg" xmlns="http://www.w3.org/2000/svg"><!--! Font Awesome Free 7.0.1 by @fontawesome - https://fontawesome.com License - https://fontawesome.com/license/free (Icons: CC BY 4.0, Fonts: SIL OFL 1.1, Code: MIT License) Copyright 2025 Fonticons, Inc.--><path fill="currentColor" d="M0 416V120c0-13.3 10.7-24 24-24s24 10.7 24 24v288c0 13.3 10.7 24 24 24s24-10.7 24-24V96c0-35.3 28.7-64 64-64h288c35.3 0 64 28.7 64 64v320c0 35.3-28.7 64-64 64H64c-35.3 0-64-28.7-64-64zm160-288v64c0 17.7 14.3 32 32 32h64c17.7 0 32-14.3 32-32v-64c0-17.7-14.3-32-32-32h-64c-17.7 0-32 14.3-32 32zm24 240c-13.3 0-24 10.7-24 24s10.7 24 24 24h240c13.3 0 24-10.7 24-24s-10.7-24-24-24H184zm-24-72c0 13.3 10.7 24 24 24h240c13.3 0 24-10.7 24-24s-10.7-24-24-24H184c-13.3 0-24 10.7-24 24zm200-120c-13.3 0-24 10.7-24 24s10.7 24 24 24h64c13.3 0 24-10.7 24-24s-10.7-24-24-24h-64z"/></symbol><symbol viewBox="0 0 512 512" id="fas/pen-to-square.svg" xmlns="http://www.w3.org/2000/svg"><!--! Font Awesome Free 7.0.1 by @fontawesome - https://fontawesome.com License - https://fontawesome.com/license/free (Icons: CC BY 4.0, Fonts: SIL OFL 1.1, Code: MIT License) Copyright 2025 Fonticons, Inc.--><path fill="currentColor" d="M471.6 21.7c-21.9-21.9-57.3-21.9-79.2 0L368 46.1l97.9 97.9 24.4-24.4c21.9-21.9 21.9-57.3 0-79.2l-18.7-18.7zm-299.2 220c-6.1 6.1-10.8 13.6-13.5 21.9l-29.6 88.8c-2.9 8.6-.6 18.1 5.8 24.6s15.9 8.7 24.6 5.8l88.8-29.6c8.2-2.7 15.7-7.4 21.9-13.5L432 177.9 334.1 80 172.4 241.7zM96 64c-53 0-96 43-96 96v256c0 53 43 96 96 96h256c53 0 96-43 96-96v-96c0-17.7-14.3-32-32-32s-32 14.3-32 32v96c0 17.7-14.3 32-32 32H96c-17.7 0-32-14.3-32-32V160c0-17.7 14.3-32 32-32h96c17.7 0 32-14.3 32-32s-14.3-32-32-32H96z"/></symbol><symbol viewBox="0 0 512 512" id="fas/pen.svg" xmlns="http://www.w3.org/2000/svg"><!--! Font Awesome Free 7.0.1 by @fontawesome - https://fontawesome.com License - https://fontawesome.com/license/free (Icons: CC BY 4.0, Fonts: SIL OFL 1.1, Code: MIT License) Copyright 2025 Fonticons, Inc.--><path fill="currentColor" d="M352.9 21.2 308 66.1 445.9 204l44.9-44.9c13.6-13.5 21.2-31.9 21.2-51.1s-7.6-37.6-21.2-51.1l-35.7-35.7C441.6 7.6 423.2 0 404 0s-37.6 7.6-51.1 21.2zM274.1 100 58.9 315.1c-10.7 10.7-18.5 24.1-22.6 38.7L.9 481.6c-2.3 8.3 0 17.3 6.2 23.4s15.1 8.5 23.4 6.2l127.8-35.5c14.6-4.1 27.9-11.8 38.7-22.6l215-215.2L274.1 100z"/></symbol><symbol viewBox="0 0 448 512" id="fas/plus.svg" xmlns="http://www.w3.org/2000/svg"><!--! Font Awesome Free 7.0.1 by @fontawesome - https://fontawesome.com License - https://fontawesome.com/license/free (Icons: CC BY 4.0, Fonts: SIL OFL 1.1, Code: MIT License) Copyright 2025 Fonticons, Inc.--><path fill="currentColor" d="M256 64c0-17.7-14.3-32-32-32s-32 14.3-32 32v160H32c-17.7 0-32 14.3-32 32s14.3 32 32 32h160v160c0 17.7 14.3 32 32 32s32-14.3 32-32V288h160c17.7 0 32-14.3 32-32s-14.3-32-32-32H256V64z"/></symbol><symbol viewBox="0 0 512 512" id="fas/puzzle-piece.svg" xmlns="http://www.w3.org/2000/svg"><!--! Font Awesome Free 7.0.1 by @fontawesome - https://fontawesome.com License - https://fontawesome.com/license/free (Icons: CC BY 4.0, Fonts: SIL OFL 1.1, Code: MIT License) Copyright 2025 Fonticons, Inc.--><path fill="currentColor" d="M224 0c35.3 0 64 21.5 64 48 0 10.4-4.4 20-12 27.9-6.6 6.9-12 15.3-12 24.9 0 15 12.2 27.2 27.2 27.2H336c26.5 0 48 21.5 48 48v44.8c0 15 12.2 27.2 27.2 27.2 9.5 0 18-5.4 24.9-12 7.9-7.5 17.5-12 27.9-12 26.5 0 48 28.7 48 64s-21.5 64-48 64c-10.4 0-20.1-4.4-27.9-12-6.9-6.6-15.3-12-24.9-12-15 0-27.2 12.2-27.2 27.2V464c0 26.5-21.5 48-48 48h-56.8c-12.8 0-23.2-10.4-23.2-23.2 0-9.2 5.8-17.3 13.2-22.8 11.6-8.7 18.8-20.7 18.8-34 0-26.5-28.7-48-64-48s-64 21.5-64 48c0 13.3 7.2 25.3 18.8 34 7.4 5.5 13.2 13.5 13.2 22.8 0 12.8-10.4 23.2-23.2 23.2H48c-26.5 0-48-21.5-48-48V343.2C0 330.4 10.4 320 23.2 320c9.2 0 17.3 5.8 22.8 13.2 8.7 11.6 20.7 18.8 34 18.8 26.5 0 48-28.7 48-64s-21.5-64-48-64c-13.3 0-25.3 7.2-34 18.8-5.5 7.4-13.5 13.2-22.8 13.2C10.4 256 0 245.6 0 232.8V176c0-26.5 21.5-48 48-48h108.8c15 0 27.2-12.2 27.2-27.2 0-9.5-5.4-18-12-24.9-7.5-7.9-12-17.5-12-27.9 0-26.5 28.7-48 64-48z"/></symbol><symbol viewBox="0 0 512 512" id="fas/question-circle.svg" xmlns="http://www.w3.org/2000/svg"><!--! Font Awesome Free 7.0.1 by @fontawesome - https://fontawesome.com License - https://fontawesome.com/license/free (Icons: CC BY 4.0, Fonts: SIL OFL 1.1, Code: MIT License) Copyright 2025 Fonticons, Inc.--><path fill="currentColor" d="M256 512a256 256 0 1 0 0-512 256 256 0 1 0 0 512zm0-336c-17.7 0-32 14.3-32 32 0 13.3-10.7 24-24 24s-24-10.7-24-24c0-44.2 35.8-80 80-80s80 35.8 80 80c0 47.2-36 67.2-56 74.5v3.8c0 13.3-10.7 24-24 24s-24-10.7-24-24v-8.1c0-20.5 14.8-35.2 30.1-40.2 6.4-2.1 13.2-5.5 18.2-10.3 4.3-4.2 7.7-10 7.7-19.6 0-17.7-14.3-32-32-32zm-32 192a32 32 0 1 1 64 0 32 32 0 1 1-64 0z"/></symbol><symbol viewBox="0 0 320 512" id="fas/question.svg" xmlns="http://www.w3.org/2000/svg"><!--! Font Awesome Free 7.0.1 by @fontawesome - https://fontawesome.com License - https://fontawesome.com/license/free (Icons: CC BY 4.0, Fonts: SIL OFL 1.1, Code: MIT License) Copyright 2025 Fonticons, Inc.--><path fill="currentColor" d="M64 160c0-53 43-96 96-96s96 43 96 96c0 42.7-27.9 78.9-66.5 91.4-28.4 9.2-61.5 35.3-61.5 76.6v24c0 17.7 14.3 32 32 32s32-14.3 32-32v-24c0-1.7.6-4.1 3.5-7.3 3-3.3 7.9-6.5 13.7-8.4C273.5 291.6 320 231.3 320 160 320 71.6 248.4 0 160 0S0 71.6 0 160c0 17.7 14.3 32 32 32s32-14.3 32-32zm96 352c22.1 0 40-17.9 40-40s-17.9-40-40-40-40 17.9-40 40 17.9 40 40 40z"/></symbol><symbol viewBox="0 0 512 512" id="fas/redo-alt.svg" xmlns="http://www.w3.org/2000/svg"><!--! Font Awesome Free 7.0.1 by @fontawesome - https://fontawesome.com License - https://fontawesome.com/license/free (Icons: CC BY 4.0, Fonts: SIL OFL 1.1, Code: MIT License) Copyright 2025 Fonticons, Inc.--><path fill="currentColor" d="M488 192H344c-9.7 0-18.5-5.8-22.2-14.8s-1.7-19.3 5.2-26.2l46.7-46.7C298.4 45.7 189.4 51 120.2 120.2c-75 75-75 196.5 0 271.5s196.5 75 271.5 0c8.2-8.2 15.5-16.9 21.9-26.1 10.1-14.5 30.1-18 44.6-7.9s18 30.1 7.9 44.6c-8.5 12.2-18.2 23.8-29.1 34.7-100 100-262.1 100-362 0S-25 175 75 75c94.3-94.3 243.7-99.6 344.3-16.2L471 7c6.9-6.9 17.2-8.9 26.2-5.2S512 14.3 512 24v144c0 13.3-10.7 24-24 24z"/></symbol><symbol viewBox="0 0 512 512" id="fas/reply.svg" xmlns="http://www.w3.org/2000/svg"><!--! Font Awesome Free 7.0.1 by @fontawesome - https://fontawesome.com License - https://fontawesome.com/license/free (Icons: CC BY 4.0, Fonts: SIL OFL 1.1, Code: MIT License) Copyright 2025 Fonticons, Inc.--><path fill="currentColor" d="M204.2 18.4c12 5 19.8 16.6 19.8 29.6v80h112c97.2 0 176 78.8 176 176 0 113.3-81.5 163.9-100.2 174.1-2.5 1.4-5.3 1.9-8.1 1.9-10.9 0-19.7-8.9-19.7-19.7 0-7.5 4.3-14.4 9.8-19.5 9.4-8.8 22.2-26.4 22.2-56.7 0-53-43-96-96-96h-96v80c0 12.9-7.8 24.6-19.8 29.6s-25.7 2.2-34.9-6.9l-160-160c-12.5-12.5-12.5-32.8 0-45.3l160-160c9.2-9.2 22.9-11.9 34.9-6.9z"/></symbol><symbol viewBox="0 0 640 512" id="fas/robot.svg" xmlns="http://www.w3.org/2000/svg"><!--! Font Awesome Free 7.0.1 by @fontawesome - https://fontawesome.com License - https://fontawesome.com/license/free (Icons: CC BY 4.0, Fonts: SIL OFL 1.1, Code: MIT License) Copyright 2025 Fonticons, Inc.--><path fill="currentColor" d="M352 0c0-17.7-14.3-32-32-32s-32 14.3-32 32v64h-96c-53 0-96 43-96 96v224c0 53 43 96 96 96h256c53 0 96-43 96-96V160c0-53-43-96-96-96h-96V0zM160 368c0-13.3 10.7-24 24-24h32c13.3 0 24 10.7 24 24s-10.7 24-24 24h-32c-13.3 0-24-10.7-24-24zm120 0c0-13.3 10.7-24 24-24h32c13.3 0 24 10.7 24 24s-10.7 24-24 24h-32c-13.3 0-24-10.7-24-24zm120 0c0-13.3 10.7-24 24-24h32c13.3 0 24 10.7 24 24s-10.7 24-24 24h-32c-13.3 0-24-10.7-24-24zM224 176a48 48 0 1 1 0 96 48 48 0 1 1 0-96zm144 48a48 48 0 1 1 96 0 48 48 0 1 1-96 0zm-304 0c0-17.7-14.3-32-32-32S0 206.3 0 224v96c0 17.7 14.3 32 32 32s32-14.3 32-32v-96zm544-32c-17.7 0-32 14.3-32 32v96c0 17.7 14.3 32 32 32s32-14.3 32-32v-96c0-17.7-14.3-32-32-32z"/></symbol><symbol viewBox="0 0 512 512" id="fas/search.svg" xmlns="http://www.w3.org/2000/svg"><!--! Font Awesome Free 7.0.1 by @fontawesome - https://fontawesome.com License - https://fontawesome.com/license/free (Icons: CC BY 4.0, Fonts: SIL OFL 1.1, Code: MIT License) Copyright 2025 Fonticons, Inc.--><path fill="currentColor" d="M416 208c0 45.9-14.9 88.3-40 122.7l126.6 126.7c12.5 12.5 12.5 32.8 0 45.3s-32.8 12.5-45.3 0L330.7 376c-34.4 25.1-76.8 40-122.7 40C93.1 416 0 322.9 0 208S93.1 0 208 0s208 93.1 208 208zM208 352a144 144 0 1 0 0-288 144 144 0 1 0 0 288z"/></symbol><symbol viewBox="0 0 512 512" id="fas/share.svg" xmlns="http://www.w3.org/2000/svg"><!--! Font Awesome Free 7.0.1 by @fontawesome - https://fontawesome.com License - https://fontawesome.com/license/free (Icons: CC BY 4.0, Fonts: SIL OFL 1.1, Code: MIT License) Copyright 2025 Fonticons, Inc.--><path fill="currentColor" d="M307.8 18.4C295.8 23.4 288 35 288 48v80H176C78.8 128 0 206.8 0 304c0 113.3 81.5 163.9 100.2 174.1 2.5 1.4 5.3 1.9 8.1 1.9 10.9 0 19.7-8.9 19.7-19.7 0-7.5-4.3-14.4-9.8-19.5-9.4-8.8-22.2-26.4-22.2-56.7 0-53 43-96 96-96h96v80c0 12.9 7.8 24.6 19.8 29.6s25.7 2.2 34.9-6.9l160-160c12.5-12.5 12.5-32.8 0-45.3l-160-160c-9.2-9.2-22.9-11.9-34.9-6.9z"/></symbol><symbol viewBox="0 0 576 512" id="fas/star.svg" xmlns="http://www.w3.org/2000/svg"><!--! Font Awesome Free 7.0.1 by @fontawesome - https://fontawesome.com License - https://fontawesome.com/license/free (Icons: CC BY 4.0, Fonts: SIL OFL 1.1, Code: MIT License) Copyright 2025 Fonticons, Inc.--><path fill="currentColor" d="M309.5-18.9c-4.1-8-12.4-13.1-21.4-13.1s-17.3 5.1-21.4 13.1l-73.6 144.2-159.9 25.4c-8.9 1.4-16.3 7.7-19.1 16.3s-.5 18 5.8 24.4l114.4 114.5-25.2 159.9c-1.4 8.9 2.3 17.9 9.6 23.2s16.9 6.1 25 2l144.4-73.4L432.4 491c8 4.1 17.7 3.3 25-2s11-14.2 9.6-23.2l-25.3-159.9 114.4-114.5c6.4-6.4 8.6-15.8 5.8-24.4s-10.1-14.9-19.1-16.3L383 125.3 309.5-18.9z"/></symbol><symbol viewBox="0 0 512 512" id="fas/sync.svg" xmlns="http://www.w3.org/2000/svg"><!--! Font Awesome Free 7.0.1 by @fontawesome - https://fontawesome.com License - https://fontawesome.com/license/free (Icons: CC BY 4.0, Fonts: SIL OFL 1.1, Code: MIT License) Copyright 2025 Fonticons, Inc.--><path fill="currentColor" d="M65.9 228.5C79.2 135.5 159.3 64 256 64c53 0 101 21.5 135.8 56.2l.6.6 7.6 7.2h-47.9c-17.7 0-32 14.3-32 32s14.3 32 32 32h128c17.7 0 32-14.3 32-32V32c0-17.7-14.3-32-32-32s-32 14.3-32 32v53.4l-11.3-10.7C390.5 28.6 326.5 0 256 0 127 0 20.3 95.4 2.6 219.5c-2.5 17.5 9.6 33.7 27.1 36.2s33.7-9.7 36.2-27.1zm443.5 64c2.5-17.5-9.7-33.7-27.1-36.2s-33.7 9.7-36.2 27.1c-13.3 93-93.4 164.5-190.1 164.5-53 0-101-21.5-135.8-56.2l-.6-.6-7.6-7.2h47.9c17.7 0 32-14.3 32-32s-14.3-32-32-32L32 320c-8.5 0-16.7 3.4-22.7 9.5S-.1 343.7 0 352.3l1 127c.1 17.7 14.6 31.9 32.3 31.7s31.9-14.6 31.7-32.3l-.4-51.5 10.7 10.1C121.6 483.4 185.5 512 256 512c129 0 235.7-95.4 253.4-219.5z"/></symbol><symbol viewBox="0 0 576 512" id="fas/tags.svg" xmlns="http://www.w3.org/2000/svg"><!--! Font Awesome Free 7.0.1 by @fontawesome - https://fontawesome.com License - https://fontawesome.com/license/free (Icons: CC BY 4.0, Fonts: SIL OFL 1.1, Code: MIT License) Copyright 2025 Fonticons, Inc.--><path fill="currentColor" d="m401.2 39.1 148.2 150.3c27.7 28.1 27.7 73.1 0 101.2L393 448.9c-9.3 9.4-24.5 9.5-33.9.2s-9.5-24.5-.2-33.9l156.4-158.4c9.2-9.3 9.2-24.4 0-33.7L367 72.9c-9.3-9.4-9.2-24.6.2-33.9s24.6-9.2 33.9.2zM32.1 229.5V96c0-35.3 28.7-64 64-64h133.5c17 0 33.3 6.7 45.3 18.7l144 144c25 25 25 65.5 0 90.5L285.4 418.7c-25 25-65.5 25-90.5 0l-144-144c-12-12-18.7-28.3-18.7-45.3zm144-85.5a32 32 0 1 0-64 0 32 32 0 1 0 64 0z"/></symbol><symbol viewBox="0 0 512 512" id="fas/thumbs-down.svg" xmlns="http://www.w3.org/2000/svg"><!--! Font Awesome Free 7.0.1 by @fontawesome - https://fontawesome.com License - https://fontawesome.com/license/free (Icons: CC BY 4.0, Fonts: SIL OFL 1.1, Code: MIT License) Copyright 2025 Fonticons, Inc.--><path fill="currentColor" d="M384 32c26.5 0 48 21.5 48 48 0 6.3-1.3 12.2-3.4 17.7C449 103.2 464 121.8 464 144c0 9.1-2.6 17.6-7 24.9 22.2 4.2 39 23.7 39 47.1 0 19.7-11.9 36.6-28.9 44 17 7.4 28.9 24.3 28.9 44 0 26.5-21.5 48-48 48H288l28.2 70.4c2.5 6.3 3.8 13.1 3.8 19.9v4.2c0 27.3-22.1 49.4-49.4 49.4-18.7 0-35.8-10.6-44.2-27.3l-56.3-112.3c-6.7-13.3-10.1-28-10.1-42.9V126.8c0-19.4 8.9-37.8 24-50l12.2-9.7C224.6 44.4 259.8 32 296.1 32H384zM80 96c17.7 0 32 14.3 32 32v256c0 17.7-14.3 32-32 32H32c-17.7 0-32-14.3-32-32V128c0-17.7 14.3-32 32-32h48z"/></symbol><symbol viewBox="0 0 512 512" id="fas/thumbs-up.svg" xmlns="http://www.w3.org/2000/svg"><!--! Font Awesome Free 7.0.1 by @fontawesome - https://fontawesome.com License - https://fontawesome.com/license/free (Icons: CC BY 4.0, Fonts: SIL OFL 1.1, Code: MIT License) Copyright 2025 Fonticons, Inc.--><path fill="currentColor" d="M80 160c17.7 0 32 14.3 32 32v256c0 17.7-14.3 32-32 32H32c-17.7 0-32-14.3-32-32V192c0-17.7 14.3-32 32-32h48zM270.6 16c27.3 0 49.4 22.1 49.4 49.4v4.2c0 6.8-1.3 13.6-3.8 19.9L288 160h160c26.5 0 48 21.5 48 48 0 19.7-11.9 36.6-28.9 44 17 7.4 28.9 24.3 28.9 44 0 23.4-16.8 42.9-39 47.1 4.4 7.3 7 15.8 7 24.9 0 22.2-15 40.8-35.4 46.3 2.2 5.5 3.4 11.5 3.4 17.7 0 26.5-21.5 48-48 48h-87.9c-36.3 0-71.6-12.4-99.9-35.1l-12.2-9.7c-15.2-12.1-24-30.5-24-50V198.6c0-14.9 3.5-29.6 10.1-42.9l56.2-112.4c8.4-16.7 25.5-27.3 44.3-27.3z"/></symbol><symbol viewBox="0 0 384 512" id="fas/times.svg" xmlns="http://www.w3.org/2000/svg"><!--! Font Awesome Free 7.0.1 by @fontawesome - https://fontawesome.com License - https://fontawesome.com/license/free (Icons: CC BY 4.0, Fonts: SIL OFL 1.1, Code: MIT License) Copyright 2025 Fonticons, Inc.--><path fill="currentColor" d="M55.1 73.4c-12.5-12.5-32.8-12.5-45.3 0s-12.5 32.8 0 45.3L147.2 256 9.9 393.4c-12.5 12.5-12.5 32.8 0 45.3s32.8 12.5 45.3 0l137.3-137.4 137.4 137.3c12.5 12.5 32.8 12.5 45.3 0s12.5-32.8 0-45.3L237.8 256l137.3-137.4c12.5-12.5 12.5-32.8 0-45.3s-32.8-12.5-45.3 0L192.5 210.7 55.1 73.4z"/></symbol><symbol viewBox="0 0 448 512" id="fas/trash.svg" xmlns="http://www.w3.org/2000/svg"><!--! Font Awesome Free 7.0.1 by @fontawesome - https://fontawesome.com License - https://fontawesome.com/license/free (Icons: CC BY 4.0, Fonts: SIL OFL 1.1, Code: MIT License) Copyright 2025 Fonticons, Inc.--><path fill="currentColor" d="M136.7 5.9 128 32H32C14.3 32 0 46.3 0 64s14.3 32 32 32h384c17.7 0 32-14.3 32-32s-14.3-32-32-32h-96l-8.7-26.1C306.9-7.2 294.7-16 280.9-16H167.1c-13.8 0-26 8.8-30.4 21.9zM416 144H32l21.1 323.1C54.7 492.4 75.7 512 101 512h246c25.3 0 46.3-19.6 47.9-44.9L416 144z"/></symbol><symbol viewBox="0 0 512 512" id="fas/trophy.svg" xmlns="http://www.w3.org/2000/svg"><!--! Font Awesome Free 7.0.1 by @fontawesome - https://fontawesome.com License - https://fontawesome.com/license/free (Icons: CC BY 4.0, Fonts: SIL OFL 1.1, Code: MIT License) Copyright 2025 Fonticons, Inc.--><path fill="currentColor" d="M144.3 0h224c26.5 0 48.1 21.8 47.1 48.2-.2 5.3-.4 10.6-.7 15.8h49.6c26.1 0 49.1 21.6 47.1 49.8-7.5 103.7-60.5 160.7-118 190.5-15.8 8.2-31.9 14.3-47.2 18.8-20.2 28.6-41.2 43.7-57.9 51.8V448h64c17.7 0 32 14.3 32 32s-14.3 32-32 32h-192c-17.7 0-32-14.3-32-32s14.3-32 32-32h64v-73.1c-16-7.7-35.9-22-55.3-48.3-18.4-4.8-38.4-12.1-57.9-23.1C57 273.2 8.2 216.1 1.2 113.6c-1.9-28.1 21-49.7 47.1-49.7h49.6c-.3-5.2-.5-10.4-.7-15.8-1-26.5 20.6-48.2 47.1-48.2zm-42.8 112H49.1c6.2 84.7 45.1 127.1 85.2 149.6-14.4-37.3-26.3-86-32.8-149.6zM380 256.8c40.5-23.8 77.1-66.1 83.3-144.8H411c-6.2 60.9-17.4 108.2-31 144.8z"/></symbol><symbol viewBox="0 0 512 512" id="fas/undo.svg" xmlns="http://www.w3.org/2000/svg"><!--! Font Awesome Free 7.0.1 by @fontawesome - https://fontawesome.com License - https://fontawesome.com/license/free (Icons: CC BY 4.0, Fonts: SIL OFL 1.1, Code: MIT License) Copyright 2025 Fonticons, Inc.--><path fill="currentColor" d="M256 64c-56.8 0-107.9 24.7-143.1 64H160c17.7 0 32 14.3 32 32s-14.3 32-32 32H32c-17.7 0-32-14.3-32-32V32C0 14.3 14.3 0 32 0s32 14.3 32 32v54.7C110.9 33.6 179.5 0 256 0c141.4 0 256 114.6 256 256S397.4 512 256 512c-87 0-163.9-43.4-210.1-109.7-10.1-14.5-6.6-34.4 7.9-44.6s34.4-6.6 44.6 7.9c34.8 49.8 92.4 82.3 157.6 82.3 106 0 192-86 192-192S362 64 256 64z"/></symbol><symbol viewBox="0 0 640 512" id="fas/user-check.svg" xmlns="http://www.w3.org/2000/svg"><!--! Font Awesome Free 7.0.1 by @fontawesome - https://fontawesome.com License - https://fontawesome.com/license/free (Icons: CC BY 4.0, Fonts: SIL OFL 1.1, Code: MIT License) Copyright 2025 Fonticons, Inc.--><path fill="currentColor" d="M286 304c98.5 0 178.3 79.8 178.3 178.3 0 16.4-13.3 29.7-29.7 29.7H78c-16.4 0-29.7-13.3-29.7-29.7 0-98.5 79.8-178.3 178.3-178.3H286zm299.7-198.1c7.8-10.7 22.8-13.1 33.5-5.3s13.1 22.8 5.3 33.5L522.1 274.9c-4.2 5.7-10.7 9.4-17.7 9.8s-14-2.2-18.9-7.3l-46.4-48c-9.2-9.5-9-24.7.6-33.9 9.5-9.2 24.7-8.9 33.9.6l26.5 27.4 85.6-117.7zM256.3 248a120 120 0 1 1 0-240 120 120 0 1 1 0 240z"/></symbol><symbol viewBox="0 0 576 512" id="fas/wrench.svg" xmlns="http://www.w3.org/2000/svg"><!--! Font Awesome Free 7.0.1 by @fontawesome - https://fontawesome.com License - https://fontawesome.com/license/free (Icons: CC BY 4.0, Fonts: SIL OFL 1.1, Code: MIT License) Copyright 2025 Fonticons, Inc.--><path fill="currentColor" d="M509.4 98.6c7.6-7.6 20.3-5.7 24.1 4.3 6.8 17.7 10.5 37 10.5 57.1 0 88.4-71.6 160-160 160-17.5 0-34.4-2.8-50.2-8L146.9 498.9c-28.1 28.1-73.7 28.1-101.8 0s-28.1-73.7 0-101.8L232 210.2c-5.2-15.8-8-32.6-8-50.2C224 71.6 295.6 0 384 0c20.1 0 39.4 3.7 57.1 10.5 10 3.8 11.8 16.5 4.3 24.1l-88.7 88.7c-3 3-4.7 7.1-4.7 11.3V176c0 8.8 7.2 16 16 16h41.4c4.2 0 8.3-1.7 11.3-4.7l88.7-88.7z"/></symbol><symbol viewBox="0 -960 960 960" id="ma4o/activity-zone.svg" xmlns="http://www.w3.org/2000/svg"><path d="M200-80q-50 0-85-35t-35-85q0-42 25.5-74t64.5-42v-328q-39-10-64.5-42T80-760q0-50 35-85t85-35q42 0 74 25.5t42 64.5h328q10-39 42.01-64.5T760-880q50 0 85 35t35 85q0 41.98-25.5 73.99T790-644v328q39 10 64.5 42t25.5 74q0 50-35 85t-85 35q-42 0-74-25.5T644-170H316q-10 39-42 64.5T200-80Zm0-620q25.5 0 42.75-17.25T260-760q0-25.5-17.25-42.75T200-820q-25.5 0-42.75 17.25T140-760q0 25.5 17.25 42.75T200-700Zm560 0q25.5 0 42.75-17.25T820-760q0-25.5-17.25-42.75T760-820q-25.5 0-42.75 17.25T700-760q0 25.5 17.25 42.75T760-700ZM316-230h328q8-32 31-55t55-31v-328q-32-8-55-31t-31-55H316q-8 32-31 55t-55 31v328q32 8 55 31t31 55Zm444 90q25.5 0 42.75-17.25T820-200q0-25.5-17.25-42.75T760-260q-25.5 0-42.75 17.25T700-200q0 25.5 17.25 42.75T760-140Zm-560 0q25.5 0 42.75-17.25T260-200q0-25.5-17.25-42.75T200-260q-25.5 0-42.75 17.25T140-200q0 25.5 17.25 42.75T200-140Zm0-620Zm560 0Zm0 560Zm-560 0Z"/></symbol><symbol viewBox="0 -960 960 960" id="ma4o/arrow-drop-down.svg" xmlns="http://www.w3.org/2000/svg"><path d="M480-360 280-559h400L480-360Z"/></symbol><symbol viewBox="0 -960 960 960" id="ma4o/delete.svg" xmlns="http://www.w3.org/2000/svg"><path d="M261-120q-24.75 0-42.37-17.63Q201-155.25 201-180v-570h-41v-60h188v-30h264v30h188v60h-41v570q0 24-18 42t-42 18H261Zm438-630H261v570h438v-570ZM367-266h60v-399h-60v399Zm166 0h60v-399h-60v399ZM261-750v570-570Z"/></symbol><symbol viewBox="0 -960 960 960" id="ma4o/download.svg" xmlns="http://www.w3.org/2000/svg"><path d="M480-313 287-506l43-43 120 120v-371h60v371l120-120 43 43-193 193ZM220-160q-24 0-42-18t-18-42v-143h60v143h520v-143h60v143q0 24-18 42t-42 18H220Z"/></symbol><symbol viewBox="0 -960 960 960" id="ma4o/fullscreen-exit.svg" xmlns="http://www.w3.org/2000/svg"><path d="M253-120v-133H120v-60h193v193h-60Zm394 0v-193h193v60H707v133h-60ZM120-647v-60h133v-133h60v193H120Zm527 0v-193h60v133h133v60H647Z"/></symbol><symbol viewBox="0 -960 960 960" id="ma4o/fullscreen.svg" xmlns="http://www.w3.org/2000/svg"><path d="M120-120v-193h60v133h133v60H120Zm527 0v-60h133v-133h60v193H647ZM120-647v-193h193v60H180v133h-60Zm660 0v-133H647v-60h193v193h-60Z"/></symbol><symbol viewBox="0 -960 960 960" id="ma4o/menu.svg" xmlns="http://www.w3.org/2000/svg"><path d="M120-240v-60h720v60H120Zm0-210v-60h720v60H120Zm0-210v-60h720v60H120Z"/></symbol><symbol viewBox="0 -960 960 960" id="ma4o/network-intelligence.svg" xmlns="http://www.w3.org/2000/svg"><path d="M317-160q-8 0-15-4t-11-11l-84-150h71l42 80h90v-30h-72l-42-80H191l-63-110q-2-4-3-7.5t-1-7.5q0-2 4-15l63-110h105l42-80h72v-30h-90l-42 80h-71l84-150q4-7 11-11t15-4h118q13 0 21.5 8.5T465-770v175h-85l-30 30h115v130h-98l-39-80h-98l-30 30h108l40 80h117v215q0 13-8.5 21.5T435-160H317Zm208 0q-13 0-21.5-8.5T495-190v-215h117l40-80h108l-30-30h-98l-39 80h-98v-130h115l-30-30h-85v-175q0-13 8.5-21.5T525-800h118q8 0 15 4t11 11l84 150h-71l-42-80h-90v30h72l42 80h105l63 110q2 4 3 7.5t1 7.5q0 2-4 15l-63 110H664l-42 80h-72v30h90l42-80h71l-84 150q-4 7-11 11t-15 4H525Z"/></symbol><symbol viewBox="0 -960 960 960" id="ma7r/close.svg" xmlns="http://www.w3.org/2000/svg"><path d="M480-414 282-216q-14 14-33 14t-33-14q-14-14-14-33t14-33l198-198-198-198q-14-14-14-33t14-33q14-14 33-14t33 14l198 198 198-198q14-14 33-14t33 14q14 14 14 33t-14 33L546-480l198 198q14 14 14 33t-14 33q-14 14-33 14t-33-14L480-414Z"/></symbol><symbol viewBox="0 -960 960 960" id="ma7r/hide.svg" xmlns="http://www.w3.org/2000/svg"><path d="M359-292 195-129q-14 14-33 13.5t-33-14.34q-14-13.84-14-33T129-196l163-163h-62q-19.75 0-33.37-13.68Q183-386.35 183-406.18q0-19.82 13.63-33.32Q210.25-453 230-453h176q19.75 0 33.38 13.62Q453-425.75 453-406v176q0 19.75-13.68 33.37Q425.65-183 405.82-183q-19.82 0-33.32-13.63Q359-210.25 359-230v-62Zm310-310h62q19.75 0 33.38 13.68Q778-574.65 778-554.82q0 19.82-13.62 33.32Q750.75-508 731-508H555q-19.75 0-33.37-13.63Q508-535.25 508-555v-176q0-19.75 13.68-33.38Q535.35-778 555.18-778q19.82 0 33.32 13.62Q602-750.75 602-731v62l163-162q14-14 33.5-14t33.5 13.84q14 13.84 14 33T832-765L669-602Z"/></symbol><symbol viewBox="0 -960 960 960" id="ma7r/keyboard-arrow-left.svg" xmlns="http://www.w3.org/2000/svg"><path d="m430-481 165 165q14 14 13.5 33T594-250q-14 14-33.5 14T527-250L330-447q-7-7-11-16t-4-18q0-9 4-18t11-16l198-198q14-14 33.5-14t33.5 14q14 14 14 33.5T595-646L430-481Z"/></symbol><symbol viewBox="0 -960 960 960" id="ma7r/keyboard-arrow-right.svg" xmlns="http://www.w3.org/2000/svg"><path d="M506-481 341-646q-14-14-13.5-33t14.5-33q14-14 33.5-14t33.5 14l197 197q7 7 11 16t4 18q0 9-4 18t-11 16L408-249q-14 14-33 13.5T342-250q-14-14-14-33.5t14-33.5l164-164Z"/></symbol><symbol viewBox="0 -960 960 960" id="ma7r/keyboard-double-arrow-left.svg" xmlns="http://www.w3.org/2000/svg"><path d="m316-481 166 165q14 14 13.5 33T482-250q-15 14-33.5 14T416-250L218-447q-7-7-11-16t-4-18q0-9 4-18t11-16l198-197q14-14 33-14t33 14q14 14 14 33t-14 33L316-481Zm263 0 165 165q14 14 13.5 33T744-250q-15 14-33.5 14T678-250L480-447q-7-7-11-16t-4-18q0-9 4-18t11-16l198-197q14-14 33-14t33 14q14 14 14 33t-14 33L579-481Z"/></symbol><symbol viewBox="0 -960 960 960" id="ma7r/keyboard-double-arrow-right.svg" xmlns="http://www.w3.org/2000/svg"><path d="M383-481 218-646q-15-14-14.5-33t14.5-33q14-14 32.5-14t33.5 14l197 197q7 7 11 16t4 18q0 9-4 18t-11 16L284-250q-15 14-34 14t-32-14q-15-14-15-33t15-33l165-165Zm262 0L480-646q-15-14-14.5-33t14.5-33q14-14 32.5-14t33.5 14l197 197q7 7 11 16t4 18q0 9-4 18t-11 16L546-250q-15 14-34 14t-32-14q-15-14-15-33t15-33l165-165Z"/></symbol></svg>