<?xml version="1.0" encoding="utf-8"?><svg xmlns="http://www.w3.org/2000/svg" xmlns:xlink="http://www.w3.org/1999/xlink"><symbol viewBox="0 0 31 29" id="cu/credits.svg" xmlns="http://www.w3.org/2000/svg"><path d="M25.3 12.6c0-1.67-2.92-2.56-5.66-2.56h-.3c-.65-1.1-2.81-1.84-5.45-1.84s-5.66.9-5.66 2.57v2.17a2.23 2.23 0 0 0 1.36 1.57c-1.81.36-3.27 1.15-3.27 2.33V17a.24.24 0 0 0 0 .08V19c.18 1.59 3 2.42 5.66 2.42s5.53-.87 5.65-2.46a13 13 0 0 0 2 .16c2.74 0 5.66-.9 5.66-2.57v-1.47c0-.06-.11-.06-.13-.11a.56.56 0 0 0 .13-.34Zm-1 2c0 .63-1.82 1.56-4.66 1.56a11.11 11.11 0 0 1-2.29-.16A4.41 4.41 0 0 0 15 14.64v-.54a9.21 9.21 0 0 0 4.66 1.06 9.39 9.39 0 0 0 4.64-1.06ZM9.23 12.87v-.6a9.24 9.24 0 0 0 4.66 1.06h.08v1.06h-1.26c-2.1-.3-3.42-1.01-3.48-1.52ZM12 20.43c-2.79 0-4.59-.89-4.66-1.49v-.6A9.21 9.21 0 0 0 12 19.4a9.29 9.29 0 0 0 4.66-1.07v.53c-.01.64-1.83 1.57-4.66 1.57Zm7.65-2.3A12.19 12.19 0 0 1 17.7 18h-.05v-.95a13 13 0 0 0 2 .17 9.29 9.29 0 0 0 4.66-1.07v.44c-.01.61-1.83 1.54-4.67 1.54Z"/></symbol><symbol id="cu/go-board-list.svg" viewBox="0 0 31 29" xmlns="http://www.w3.org/2000/svg"><defs><style>.bcls-1{fill:#1d1d1b}</style></defs><path class="bcls-1" d="M22.62 11.83h7.58a.46.46 0 1 0 0-.91h-7.58a.46.46 0 1 0 0 .91ZM30.2 14.34h-7.58a.46.46 0 1 0 0 .92h7.58a.46.46 0 1 0 0-.92ZM30.2 17.76h-7.58a.46.46 0 0 0 0 .92h7.58a.46.46 0 1 0 0-.92ZM13.1 9.52a1.19 1.19 0 1 0 1.19 1.19 1.19 1.19 0 0 0-1.19-1.19Z"/><path class="bcls-1" d="M17.14 6H1.62A1.08 1.08 0 0 0 .54 7.06v15.51a1.08 1.08 0 0 0 1.08 1.08h15.52a1.07 1.07 0 0 0 1.07-1.08V7.06A1.07 1.07 0 0 0 17.14 6ZM4.83 16.91a2 2 0 1 1 2-2 2 2 0 0 1-2 2Zm4.14 0a2 2 0 1 1 2-2 2 2 0 0 1-1.97 2ZM9 12.7a2 2 0 1 1 2-2 2 2 0 0 1-2 2Zm4.13 8.43a2 2 0 1 1 2-2 2 2 0 0 1-2.03 2Zm0-8.43a2 2 0 1 1 2-2 2 2 0 0 1-2.03 2Z"/><path class="bcls-1" d="M9 9.52a1.19 1.19 0 1 0 1.18 1.19A1.19 1.19 0 0 0 9 9.52Z"/></symbol><symbol viewBox="0 0 512 512" id="fa/puzzle-piece.svg" xmlns="http://www.w3.org/2000/svg"><!--! Font Awesome Free 7.0.1 by @fontawesome - https://fontawesome.com License - https://fontawesome.com/license/free (Icons: CC BY 4.0, Fonts: SIL OFL 1.1, Code: MIT License) Copyright 2025 Fonticons, Inc.--><path fill="currentColor" d="M224 0c35.3 0 64 21.5 64 48 0 10.4-4.4 20-12 27.9-6.6 6.9-12 15.3-12 24.9 0 15 12.2 27.2 27.2 27.2H336c26.5 0 48 21.5 48 48v44.8c0 15 12.2 27.2 27.2 27.2 9.5 0 18-5.4 24.9-12 7.9-7.5 17.5-12 27.9-12 26.5 0 48 28.7 48 64s-21.5 64-48 64c-10.4 0-20.1-4.4-27.9-12-6.9-6.6-15.3-12-24.9-12-15 0-27.2 12.2-27.2 27.2V464c0 26.5-21.5 48-48 48h-56.8c-12.8 0-23.2-10.4-23.2-23.2 0-9.2 5.8-17.3 13.2-22.8 11.6-8.7 18.8-20.7 18.8-34 0-26.5-28.7-48-64-48s-64 21.5-64 48c0 13.3 7.2 25.3 18.8 34 7.4 5.5 13.2 13.5 13.2 22.8 0 12.8-10.4 23.2-23.2 23.2H48c-26.5 0-48-21.5-48-48V343.2C0 330.4 10.4 320 23.2 320c9.2 0 17.3 5.8 22.8 13.2 8.7 11.6 20.7 18.8 34 18.8 26.5 0 48-28.7 48-64s-21.5-64-48-64c-13.3 0-25.3 7.2-34 18.8-5.5 7.4-13.5 13.2-22.8 13.2C10.4 256 0 245.6 0 232.8V176c0-26.5 21.5-48 48-48h108.8c15 0 27.2-12.2 27.2-27.2 0-9.5-5.4-18-12-24.9-7.5-7.9-12-17.5-12-27.9 0-26.5 28.7-48 64-48z"/></symbol><symbol viewBox="0 0 640 512" id="fa/robot.svg" xmlns="http://www.w3.org/2000/svg"><!--! Font Awesome Free 7.0.1 by @fontawesome - https://fontawesome.com License - https://fontawesome.com/license/free (Icons: CC BY 4.0, Fonts: SIL OFL 1.1, Code: MIT License) Copyright 2025 Fonticons, Inc.--><path fill="currentColor" d="M352 0c0-17.7-14.3-32-32-32s-32 14.3-32 32v64h-96c-53 0-96 43-96 96v224c0 53 43 96 96 96h256c53 0 96-43 96-96V160c0-53-43-96-96-96h-96V0zM160 368c0-13.3 10.7-24 24-24h32c13.3 0 24 10.7 24 24s-10.7 24-24 24h-32c-13.3 0-24-10.7-24-24zm120 0c0-13.3 10.7-24 24-24h32c13.3 0 24 10.7 24 24s-10.7 24-24 24h-32c-13.3 0-24-10.7-24-24zm120 0c0-13.3 10.7-24 24-24h32c13.3 0 24 10.7 24 24s-10.7 24-24 24h-32c-13.3 0-24-10.7-24-24zM224 176a48 48 0 1 1 0 96 48 48 0 1 1 0-96zm144 48a48 48 0 1 1 96 0 48 48 0 1 1-96 0zm-304 0c0-17.7-14.3-32-32-32S0 206.3 0 224v96c0 17.7 14.3 32 32 32s32-14.3 32-32v-96zm544-32c-17.7 0-32 14.3-32 32v96c0 17.7 14.3 32 32 32s32-14.3 32-32v-96c0-17.7-14.3-32-32-32z"/></symbol><symbol viewBox="0 -960 960 960" id="ma/edit.svg" xmlns="http://www.w3.org/2000/svg"><path d="M180-180h44l472-471-44-44-472 471v44Zm-60 60v-128l575-574q8-8 19-12.5t23-4.5q11 0 22 4.5t20 12.5l44 44q9 9 13 20t4 22q0 11-4.5 22.5T823-694L248-120H120Zm659-617-41-41 41 41Zm-105 64-22-22 44 44-22-22Z"/></symbol><symbol viewBox="0 -960 960 960" id="ma/menu.svg" xmlns="http://www.w3.org/2000/svg"><path d="M120-240v-60h720v60H120Zm0-210v-60h720v60H120Zm0-210v-60h720v60H120Z"/></symbol></svg>