<svg viewBox="-10 -10 300 300" width="64px" height="64px"><g><polygon points="44,44 44,226 226,226 226,44" style="fill: lightgrey; stroke: black; stroke-width: 6; stroke-linejoin: miter;"></polygon><g><line x1="42" x2="226" y1="100" y2="100" style="stroke: black; stroke-width: 4;"></line><line x1="98" x2="100" y1="44" y2="226" style="stroke: black; stroke-width: 4;"></line></g><g><line x1="42" x2="226" y1="170" y2="170" style="stroke: black; stroke-width: 4;"></line><line x1="168" x2="170" y1="44" y2="226" style="stroke: black; stroke-width: 4;"></line></g><circle cx="100" cy="170" r="35.6" fill="black" stroke="black" stroke-width="4"></circle><circle cx="170" cy="100" r="35.6" fill="white" stroke="black" stroke-width="4"></circle><g transform="rotate(0 135 135)"><line x1="63.5" x2="65" y1="44" y2="2.0000000000000036" style="stroke: black; stroke-width: 3;"></line><circle cx="65" cy="2.0000000000000036" r="6" fill="black" stroke="black" stroke-width="0.5"></circle></g><g transform="rotate(0 135 135)"><line x1="91.5" x2="93" y1="44" y2="2.0000000000000036" style="stroke: black; stroke-width: 3;"></line><circle cx="93" cy="2.0000000000000036" r="6" fill="black" stroke="black" stroke-width="0.5"></circle></g><g transform="rotate(0 135 135)"><line x1="119.49999999999999" x2="120.99999999999999" y1="44" y2="2.0000000000000036" style="stroke: black; stroke-width: 3;"></line><circle cx="120.99999999999999" cy="2.0000000000000036" r="6" fill="black" stroke="black" stroke-width="0.5"></circle></g><g transform="rotate(0 135 135)"><line x1="147.5" x2="149" y1="44" y2="2.0000000000000036" style="stroke: black; stroke-width: 3;"></line><circle cx="149" cy="2.0000000000000036" r="6" fill="black" stroke="black" stroke-width="0.5"></circle></g><g transform="rotate(0 135 135)"><line x1="175.49999999999997" x2="176.99999999999997" y1="44" y2="2.0000000000000036" style="stroke: black; stroke-width: 3;"></line><circle cx="176.99999999999997" cy="2.0000000000000036" r="6" fill="black" stroke="black" stroke-width="0.5"></circle></g><g transform="rotate(0 135 135)"><line x1="203.49999999999997" x2="204.99999999999997" y1="44" y2="2.0000000000000036" style="stroke: black; stroke-width: 3;"></line><circle cx="204.99999999999997" cy="2.0000000000000036" r="6" fill="black" stroke="black" stroke-width="0.5"></circle></g><g transform="rotate(90 135 135)"><line x1="63.5" x2="65" y1="44" y2="2.0000000000000036" style="stroke: black; stroke-width: 3;"></line><circle cx="65" cy="2.0000000000000036" r="6" fill="black" stroke="black" stroke-width="0.5"></circle></g><g transform="rotate(90 135 135)"><line x1="91.5" x2="93" y1="44" y2="2.0000000000000036" style="stroke: black; stroke-width: 3;"></line><circle cx="93" cy="2.0000000000000036" r="6" fill="black" stroke="black" stroke-width="0.5"></circle></g><g transform="rotate(90 135 135)"><line x1="119.49999999999999" x2="120.99999999999999" y1="44" y2="2.0000000000000036" style="stroke: black; stroke-width: 3;"></line><circle cx="120.99999999999999" cy="2.0000000000000036" r="6" fill="black" stroke="black" stroke-width="0.5"></circle></g><g transform="rotate(90 135 135)"><line x1="147.5" x2="149" y1="44" y2="2.0000000000000036" style="stroke: black; stroke-width: 3;"></line><circle cx="149" cy="2.0000000000000036" r="6" fill="black" stroke="black" stroke-width="0.5"></circle></g><g transform="rotate(90 135 135)"><line x1="175.49999999999997" x2="176.99999999999997" y1="44" y2="2.0000000000000036" style="stroke: black; stroke-width: 3;"></line><circle cx="176.99999999999997" cy="2.0000000000000036" r="6" fill="black" stroke="black" stroke-width="0.5"></circle></g><g transform="rotate(90 135 135)"><line x1="203.49999999999997" x2="204.99999999999997" y1="44" y2="2.0000000000000036" style="stroke: black; stroke-width: 3;"></line><circle cx="204.99999999999997" cy="2.0000000000000036" r="6" fill="black" stroke="black" stroke-width="0.5"></circle></g><g transform="rotate(180 135 135)"><line x1="63.5" x2="65" y1="44" y2="2.0000000000000036" style="stroke: black; stroke-width: 3;"></line><circle cx="65" cy="2.0000000000000036" r="6" fill="black" stroke="black" stroke-width="0.5"></circle></g><g transform="rotate(180 135 135)"><line x1="91.5" x2="93" y1="44" y2="2.0000000000000036" style="stroke: black; stroke-width: 3;"></line><circle cx="93" cy="2.0000000000000036" r="6" fill="black" stroke="black" stroke-width="0.5"></circle></g><g transform="rotate(180 135 135)"><line x1="119.49999999999999" x2="120.99999999999999" y1="44" y2="2.0000000000000036" style="stroke: black; stroke-width: 3;"></line><circle cx="120.99999999999999" cy="2.0000000000000036" r="6" fill="black" stroke="black" stroke-width="0.5"></circle></g><g transform="rotate(180 135 135)"><line x1="147.5" x2="149" y1="44" y2="2.0000000000000036" style="stroke: black; stroke-width: 3;"></line><circle cx="149" cy="2.0000000000000036" r="6" fill="black" stroke="black" stroke-width="0.5"></circle></g><g transform="rotate(180 135 135)"><line x1="175.49999999999997" x2="176.99999999999997" y1="44" y2="2.0000000000000036" style="stroke: black; stroke-width: 3;"></line><circle cx="176.99999999999997" cy="2.0000000000000036" r="6" fill="black" stroke="black" stroke-width="0.5"></circle></g><g transform="rotate(180 135 135)"><line x1="203.49999999999997" x2="204.99999999999997" y1="44" y2="2.0000000000000036" style="stroke: black; stroke-width: 3;"></line><circle cx="204.99999999999997" cy="2.0000000000000036" r="6" fill="black" stroke="black" stroke-width="0.5"></circle></g><g transform="rotate(270 135 135)"><line x1="63.5" x2="65" y1="44" y2="2.0000000000000036" style="stroke: black; stroke-width: 3;"></line><circle cx="65" cy="2.0000000000000036" r="6" fill="black" stroke="black" stroke-width="0.5"></circle></g><g transform="rotate(270 135 135)"><line x1="91.5" x2="93" y1="44" y2="2.0000000000000036" style="stroke: black; stroke-width: 3;"></line><circle cx="93" cy="2.0000000000000036" r="6" fill="black" stroke="black" stroke-width="0.5"></circle></g><g transform="rotate(270 135 135)"><line x1="119.49999999999999" x2="120.99999999999999" y1="44" y2="2.0000000000000036" style="stroke: black; stroke-width: 3;"></line><circle cx="120.99999999999999" cy="2.0000000000000036" r="6" fill="black" stroke="black" stroke-width="0.5"></circle></g><g transform="rotate(270 135 135)"><line x1="147.5" x2="149" y1="44" y2="2.0000000000000036" style="stroke: black; stroke-width: 3;"></line><circle cx="149" cy="2.0000000000000036" r="6" fill="black" stroke="black" stroke-width="0.5"></circle></g><g transform="rotate(270 135 135)"><line x1="175.49999999999997" x2="176.99999999999997" y1="44" y2="2.0000000000000036" style="stroke: black; stroke-width: 3;"></line><circle cx="176.99999999999997" cy="2.0000000000000036" r="6" fill="black" stroke="black" stroke-width="0.5"></circle></g><g transform="rotate(270 135 135)"><line x1="203.49999999999997" x2="204.99999999999997" y1="44" y2="2.0000000000000036" style="stroke: black; stroke-width: 3;"></line><circle cx="204.99999999999997" cy="2.0000000000000036" r="6" fill="black" stroke="black" stroke-width="0.5"></circle></g></g></svg>
