<?xml version="1.0" encoding="UTF-8" standalone="no"?>
<svg
   xmlns:dc="http://purl.org/dc/elements/1.1/"
   xmlns:cc="http://creativecommons.org/ns#"
   xmlns:rdf="http://www.w3.org/1999/02/22-rdf-syntax-ns#"
   xmlns:svg="http://www.w3.org/2000/svg"
   xmlns="http://www.w3.org/2000/svg"
   xmlns:xlink="http://www.w3.org/1999/xlink"
   xmlns:sodipodi="http://sodipodi.sourceforge.net/DTD/sodipodi-0.dtd"
   xmlns:inkscape="http://www.inkscape.org/namespaces/inkscape"
   id="fff9f263-cd70-43b6-9a23-456462f69b65"
   data-name="Ebene 1"
   viewBox="0 0 841.89 595.28"
   version="1.1"
   sodipodi:docname="ai_sensei_Logo_black_font.svg"
   inkscape:version="1.0.1 (3bc2e813f5, 2020-09-07)">
  <metadata
     id="metadata334">
    <rdf:RDF>
      <cc:Work
         rdf:about="">
        <dc:format>image/svg+xml</dc:format>
        <dc:type
           rdf:resource="http://purl.org/dc/dcmitype/StillImage" />
      </cc:Work>
    </rdf:RDF>
  </metadata>
  <sodipodi:namedview
     pagecolor="#ffffff"
     bordercolor="#666666"
     borderopacity="1"
     objecttolerance="10"
     gridtolerance="10"
     guidetolerance="10"
     inkscape:pageopacity="0"
     inkscape:pageshadow="2"
     inkscape:window-width="1920"
     inkscape:window-height="1017"
     id="namedview332"
     showgrid="false"
     inkscape:zoom="1.3624108"
     inkscape:cx="420.945"
     inkscape:cy="297.64"
     inkscape:window-x="-8"
     inkscape:window-y="-8"
     inkscape:window-maximized="1"
     inkscape:current-layer="fff9f263-cd70-43b6-9a23-456462f69b65" />
  <defs
     id="defs261">
    <style
       id="style173">.fd63ea95-7180-4d74-a3f0-fb1dec7a5897{fill:none;}.e43154f0-87df-487a-b6f4-8dcc883cef9e{fill:url(#a073eaf1-a2cc-4145-9fcf-d92bc906597f);}.fc39ccb2-bdd5-45e6-b0cd-0bd060f35bd4{fill:url(#b504f3c8-4738-4a63-a010-1d72679371bb);}.b6aa6b72-1429-42bf-a39b-5305575d835c{fill:#fff;}.aa6c644b-2d3a-4aa7-be01-99f0d148aecc{fill:url(#e07eba04-22dc-4441-bbd8-abb0f5d9c39b);}.b153d295-4f67-467b-9113-8f55a56a2a36{fill:url(#ac4d8423-7a26-43e4-80c3-ccd64207f446);}.b502b20e-3fa9-4ee1-917c-bdf90a934f88{fill:url(#ff6ae475-cbd6-462b-8763-bb7d042b39f4);}.b440668a-0db4-4fcf-af19-ee254ac33c05,.f7778af6-8fcd-4213-82bb-3ca6481409f1{fill:#1d1d1b;}.eafe62e1-4815-42aa-b88b-99baa13615af{clip-path:url(#b1a0532c-d25c-45b5-bcb5-4099f025ab9c);}.ac20ee0c-321e-4cfd-9ded-e1cd4780c914{fill:url(#eb82798f-7317-4a28-bbda-ebee929c807b);}.fd73d010-8a3b-4cdb-bf7a-1e2098b81031{clip-path:url(#ac17b5d8-ca3f-4028-b951-355bf2b00ffe);}.af9ebf50-2e62-49d3-89d8-8fed39253edb{fill:url(#b01a1637-0c6c-48c6-a4d2-3f8a2b10b359);}.a6bb5c01-c253-4a50-a2f9-b5032aa3af7d{fill:url(#a91180f4-ffab-4d53-8371-f3dd2eb82979);}.b33b7181-c5f8-4436-80d6-650e13068cd1{fill:url(#b6da49b9-40d5-4ae8-bead-31b78ab8e871);}.acc4975f-913b-439c-8e9e-6dd8524e074f{fill:url(#b733d578-785f-4436-92c6-d33c5f75373a);}.e129c2c5-5e1b-4f43-8efc-f52c12c07ef6{fill:url(#af9a29c3-b3d7-4221-bdd7-af5f8c3feacd);}.b6be94a1-c99f-40a9-b28c-1f03cf30ffb8{fill:url(#afb0cffb-e531-4a10-a922-02985bd62074);}.a8e45d24-9606-4ba2-b219-b7cff26e40ec{fill:#36a9e1;}.b9f51dd2-9c24-4870-9ea2-6395a0ba034d{fill:url(#b6b385ed-e488-44fb-adb8-c185fe3c1fdd);}.e3a09d28-2064-4d64-aff9-99297e087291{fill:url(#ac9d37a3-37cd-4760-8b1e-e52ba5338df2);}.b3070284-b0af-42e7-b0a4-a24f60ed6f5c{fill:url(#b3a22704-36df-4bd6-9400-514d5173420f);}.f2b930ca-3f1c-492c-a2a4-cbdc32df670b{fill:#878787;}.eb8e2621-6600-45d9-a4af-3cc528263b0f{fill:url(#bd9280ce-3590-4d54-861e-58b50bf698e7);}.b440668a-0db4-4fcf-af19-ee254ac33c05{font-size:74.19px;font-family:DIN-Bold, DIN;font-weight:700;}</style>
    <linearGradient
       id="a073eaf1-a2cc-4145-9fcf-d92bc906597f"
       x1="287.51"
       y1="280.14"
       x2="409.38"
       y2="280.14"
       gradientUnits="userSpaceOnUse">
      <stop
         offset="0"
         id="stop175" />
      <stop
         offset="1"
         stop-color="#fff"
         id="stop177" />
    </linearGradient>
    <linearGradient
       id="b504f3c8-4738-4a63-a010-1d72679371bb"
       x1="286.81"
       y1="280.14"
       x2="410.08"
       y2="280.14"
       gradientUnits="userSpaceOnUse">
      <stop
         offset="0"
         stop-color="#1d1d1b"
         id="stop180" />
      <stop
         offset="1"
         stop-color="#fff"
         id="stop182" />
    </linearGradient>
    <linearGradient
       id="e07eba04-22dc-4441-bbd8-abb0f5d9c39b"
       x1="372.08"
       y1="229.88"
       x2="399.18"
       y2="229.88"
       gradientUnits="userSpaceOnUse">
      <stop
         offset="0"
         stop-color="#36a9e1"
         id="stop185" />
      <stop
         offset="0.41"
         stop-color="#227cc0"
         id="stop187" />
      <stop
         offset="0.51"
         stop-color="#1d71b8"
         id="stop189" />
      <stop
         offset="0.61"
         stop-color="#1f6bb3"
         id="stop191" />
      <stop
         offset="0.75"
         stop-color="#2359a5"
         id="stop193" />
      <stop
         offset="0.91"
         stop-color="#2a3c8e"
         id="stop195" />
      <stop
         offset="0.97"
         stop-color="#2d2e83"
         id="stop197" />
    </linearGradient>
    <radialGradient
       id="ac4d8423-7a26-43e4-80c3-ccd64207f446"
       cx="393.43"
       cy="239"
       r="18.66"
       gradientUnits="userSpaceOnUse">
      <stop
         offset="0"
         stop-color="#fff"
         id="stop200" />
      <stop
         offset="0.32"
         stop-color="#fcfcfc"
         id="stop202" />
      <stop
         offset="0.56"
         stop-color="#f3f3f3"
         id="stop204" />
      <stop
         offset="0.76"
         stop-color="#e3e3e3"
         id="stop206" />
      <stop
         offset="0.96"
         stop-color="#ccc"
         id="stop208" />
      <stop
         offset="1"
         stop-color="#c6c6c6"
         id="stop210" />
    </radialGradient>
    <radialGradient
       id="ff6ae475-cbd6-462b-8763-bb7d042b39f4"
       cx="393.85"
       cy="249.14"
       r="9.88"
       xlink:href="#ac4d8423-7a26-43e4-80c3-ccd64207f446" />
    <clipPath
       id="b1a0532c-d25c-45b5-bcb5-4099f025ab9c">
      <path
         class="fd63ea95-7180-4d74-a3f0-fb1dec7a5897"
         d="M348.49,369.1c-21.45,0-57.83-42.7-57.83-74.54a57.65,57.65,0,0,1,115.3,0C406,326.42,370,369.1,348.49,369.1Z"
         id="path214" />
    </clipPath>
    <radialGradient
       id="eb82798f-7317-4a28-bbda-ebee929c807b"
       cx="335.89"
       cy="301.76"
       r="68.7"
       xlink:href="#ac4d8423-7a26-43e4-80c3-ccd64207f446" />
    <clipPath
       id="ac17b5d8-ca3f-4028-b951-355bf2b00ffe">
      <path
         class="fd63ea95-7180-4d74-a3f0-fb1dec7a5897"
         d="M377.66,352.23c-5.22,4.92-17.19,16.85-28.61,16.85-20.36,0-45.6-30.82-54.12-53.71-4.76-12.75-6.29-25-1.63-38.26,4.23-12.06,11.33-22.57,22.43-30.1,3-2.06,27.5-22.75,32.58,22.33-4.72.91-6.69,3.93-6.55,6s3.22,5.35,7.41,6.41c.11,3.62.14,7.54.06,11.77-.61,34.71-2.4,51.73,4.62,60s18.24,2.2,22.93-.94m29.16-55"
         id="path218" />
    </clipPath>
    <radialGradient
       id="b01a1637-0c6c-48c6-a4d2-3f8a2b10b359"
       cx="356.52"
       cy="299.44"
       r="68.25"
       gradientUnits="userSpaceOnUse">
      <stop
         offset="0"
         stop-color="#706f6f"
         id="stop221" />
      <stop
         offset="0.27"
         stop-color="#6d6c6c"
         id="stop223" />
      <stop
         offset="0.48"
         stop-color="#646363"
         id="stop225" />
      <stop
         offset="0.66"
         stop-color="#545353"
         id="stop227" />
      <stop
         offset="0.82"
         stop-color="#3e3d3c"
         id="stop229" />
      <stop
         offset="0.98"
         stop-color="#21211f"
         id="stop231" />
      <stop
         offset="1"
         stop-color="#1d1d1b"
         id="stop233" />
    </radialGradient>
    <linearGradient
       id="a91180f4-ffab-4d53-8371-f3dd2eb82979"
       x1="1847.21"
       y1="229.88"
       x2="1874.31"
       y2="229.88"
       gradientTransform="matrix(-1, 0, 0, 1, 2172.01, 0)"
       xlink:href="#e07eba04-22dc-4441-bbd8-abb0f5d9c39b" />
    <radialGradient
       id="b6da49b9-40d5-4ae8-bead-31b78ab8e871"
       cx="303.45"
       cy="239"
       r="18.66"
       xlink:href="#b01a1637-0c6c-48c6-a4d2-3f8a2b10b359" />
    <radialGradient
       id="b733d578-785f-4436-92c6-d33c5f75373a"
       cx="303.03"
       cy="249.14"
       r="9.88"
       xlink:href="#b01a1637-0c6c-48c6-a4d2-3f8a2b10b359" />
    <linearGradient
       id="af9a29c3-b3d7-4221-bdd7-af5f8c3feacd"
       x1="363.89"
       y1="318.65"
       x2="404.3"
       y2="280.07"
       xlink:href="#e07eba04-22dc-4441-bbd8-abb0f5d9c39b" />
    <linearGradient
       id="afb0cffb-e531-4a10-a922-02985bd62074"
       x1="344.09"
       y1="316.96"
       x2="344.09"
       y2="332.1"
       gradientTransform="translate(28.76 -25.5) rotate(0.06)"
       gradientUnits="userSpaceOnUse">
      <stop
         offset="0"
         stop-color="#1d1d1b"
         id="stop240" />
      <stop
         offset="0.21"
         stop-color="#20201e"
         id="stop242" />
      <stop
         offset="0.38"
         stop-color="#2b2b29"
         id="stop244" />
      <stop
         offset="0.54"
         stop-color="#3c3c3a"
         id="stop246" />
      <stop
         offset="0.7"
         stop-color="#545452"
         id="stop248" />
      <stop
         offset="0.84"
         stop-color="#737372"
         id="stop250" />
      <stop
         offset="0.99"
         stop-color="#999998"
         id="stop252" />
      <stop
         offset="1"
         stop-color="#9d9d9c"
         id="stop254" />
    </linearGradient>
    <linearGradient
       id="b6b385ed-e488-44fb-adb8-c185fe3c1fdd"
       x1="2060.81"
       y1="318.41"
       x2="2101.06"
       y2="279.99"
       gradientTransform="matrix(-1, 0, 0, 1, 2393.6, 0)"
       xlink:href="#e07eba04-22dc-4441-bbd8-abb0f5d9c39b" />
    <linearGradient
       id="ac9d37a3-37cd-4760-8b1e-e52ba5338df2"
       x1="2040.84"
       y1="315.59"
       x2="2040.84"
       y2="330.73"
       gradientTransform="matrix(-1, 0, 0, 1, 2364.84, -25.5)"
       xlink:href="#afb0cffb-e531-4a10-a922-02985bd62074" />
    <linearGradient
       id="b3a22704-36df-4bd6-9400-514d5173420f"
       x1="352.45"
       y1="239.66"
       x2="352.45"
       y2="357.4"
       xlink:href="#e07eba04-22dc-4441-bbd8-abb0f5d9c39b" />
    <linearGradient
       id="bd9280ce-3590-4d54-861e-58b50bf698e7"
       x1="377.79"
       y1="351.48"
       x2="377.79"
       y2="352.22"
       xlink:href="#e07eba04-22dc-4441-bbd8-abb0f5d9c39b" />
  </defs>
  <title
     id="title263">ai_sensei</title>
  <path
     class="e43154f0-87df-487a-b6f4-8dcc883cef9e"
     d="M404,260.69c1.8-8,5.36-15.9,5.36-24.19,0-13.66-7.78-34.32-21-44.49-2.51-1.93-3.24-.21-3.88,2-3.11,11-8.47,23.17-16.83,31.67-2.95,3-11.5,11.21-19.23,11.21h0c-7.72,0-16.27-8.21-19.22-11.21-8.37-8.5-13.72-20.67-16.83-31.67-.64-2.25-1.37-4-3.88-2-13.22,10.17-21,30.83-21,44.49,0,8.29,3.56,16.16,5.36,24.19,1.52,6.82,2,11.7.54,16.68a64.18,64.18,0,0,0-2.62,17.19c0,31.84,36.38,74.54,57.84,74.54s57.46-42.68,57.46-74.52a55.7,55.7,0,0,0-2.57-17.08C401.87,272.63,402.49,267.51,404,260.69Z"
     id="path265" />
  <path
     class="fc39ccb2-bdd5-45e6-b0cd-0bd060f35bd4"
     d="M348.63,369.8c-10.46,0-24.83-9.81-37.52-25.59-13.16-16.39-21-34.95-21-49.65a65.57,65.57,0,0,1,2.64-17.39c1.46-5,.87-10-.55-16.32-.59-2.63-1.38-5.29-2.15-7.87-1.58-5.32-3.22-10.82-3.22-16.48,0-14.09,7.95-34.79,21.27-45,1.13-.87,2.07-1.16,2.89-.89,1.18.39,1.68,1.84,2.09,3.29,2.62,9.25,7.63,22.19,16.66,31.37,4,4.1,11.85,11,18.72,11s14.69-6.89,18.73-11c9-9.18,14-22.12,16.65-31.37.41-1.45.91-2.9,2.1-3.29.82-.27,1.76,0,2.89.89,13.32,10.25,21.28,30.95,21.27,45,0,5.66-1.64,11.16-3.22,16.48-.77,2.58-1.57,5.24-2.15,7.87h0c-1.54,6.84-2.11,11.73-.52,16.42a56.37,56.37,0,0,1,2.61,17.31c0,14.72-7.8,33.28-20.85,49.64C373.37,360,359.07,369.8,348.63,369.8ZM310.35,191.88a2.77,2.77,0,0,0-1.41.69c-13,10-20.74,30.18-20.73,43.93,0,5.46,1.61,10.86,3.17,16.08.77,2.6,1.57,5.29,2.17,8,1.47,6.57,2.07,11.71.53,17a64,64,0,0,0-2.58,17c0,14.39,7.74,32.62,20.71,48.77,12.24,15.22,26.53,25.06,36.42,25.06s24.09-9.83,36.22-25.05c12.86-16.12,20.54-34.35,20.54-48.76a54.71,54.71,0,0,0-2.54-16.86c-1.68-5-1.06-10.27.48-17.18h0c.6-2.67,1.4-5.36,2.18-8,1.55-5.22,3.16-10.62,3.17-16.08,0-13.75-7.75-33.94-20.73-43.93-.7-.54-1.26-.77-1.59-.66-.58.19-1,1.64-1.18,2.34-2.66,9.4-7.77,22.58-17,32-4.19,4.27-12.34,11.42-19.73,11.42s-15.53-7.15-19.72-11.42c-9.24-9.38-14.35-22.56-17-32-.2-.7-.61-2.15-1.19-2.34A.43.43,0,0,0,310.35,191.88ZM404,260.69h0Z"
     id="path267" />
  <path
     class="b6aa6b72-1429-42bf-a39b-5305575d835c"
     d="M400.14,253.55a1.41,1.41,0,0,1-.45-.07,1.52,1.52,0,0,1-1-1.9,53.34,53.34,0,0,0-9.12-48.8,45.16,45.16,0,0,1-4.1,13.18c-4.24,8.56-11.5,16.94-11.81,17.3a1.52,1.52,0,1,1-2.29-2c.07-.09,7.31-8.45,11.37-16.65A40.58,40.58,0,0,0,386.87,199a1.53,1.53,0,0,1,2.65-1,56.34,56.34,0,0,1,12.08,54.46A1.54,1.54,0,0,1,400.14,253.55Z"
     id="path269" />
  <path
     class="aa6c644b-2d3a-4aa7-be01-99f0d148aecc"
     d="M390.14,205.45s6.17,11,8.43,22.31c1.31,6.51.4,15.54-1.65,22.7-1.17,4.07-6.49,5.09-8.37,2.17-4.78-7.41-16.47-10.5-16.47-10.5s12.9-8.85,16.17-20.61A54.4,54.4,0,0,0,390.14,205.45Z"
     id="path271" />
  <path
     class="b6aa6b72-1429-42bf-a39b-5305575d835c"
     d="M391.85,254.65a4.16,4.16,0,0,1-3.59-1.83c-4.66-7.21-16.15-10.32-16.27-10.35l-.74-.2.63-.43c.13-.09,12.83-8.92,16-20.41a54.27,54.27,0,0,0,1.88-16l-.1-1.54.76,1.35c.06.11,6.22,11.21,8.47,22.41,1.22,6.1.57,15.07-1.67,22.87a5.69,5.69,0,0,1-4.62,4A7.11,7.11,0,0,1,391.85,254.65Zm-19-12.66c2.62.8,11.8,4,16,10.45a3.56,3.56,0,0,0,3.67,1.46,5,5,0,0,0,4.06-3.54c2.2-7.69,2.85-16.54,1.65-22.53-1.78-8.86-6-17.66-7.7-20.9a56.41,56.41,0,0,1-1.94,14.68C385.72,231.91,375.45,240.07,372.87,242Z"
     id="path273" />
  <path
     class="b153d295-4f67-467b-9113-8f55a56a2a36"
     d="M418.53,236.4s-16.61-8.05-30.11-4.73c-14.64,3.59-20.09,8.32-20.09,8.32l12.54,7.14a55.26,55.26,0,0,1,11.72-7.33C400.08,236.53,418.53,236.4,418.53,236.4Z"
     id="path275" />
  <path
     class="b502b20e-3fa9-4ee1-917c-bdf90a934f88"
     d="M406.84,246.83s-8.34-3.68-17.09-2.69c-8.51,1-8.88,3-8.88,3L389,254.3s-1.05-4.24,2.37-6.08C395.49,246,406.84,246.83,406.84,246.83Z"
     id="path277" />
  <path
     class="f7778af6-8fcd-4213-82bb-3ca6481409f1"
     d="M296.32,253.55a1.54,1.54,0,0,1-1.46-1.07A56.34,56.34,0,0,1,306.94,198a1.51,1.51,0,0,1,1.67-.39,1.53,1.53,0,0,1,1,1.4,40.58,40.58,0,0,0,4.13,15.58c4.07,8.21,11.3,16.56,11.37,16.65a1.52,1.52,0,1,1-2.29,2c-.31-.36-7.57-8.74-11.81-17.3a45.16,45.16,0,0,1-4.1-13.18,53.3,53.3,0,0,0-9.12,48.8,1.52,1.52,0,0,1-1,1.9A1.41,1.41,0,0,1,296.32,253.55Z"
     id="path279" />
  <g
     class="eafe62e1-4815-42aa-b88b-99baa13615af"
     clip-path="url(#b1a0532c-d25c-45b5-bcb5-4099f025ab9c)"
     id="g283">
    <path
       class="ac20ee0c-321e-4cfd-9ded-e1cd4780c914"
       d="M405.94,297.66c0,33.73-39.29,71.44-57.31,71.44-41.53,0-82.79-33-82.79-74.52s42.94-60.15,84.46-60.15C377.88,234.43,405.91,256.14,405.94,297.66Z"
       id="path281" />
  </g>
  <g
     class="fd73d010-8a3b-4cdb-bf7a-1e2098b81031"
     clip-path="url(#ac17b5d8-ca3f-4028-b951-355bf2b00ffe)"
     id="g287">
    <path
       class="af9ebf50-2e62-49d3-89d8-8fed39253edb"
       d="M423.34,254c0,41.52-33.19,115.65-74.71,115.08-22.9-.32-58.64-43.06-58.92-71.44-.36-36.72,22.87-60.73,64.4-60.73S423.34,212.49,423.34,254Z"
       id="path285" />
  </g>
  <path
     class="f7778af6-8fcd-4213-82bb-3ca6481409f1"
     d="M313.76,336.9a1.5,1.5,0,0,1-1-.4,56.07,56.07,0,0,1-3.7-79.2,1.52,1.52,0,0,1,2.25,2.05,53,53,0,0,0,3.5,74.9,1.52,1.52,0,0,1-1,2.65Z"
     id="path289" />
  <path
     class="b6aa6b72-1429-42bf-a39b-5305575d835c"
     d="M386.72,332.92a1.55,1.55,0,0,1-1-.4,1.52,1.52,0,0,1-.1-2.15,53,53,0,0,0-3.5-74.91,1.52,1.52,0,1,1,2.05-2.25,56.06,56.06,0,0,1,3.7,79.21A1.51,1.51,0,0,1,386.72,332.92Z"
     id="path291" />
  <path
     class="f7778af6-8fcd-4213-82bb-3ca6481409f1"
     d="M319.89,251.69a1.52,1.52,0,0,1-.7-2.87,70.34,70.34,0,0,1,11.49-5,1.52,1.52,0,1,1,.94,2.9,66.48,66.48,0,0,0-11,4.82A1.55,1.55,0,0,1,319.89,251.69Z"
     id="path293" />
  <path
     class="b6aa6b72-1429-42bf-a39b-5305575d835c"
     d="M374,249.36a1.53,1.53,0,0,1-.73-.19,54.12,54.12,0,0,0-9.35-4c-5.67-2.28-15.25-2.62-15.35-2.62a1.53,1.53,0,0,1,0-3h.05c.42,0,10.22.37,16.32,2.82a57.25,57.25,0,0,1,9.75,4.19,1.52,1.52,0,0,1,.6,2.07A1.54,1.54,0,0,1,374,249.36Z"
     id="path295" />
  <path
     class="a6bb5c01-c253-4a50-a2f9-b5032aa3af7d"
     d="M306.74,205.45s-6.17,11-8.43,22.31c-1.31,6.51-.39,15.54,1.66,22.7,1.16,4.07,6.48,5.09,8.36,2.17,4.78-7.41,16.47-10.5,16.47-10.5s-12.9-8.85-16.17-20.61A54.4,54.4,0,0,1,306.74,205.45Z"
     id="path297" />
  <path
     class="f7778af6-8fcd-4213-82bb-3ca6481409f1"
     d="M305,254.65a7.11,7.11,0,0,1-.78-.05,5.69,5.69,0,0,1-4.62-4c-2.24-7.8-2.89-16.77-1.67-22.87,2.25-11.2,8.41-22.3,8.47-22.41l.76-1.35-.1,1.54a54.67,54.67,0,0,0,1.88,16c3.2,11.49,15.9,20.32,16,20.41l.63.43-.74.2c-.11,0-11.61,3.14-16.26,10.35A4.18,4.18,0,0,1,305,254.65Zm1.32-47.72c-1.67,3.24-5.92,12-7.7,20.9-1.2,6-.55,14.84,1.65,22.53a5,5,0,0,0,4.06,3.54,3.59,3.59,0,0,0,3.68-1.46c4.17-6.47,13.35-9.65,16-10.45-2.58-1.92-12.85-10.08-15.71-20.38A56.09,56.09,0,0,1,306.35,206.93Z"
     id="path299" />
  <path
     class="b33b7181-c5f8-4436-80d6-650e13068cd1"
     d="M278.35,236.4s16.62-8.05,30.11-4.73c14.65,3.59,20.09,8.32,20.09,8.32L316,247.13a55.48,55.48,0,0,0-11.73-7.33C296.8,236.53,278.35,236.4,278.35,236.4Z"
     id="path301" />
  <path
     class="acc4975f-913b-439c-8e9e-6dd8524e074f"
     d="M290,246.83s8.34-3.68,17.09-2.69c8.51,1,8.89,3,8.89,3l-8.09,7.17s1.05-4.24-2.37-6.08C301.4,246,290,246.83,290,246.83Z"
     id="path303" />
  <path
     class="e129c2c5-5e1b-4f43-8efc-f52c12c07ef6"
     d="M354,319.41c.92-.58,2.14.32,2.51,1.06a2.14,2.14,0,0,1-.37,2.43c-1.61,1.65-4.29-.21-4.29-1.89a16.93,16.93,0,0,1,1-5.34,26.58,26.58,0,0,1,1.78-4.11,50.23,50.23,0,0,1,9.49-12.06A52.84,52.84,0,0,1,376,290.65c2.77-1.5,5.7-2.82,8.57-4.19,6.42-3.07,14.46-6.88,16.1-13.41.41-1.65.69-3.49-.22-5.06a13,13,0,0,1,1.44,5.53,10.9,10.9,0,0,1-1.54,5.75,18.78,18.78,0,0,1-2.43,3.24c-3.9,4.28-9.38,7.2-14.15,10.73-2.35,1.75-4.64,3.54-7.14,5.15-2.79,1.8-5.68,3.48-8.43,5.31-5.37,3.56-11.09,7.86-13.58,13.31A6.42,6.42,0,0,0,354,319.41Zm36.91-17.85c-8.22,4.91-17.45,8.71-24.16,15.17a24.1,24.1,0,0,0-6.57,10.49c-.51,1.74-1,3.81-.16,5.54.53,1.1,2.74,2.48,4.07,1.12a2.15,2.15,0,0,0,.37-2.44c-.37-.73-1.59-1.64-2.52-1.06a6.82,6.82,0,0,1,.63-2.4c4.09-8.91,16.26-12.31,25.76-16.09a54.07,54.07,0,0,0,13.08-7.06c2.49-1.93,4.23-3.78,4.3-6.63.06-2.13.1-4.3,0-6.42s-.61-3.91-.56-5.93c.26,2-1.22,4-2.43,5.68C399.76,295.66,395.53,298.78,390.88,301.56Zm-10.66,29.72c2.73-.58,5.58-.92,7.95-1.43a23.32,23.32,0,0,0,6.89-2.54c2.38-1.43,3.58-3.57,4.65-6,.67-1.51.83-3.36,1.65-4.84-4.25,7.67-16.13,8.18-24.23,11.52-4.14,1.7-7.7,4.33-8.84,8.17-.51,1.74-1,3.82-.16,5.54.52,1.1,2.74,2.48,4.07,1.12a2.14,2.14,0,0,0,.37-2.43c-.37-.74-1.59-1.64-2.52-1.07a6.62,6.62,0,0,1,.63-2.39C372.23,333.57,376.1,332.16,380.22,331.28ZM369.75,285c1.92,1.31,6.2-.81,7.77-1.68,5.49-3,11.46-6,15-10.73a11.37,11.37,0,0,0,2.22-5.59,12.76,12.76,0,0,0-.77-5.63c.72,1.64.22,3.45-.39,5.05-2.41,6.37-10.87,9.5-17.63,12-2.36.89-7.47,2-7.12,4.85A2.24,2.24,0,0,0,369.75,285Zm-4.52-1.21c-6-2.8-10.92,4.88-5,7.71a6.55,6.55,0,0,0,5.83-.45,3.65,3.65,0,0,0,2.06-3.3A4.73,4.73,0,0,0,365.23,283.75Z"
     id="path305" />
  <path
     class="b6aa6b72-1429-42bf-a39b-5305575d835c"
     d="M370.85,343.77a3.58,3.58,0,0,1-.45,0,3.78,3.78,0,0,1-2.58-1.85c-.86-1.8-.42-3.94.13-5.79,1-3.48,4.16-6.39,9-8.4a68.72,68.72,0,0,1,7.89-2.48c6.51-1.77,13.24-3.6,16.18-8.88h0a.34.34,0,0,1,.47-.13.36.36,0,0,1,.14.48,11.31,11.31,0,0,0-.93,2.62,14.74,14.74,0,0,1-.71,2.19c-1,2.15-2.2,4.58-4.79,6.13a23.49,23.49,0,0,1-7,2.58c-1.18.26-2.46.47-3.82.69s-2.76.46-4.12.75h0c-3.5.74-7.72,2-9.3,5.47a7.06,7.06,0,0,0-.54,1.74,1.76,1.76,0,0,1,.75.05,2.83,2.83,0,0,1,1.67,1.37,2.49,2.49,0,0,1-.43,2.83A2.17,2.17,0,0,1,370.85,343.77Zm29.29-24.95c-3.5,3.92-9.37,5.52-15.07,7.07a67.86,67.86,0,0,0-7.81,2.45c-3.26,1.35-7.4,3.82-8.63,8-.51,1.73-.94,3.7-.18,5.29a3.13,3.13,0,0,0,2.07,1.46,1.55,1.55,0,0,0,1.43-.44,1.79,1.79,0,0,0,.3-2,2.14,2.14,0,0,0-1.23-1,.91.91,0,0,0-.78.08.38.38,0,0,1-.37,0,.37.37,0,0,1-.17-.33,6.84,6.84,0,0,1,.66-2.52c1.71-3.73,6.13-5.1,9.79-5.87h0c1.38-.29,2.79-.53,4.16-.75s2.62-.43,3.78-.69a22.64,22.64,0,0,0,6.79-2.5c2.18-1.3,3.34-3.18,4.51-5.8a15.5,15.5,0,0,0,.67-2.09C400.09,319,400.11,318.91,400.14,318.82Zm-19.92,12.46h0Zm-17.51,3.51-.45,0a3.8,3.8,0,0,1-2.58-1.85c-.86-1.8-.41-3.94.13-5.79a24.4,24.4,0,0,1,6.66-10.64c4.8-4.62,10.95-7.93,16.9-11.14,2.43-1.31,4.95-2.66,7.33-4.08h0c5.58-3.33,9.19-6.4,11.71-9.93l.21-.3a9.84,9.84,0,0,0,2.17-4.34,8,8,0,0,1,0-.85.35.35,0,0,1,.7,0,4.72,4.72,0,0,1,0,.92c0,.79.15,1.57.27,2.39s.25,1.75.29,2.66c.08,2.14,0,4.35,0,6.43-.08,2.94-1.84,4.88-4.45,6.9a52.85,52.85,0,0,1-13.16,7.11c-1.33.53-2.71,1.05-4.11,1.58-8.44,3.19-18,6.8-21.46,14.34a7.13,7.13,0,0,0-.54,1.73,1.94,1.94,0,0,1,.75.06,2.83,2.83,0,0,1,1.67,1.37,2.49,2.49,0,0,1-.43,2.83A2.16,2.16,0,0,1,362.71,334.79Zm28.35-32.93c-2.4,1.43-4.92,2.79-7.35,4.1-5.91,3.19-12,6.48-16.75,11a23.67,23.67,0,0,0-6.47,10.34c-.51,1.72-.93,3.7-.18,5.29a3.12,3.12,0,0,0,2.07,1.45,1.54,1.54,0,0,0,1.43-.43,1.79,1.79,0,0,0,.3-2,2.19,2.19,0,0,0-1.23-1,.94.94,0,0,0-.78.09.35.35,0,0,1-.37,0,.36.36,0,0,1-.17-.32,6.89,6.89,0,0,1,.66-2.52c3.58-7.81,13.29-11.47,21.85-14.7,1.4-.53,2.78-1.05,4.1-1.58a52.5,52.5,0,0,0,13-7c2.53-1.95,4.1-3.7,4.17-6.36.05-2.07.1-4.27,0-6.39a24.14,24.14,0,0,0-.28-2.59c0-.21-.05-.43-.08-.64a17.26,17.26,0,0,1-1.79,2.87l-.21.29c-2.57,3.63-6.25,6.75-11.92,10.13Zm-36.44,22a3,3,0,0,1-1.1-.23,3.16,3.16,0,0,1-2-2.66,17,17,0,0,1,1-5.45,27.2,27.2,0,0,1,1.8-4.17,50.11,50.11,0,0,1,9.56-12.14,52.43,52.43,0,0,1,12-8.91c2.07-1.13,4.27-2.16,6.4-3.17l2.18-1,.16-.07c6.31-3,14.17-6.79,15.75-13.11.39-1.55.67-3.33-.18-4.8h0a.35.35,0,1,1,.6-.35h0a13.12,13.12,0,0,1,1.48,5.68,11.3,11.3,0,0,1-1.59,5.94,19.16,19.16,0,0,1-2.47,3.3c-2.72,3-6.23,5.33-9.63,7.61-1.52,1-3.09,2.07-4.57,3.16l-1.56,1.17c-1.79,1.34-3.64,2.73-5.6,4-1.23.8-2.49,1.58-3.74,2.35-1.55,1-3.16,2-4.69,3-5.27,3.5-11,7.79-13.46,13.17a6.87,6.87,0,0,0-.54,1.73,1.62,1.62,0,0,1,.75.06,2.86,2.86,0,0,1,1.67,1.36,2.51,2.51,0,0,1-.43,2.84A2.41,2.41,0,0,1,354.62,323.9Zm46.68-52.3a14.27,14.27,0,0,1-.31,1.53c-1.66,6.64-9.68,10.48-16.13,13.57l-.16.08-2.18,1c-2.12,1-4.31,2-6.37,3.15a51.76,51.76,0,0,0-11.85,8.79,49.17,49.17,0,0,0-9.43,12,26.81,26.81,0,0,0-1.76,4.06,16.74,16.74,0,0,0-.94,5.23,2.51,2.51,0,0,0,1.62,2,1.78,1.78,0,0,0,2.38-2.39,2.25,2.25,0,0,0-1.24-1,1,1,0,0,0-.78.09.33.33,0,0,1-.36,0,.35.35,0,0,1-.18-.32,6.91,6.91,0,0,1,.67-2.53c2.53-5.53,8.35-9.91,13.7-13.45,1.55-1,3.15-2,4.71-3,1.25-.77,2.5-1.54,3.73-2.34,1.93-1.24,3.78-2.63,5.56-4l1.56-1.17c1.49-1.1,3.07-2.16,4.6-3.18,3.36-2.26,6.84-4.59,9.5-7.5a19.35,19.35,0,0,0,2.39-3.19,10.59,10.59,0,0,0,1.49-5.55A15.35,15.35,0,0,0,401.3,271.6Zm-38.7,20.7a5.85,5.85,0,0,1-2.49-.53c-3-1.4-3.37-4-2.47-5.89a5.69,5.69,0,0,1,7.74-2.44h0a5.07,5.07,0,0,1,3.12,4.26,4,4,0,0,1-2.23,3.62A7.53,7.53,0,0,1,362.6,292.3Zm0-8.79a4.8,4.8,0,0,0-4.37,2.67c-.7,1.49-.56,3.68,2.13,5a6.24,6.24,0,0,0,5.51-.43,3.31,3.31,0,0,0,1.88-3,4.38,4.38,0,0,0-2.72-3.65h0A5.71,5.71,0,0,0,362.65,283.51Zm8.7,2.22a3.1,3.1,0,0,1-1.79-.48,2.59,2.59,0,0,1-1.07-1.95c-.33-2.68,3.35-3.89,6-4.77.49-.16.94-.3,1.32-.45L376,278c6.65-2.49,14.92-5.59,17.25-11.76.57-1.51,1.07-3.25.4-4.78h0a.35.35,0,0,1,.64-.28,12.91,12.91,0,0,1,.8,5.79,11.69,11.69,0,0,1-2.29,5.78c-3.22,4.34-8.39,7.16-13.39,9.88l-1.73.95C376.35,284.33,373.54,285.73,371.35,285.73ZM394.41,265a14,14,0,0,1-.49,1.51c-2.45,6.46-10.88,9.63-17.66,12.17l-.17.06c-.39.15-.85.3-1.35.46-2.45.81-5.81,1.91-5.55,4a1.9,1.9,0,0,0,.76,1.45h0c1.43,1,4.76-.23,7.4-1.69l1.73-1c4.94-2.69,10-5.47,13.16-9.68a10.92,10.92,0,0,0,2.16-5.41A15.56,15.56,0,0,0,394.41,265Z"
     id="path307" />
  <path
     class="b6be94a1-c99f-40a9-b28c-1f03cf30ffb8"
     d="M360.85,302.94c-.75.91-1.47,1.83-2.17,2.76a7,7,0,0,1-.76,1c1.83-1.68,4.35-2.51,6.88-3.21A38.89,38.89,0,0,0,380.45,295a23.65,23.65,0,0,0,3.13-3.46,48.85,48.85,0,0,0,3.53-6.45c-.06.12-.68.31-.83.38-3.35,1.64-6.88,3-10.18,4.7a43.78,43.78,0,0,0-10.05,7.18A63.85,63.85,0,0,0,360.85,302.94Z"
     id="path309" />
  <path
     class="a8e45d24-9606-4ba2-b219-b7cff26e40ec"
     d="M357.92,307a.35.35,0,0,1-.26-.12.35.35,0,0,1,0-.49h0a3.93,3.93,0,0,0,.53-.65l.18-.25c.72-1,1.46-1.9,2.18-2.77a63.49,63.49,0,0,1,5.23-5.64,43.89,43.89,0,0,1,10.13-7.24c1.85-.95,3.81-1.82,5.7-2.65,1.48-.66,3-1.33,4.49-2.05l.26-.11a3.83,3.83,0,0,0,.45-.18.34.34,0,0,1,.43-.09.35.35,0,0,1,.15.47h0c-.3.57-.58,1.15-.86,1.72a30.72,30.72,0,0,1-2.7,4.77,23.71,23.71,0,0,1-3.17,3.52,39.1,39.1,0,0,1-15.8,8.55c-2.3.63-4.9,1.45-6.72,3.12h0A.33.33,0,0,1,357.92,307Zm28.41-21.19c-1.45.7-2.95,1.37-4.41,2-1.88.83-3.83,1.69-5.66,2.64a43.21,43.21,0,0,0-10,7.12,62.12,62.12,0,0,0-5.17,5.58h0c-.48.58-1,1.2-1.46,1.83a22.74,22.74,0,0,1,5-1.89,38.35,38.35,0,0,0,15.51-8.39,23.47,23.47,0,0,0,3.09-3.41,31.39,31.39,0,0,0,2.63-4.67C386.07,286.37,386.2,286.09,386.33,285.82Zm-25.48,17.12h0Z"
     id="path311" />
  <path
     class="b9f51dd2-9c24-4870-9ea2-6395a0ba034d"
     d="M342.21,317c-2.5-5.45-8.22-9.75-13.58-13.31-2.76-1.83-5.65-3.51-8.44-5.31-2.5-1.61-4.78-3.4-7.14-5.15-4.77-3.53-10.25-6.45-14.15-10.73a19.3,19.3,0,0,1-2.43-3.24,11,11,0,0,1-1.54-5.75,13,13,0,0,1,1.44-5.53c-.91,1.57-.63,3.41-.22,5.06,1.64,6.53,9.69,10.34,16.1,13.41,2.87,1.37,5.8,2.69,8.57,4.19a52.84,52.84,0,0,1,11.93,8.85,50.23,50.23,0,0,1,9.49,12.06,26.58,26.58,0,0,1,1.78,4.11,16.93,16.93,0,0,1,1,5.34c0,1.68-2.67,3.54-4.29,1.89a2.15,2.15,0,0,1-.37-2.43c.37-.74,1.59-1.64,2.52-1.06A6.82,6.82,0,0,0,342.21,317ZM294.1,291.53a9.94,9.94,0,0,1-2.18-5.48c-.7,2.84-.35,3.67-.6,6a48.24,48.24,0,0,0,.08,6.36c.08,2.85,1.53,4.46,4,6.39a54.25,54.25,0,0,0,13.08,7.06c9.5,3.78,21.67,7.18,25.76,16.09a6.62,6.62,0,0,1,.63,2.4c-.93-.58-2.15.33-2.52,1.06a2.17,2.17,0,0,0,.37,2.44c1.33,1.36,3.55,0,4.07-1.12.82-1.73.36-3.8-.16-5.54a24.1,24.1,0,0,0-6.57-10.49c-6.71-6.46-15.93-10.26-24.16-15.17C301.27,298.78,297,295.66,294.1,291.53Zm31.19,45.23a6.42,6.42,0,0,1,.63,2.4c-.92-.58-2.14.33-2.51,1.06a2.14,2.14,0,0,0,.37,2.44c1.33,1.36,3.54,0,4.06-1.12.82-1.73.36-3.8-.16-5.54-1.14-3.84-4.7-6.47-8.83-8.18-8.1-3.33-19.16-3.46-23.42-11.13.82,1.48,1.36,3.34,2.11,4.81,1.27,2.5,2,4.32,4.37,5.74a17.47,17.47,0,0,0,5.9,2.42c2.36.51,5.21.85,7.94,1.43C319.88,332,323.74,333.38,325.29,336.76Zm2.67-53.5c.35-2.86-4.75-4-7.12-4.85-6.76-2.53-15.22-5.66-17.63-12-.61-1.6-1.1-3.41-.39-5.05a12.75,12.75,0,0,0-.76,5.63,11.36,11.36,0,0,0,2.21,5.59c3.55,4.77,9.52,7.7,15,10.73,1.57.87,5.85,3,7.77,1.68A2.24,2.24,0,0,0,328,283.26Zm.69,4.45a3.65,3.65,0,0,0,2.06,3.3,6.55,6.55,0,0,0,5.83.45c5.95-2.83,1.06-10.51-5-7.71A4.73,4.73,0,0,0,328.65,287.71Z"
     id="path313" />
  <path
     class="f7778af6-8fcd-4213-82bb-3ca6481409f1"
     d="M325.12,343.57a2.14,2.14,0,0,1-1.59-.67,2.49,2.49,0,0,1-.44-2.83,2.9,2.9,0,0,1,1.67-1.37,2,2,0,0,1,.76-.06,6.64,6.64,0,0,0-.55-1.73h0c-1.58-3.45-5.79-4.74-9.29-5.47-1.37-.29-2.77-.53-4.13-.75s-2.63-.43-3.82-.69a17.86,17.86,0,0,1-6-2.46c-2.22-1.32-3.06-3-4.12-5.11l-.38-.77c-.36-.69-.66-1.47-1-2.22a21,21,0,0,0-1.15-2.58.35.35,0,0,1,.62-.34c2.91,5.24,9.25,6.92,15.39,8.54A63.44,63.44,0,0,1,319,327.5c4.88,2,8,4.92,9,8.4.55,1.85,1,4,.14,5.79a3.82,3.82,0,0,1-2.59,1.85Zm.15-4.24a1,1,0,0,0-.32.05,2.17,2.17,0,0,0-1.23,1,1.79,1.79,0,0,0,.31,2,1.53,1.53,0,0,0,1.43.43,3.1,3.1,0,0,0,2.06-1.45c.76-1.59.34-3.57-.17-5.29-1.23-4.13-5.38-6.61-8.64-8a63.82,63.82,0,0,0-7.76-2.41c-5.19-1.37-10.52-2.78-13.94-6.33.27.69.54,1.34.84,1.93l.39.77c1.05,2.1,1.8,3.61,3.85,4.83a16.92,16.92,0,0,0,5.79,2.37c1.17.26,2.44.47,3.79.69s2.77.45,4.15.75c3.66.77,8.08,2.14,9.79,5.87h0a6.84,6.84,0,0,1,.66,2.52.34.34,0,0,1-.17.32.33.33,0,0,1-.36,0A.85.85,0,0,0,325.27,339.33Zm8.82-4.54a2.16,2.16,0,0,1-1.6-.67,2.49,2.49,0,0,1-.43-2.83,2.83,2.83,0,0,1,1.67-1.37,1.94,1.94,0,0,1,.75-.06,7,7,0,0,0-.54-1.73c-3.46-7.54-13-11.15-21.46-14.34-1.4-.53-2.78-1.05-4.11-1.58a53,53,0,0,1-13.16-7.11c-2.64-2-4.08-3.7-4.16-6.65,0-.63-.05-1.27-.08-1.9a27.17,27.17,0,0,1,0-4.51c.09-.83.1-1.47.11-2.09a15.86,15.86,0,0,1,.5-4,.35.35,0,0,1,.38-.27.36.36,0,0,1,.32.34,9.68,9.68,0,0,0,2.11,5.29c2.52,3.53,6.13,6.6,11.71,9.93,2.38,1.42,4.9,2.77,7.33,4.08,5.95,3.21,12.1,6.52,16.9,11.14A24.4,24.4,0,0,1,337,327.12c.55,1.85,1,4,.14,5.79a3.82,3.82,0,0,1-2.59,1.85Zm.15-4.24a1.22,1.22,0,0,0-.32,0,2.22,2.22,0,0,0-1.23,1,1.79,1.79,0,0,0,.3,2,1.54,1.54,0,0,0,1.43.43,3.12,3.12,0,0,0,2.07-1.45c.76-1.59.34-3.57-.18-5.29A23.67,23.67,0,0,0,329.84,317c-4.73-4.54-10.84-7.84-16.74-11-2.44-1.31-5-2.67-7.36-4.1-5.67-3.38-9.34-6.5-11.92-10.13h0a12.58,12.58,0,0,1-1.92-3.67,18.82,18.82,0,0,0-.12,1.91,20.08,20.08,0,0,1-.12,2.15,28,28,0,0,0,0,4.39c0,.64.07,1.28.08,1.92.07,2.67,1.42,4.21,3.89,6.12a52.5,52.5,0,0,0,13,7c1.32.53,2.7,1.05,4.1,1.57,8.56,3.24,18.27,6.9,21.85,14.71a6.89,6.89,0,0,1,.66,2.52.34.34,0,0,1-.17.32.35.35,0,0,1-.37,0A.82.82,0,0,0,334.24,330.55Zm7.94-6.65a2.41,2.41,0,0,1-1.74-.75,2.51,2.51,0,0,1-.43-2.84,2.86,2.86,0,0,1,1.67-1.36,1.62,1.62,0,0,1,.75-.06,6.87,6.87,0,0,0-.54-1.73c-2.47-5.38-8.19-9.67-13.46-13.17-1.53-1-3.13-2-4.68-3q-1.89-1.15-3.75-2.35c-2-1.26-3.81-2.65-5.6-4l-1.56-1.17c-1.47-1.09-3-2.14-4.57-3.16-3.4-2.28-6.91-4.63-9.63-7.61a19.69,19.69,0,0,1-2.47-3.3,11.3,11.3,0,0,1-1.59-5.94,13.12,13.12,0,0,1,1.48-5.68v0a.35.35,0,0,1,.48-.13.35.35,0,0,1,.12.48h0c-.85,1.47-.57,3.25-.18,4.8,1.59,6.32,9.44,10.08,15.75,13.11l.17.07,2.17,1c2.12,1,4.33,2,6.41,3.17a52.59,52.59,0,0,1,12,8.91,49.71,49.71,0,0,1,9.56,12.15,27,27,0,0,1,1.8,4.15,17.06,17.06,0,0,1,1,5.46,3.16,3.16,0,0,1-2.05,2.66A2.93,2.93,0,0,1,342.18,323.9Zm0-4.32a1.17,1.17,0,0,0-.32,0,2.19,2.19,0,0,0-1.23,1A1.77,1.77,0,0,0,343,323a2.5,2.5,0,0,0,1.62-2,16.46,16.46,0,0,0-.94-5.23,26.81,26.81,0,0,0-1.76-4.06,49.17,49.17,0,0,0-9.43-12A51.76,51.76,0,0,0,320.65,291c-2.06-1.12-4.25-2.15-6.37-3.15l-2.18-1-.16-.08c-6.45-3.09-14.47-6.93-16.13-13.57-.12-.49-.23-1-.31-1.53a15.35,15.35,0,0,0-.22,1.94,10.59,10.59,0,0,0,1.49,5.55,19.35,19.35,0,0,0,2.39,3.19c2.66,2.91,6.14,5.24,9.5,7.5,1.53,1,3.11,2.08,4.6,3.18l1.56,1.17c1.78,1.33,3.63,2.72,5.56,4,1.23.8,2.48,1.57,3.74,2.34,1.55,1,3.16,2,4.7,3,5.35,3.54,11.17,7.92,13.71,13.45h0a7.09,7.09,0,0,1,.66,2.53.36.36,0,0,1-.17.32.35.35,0,0,1-.37,0A.82.82,0,0,0,342.19,319.58Zm-8-27.28a7.51,7.51,0,0,1-3.67-1,4,4,0,0,1-2.24-3.62h0a5.07,5.07,0,0,1,3.12-4.26,5.69,5.69,0,0,1,7.74,2.44c.9,1.92.49,4.49-2.47,5.89A5.84,5.84,0,0,1,334.21,292.3Zm0-8.79a5.76,5.76,0,0,0-2.44.56,4.38,4.38,0,0,0-2.72,3.65h0a3.31,3.31,0,0,0,1.88,3,6.24,6.24,0,0,0,5.51.43c2.7-1.28,2.83-3.47,2.13-5A4.78,4.78,0,0,0,334.16,283.51Zm-5.51,4.2h0Zm-3.2-2c-2.18,0-5-1.4-6.34-2.14l-1.73-.95c-5-2.72-10.17-5.54-13.39-9.88A11.69,11.69,0,0,1,301.7,267a13,13,0,0,1,.8-5.79h0A.36.36,0,0,1,303,261a.37.37,0,0,1,.18.46h0c-.67,1.53-.17,3.27.4,4.78,2.34,6.17,10.61,9.27,17.25,11.76l.17.06c.38.15.83.29,1.32.45,2.68.88,6.36,2.09,6,4.77h0a2.62,2.62,0,0,1-1.06,1.95A3.15,3.15,0,0,1,325.45,285.73ZM302.39,265a13.85,13.85,0,0,0,0,1.93,10.9,10.9,0,0,0,2.15,5.41c3.12,4.21,8.23,7,13.16,9.68l1.73,1c2.64,1.45,6,2.67,7.4,1.69a1.94,1.94,0,0,0,.77-1.45h0c.25-2.11-3.11-3.21-5.56-4-.5-.16-1-.31-1.34-.46l-.18-.06c-6.77-2.54-15.21-5.71-17.66-12.17C302.7,266,302.53,265.52,302.39,265ZM328,283.26h0Z"
     id="path315" />
  <path
     class="e3a09d28-2064-4d64-aff9-99297e087291"
     d="M336.06,303.28c.75.91,1.47,1.83,2.17,2.76a6.33,6.33,0,0,0,.76.95c-1.83-1.67-4.35-2.51-6.88-3.2a38.89,38.89,0,0,1-15.65-8.47,23.65,23.65,0,0,1-3.13-3.46,48.85,48.85,0,0,1-3.53-6.45c.06.12.67.31.82.38,3.36,1.64,6.89,3,10.19,4.7a44,44,0,0,1,10.05,7.18A63.85,63.85,0,0,1,336.06,303.28Z"
     id="path317" />
  <path
     class="a8e45d24-9606-4ba2-b219-b7cff26e40ec"
     d="M339,307.35a.33.33,0,0,1-.24-.1h0c-1.83-1.67-4.43-2.49-6.73-3.13a39,39,0,0,1-15.8-8.54,24.22,24.22,0,0,1-3.17-3.52,30.72,30.72,0,0,1-2.7-4.77c-.28-.57-.56-1.15-.86-1.72h0a.35.35,0,0,1,.15-.47.34.34,0,0,1,.43.09,3.83,3.83,0,0,0,.45.18l.26.11c1.47.71,3,1.39,4.49,2,1.89.83,3.85,1.69,5.7,2.65a43.89,43.89,0,0,1,10.13,7.24,63.49,63.49,0,0,1,5.23,5.64c.72.87,1.45,1.8,2.18,2.77l.18.26a4.29,4.29,0,0,0,.53.64h0a.34.34,0,0,1,0,.49A.35.35,0,0,1,339,307.35Zm-28.42-21.19c.14.27.27.55.41.82a31.39,31.39,0,0,0,2.63,4.67,23.47,23.47,0,0,0,3.09,3.41,38.35,38.35,0,0,0,15.51,8.39,22.74,22.74,0,0,1,5,1.89c-.49-.64-1-1.25-1.46-1.83h0a63.72,63.72,0,0,0-5.17-5.58,43.21,43.21,0,0,0-10-7.12c-1.84-.95-3.78-1.81-5.66-2.64C313.53,287.53,312,286.86,310.57,286.16Z"
     id="path319" />
  <path
     class="b3070284-b0af-42e7-b0a4-a24f60ed6f5c"
     d="M377.4,352.23a17.12,17.12,0,0,1-12.52,4.39c-11-1-14.82-13.3-14.84-24.36,0-5.28.28-39.78.3-41.91,0-3.55-.09-5.12,3.39-7.06a9,9,0,0,0,2.77-13.22c-1.23-1.6-3.26-2.5-4.3-4.25-1.17-2-.81-3.51-1.56-6.53-5.25-21-19.65-19.48-20.05-19.34l-3.09.84c5.23.19,15.19,1,19,18.49.59,2.73-.4,4.55-1.58,6.53-1,1.75-3.07,2.65-4.3,4.25a9,9,0,0,0,2.74,13.22c3.47,2,3.33,3.52,3.37,7.07,0,2.13.23,36.63.21,41.9-.05,11.07,2.73,21.57,12.93,25.86,4.27,1.8,9.53.43,11.35-.1m-29.45-82.67c0-3.14,3.1-5.7,6.9-5.69s6.88,2.56,6.88,5.7-3.1,5.7-6.9,5.69S341.76,278.48,341.76,275.34Z"
     id="path321" />
  <path
     class="f2b930ca-3f1c-492c-a2a4-cbdc32df670b"
     d="M364.78,359.36a12.94,12.94,0,0,1-5.06-.93c-8.78-3.69-13.21-12.5-13.14-26.18,0-5.14-.19-39.24-.21-41.9v-.42c0-3.23,0-4.57-3.19-6.34a9.35,9.35,0,0,1-2.84-13.75,12,12,0,0,1,2-1.93,9,9,0,0,0,2.24-2.28c1.24-2.09,2.08-3.77,1.54-6.27-3.38-15.58-11.33-18-18.66-18.22a.35.35,0,0,1-.34-.31.36.36,0,0,1,.26-.38l3.08-.84a14.82,14.82,0,0,1,8.73,1.9c3.87,2.08,9,6.84,11.76,17.69a25.64,25.64,0,0,1,.53,3,8.29,8.29,0,0,0,1,3.47,9,9,0,0,0,2.24,2.28,11.68,11.68,0,0,1,2,1.94,9.35,9.35,0,0,1-2.88,13.74c-3.16,1.76-3.17,3.1-3.2,6.34v.42c0,1.6-.32,36.54-.3,41.9,0,11,3.85,23.06,14.52,24a16.78,16.78,0,0,0,12.26-4.3.35.35,0,1,1,.47.51c-6.11,5.8-6.71,6-6.82,6A20.44,20.44,0,0,1,364.78,359.36Zm-35.11-118.8c5.21.47,13.75,2.89,17.17,18.65.64,3-.56,5-1.63,6.78a9.56,9.56,0,0,1-2.4,2.47,11.53,11.53,0,0,0-1.93,1.81A8.64,8.64,0,0,0,343.52,283c3.5,2,3.52,3.63,3.54,6.94v.43c0,2.66.23,36.77.21,41.91-.06,13.55,4.1,21.9,12.71,25.53,3.6,1.51,8.25.8,11.32-.09.23-.18,2.59-2.28,4.19-3.78-4.49,2.58-7,3.38-10.65,3.05-11.15-1-15.14-13.42-15.17-24.71,0-5.37.29-40.3.31-41.91v-.42c0-3.32.05-5,3.57-6.95a8.65,8.65,0,0,0,2.66-12.7,11.86,11.86,0,0,0-1.92-1.81,9.56,9.56,0,0,1-2.4-2.47,9,9,0,0,1-1.09-3.74,23.69,23.69,0,0,0-.52-2.89c-5.18-20.81-19.46-19.12-19.6-19.09Zm19,40.83h0a8,8,0,0,1-5.09-1.75,5.57,5.57,0,0,1-2.14-4.3c0-3.33,3.25-6,7.24-6h0a8,8,0,0,1,5.09,1.75,5.59,5.59,0,0,1,2.14,4.3C355.89,278.68,352.64,281.39,348.65,281.39Zm0-11.39c-3.6,0-6.53,2.39-6.53,5.34h0A4.84,4.84,0,0,0,344,279.1a7.3,7.3,0,0,0,4.64,1.59h0c3.6,0,6.53-2.39,6.54-5.34a4.88,4.88,0,0,0-1.89-3.76,7.3,7.3,0,0,0-4.64-1.59Zm-6.89,5.34h0Z"
     id="path323" />
  <path
     class="eb8e2621-6600-45d9-a4af-3cc528263b0f"
     d="M378.18,351.49l-.78.74C377.9,351.79,378.18,351.49,378.18,351.49Z"
     id="path325" />
</svg>
